<?xml version="1.0" encoding="utf-8"?>
<!-- Generator: Adobe Illustrator 22.1.0, SVG Export Plug-In . SVG Version: 6.00 Build 0)  -->
<svg version="1.1" id="圖層_1" xmlns="http://www.w3.org/2000/svg" xmlns:xlink="http://www.w3.org/1999/xlink" x="0px" y="0px"
	 viewBox="0 0 163.7 42.9" style="enable-background:new 0 0 163.7 42.9;" xml:space="preserve">
<style type="text/css">
	.st0{fill:#F2F2F2;}
	.st1{fill:#333333;}
</style>
<g>
	<rect class="st0" width="163.7" height="42.9"/>
	<g>
		<g>
			<path class="st1" d="M27.3,27.9v0.8h-4.8V30h7.1v2H11.8v-2h7v-1.3H14v-0.8h-2.5l2.1-3.2h-1.8v-2h2v-6.9h-1.6v-2h1.6V12h3.7v1.8
				h6.3V12h3.7v1.8h1.6v2h-1.6v6.9h2.1v2h-1.9l2.1,3.2H27.3z M23.4,24.7h-5.6l-1.3,2.1h2.3v-1.5h3.8v1.5h2.3L23.4,24.7z M23.7,15.8
				h-6.3v1h6.3V15.8z M23.7,18.7h-6.3v1h6.3V18.7z M23.7,21.6h-6.3v1h6.3V21.6z"/>
			<path class="st1" d="M32.4,31.6v-8h-0.7l1.4-8.6h-1.2v-2.2h6v2.3h-1.6l-0.7,4.5h2.3v12H32.4z M35.5,21.8h-0.6v7.6h0.6V21.8z
				 M49.8,32.1h-6.5l-1.7-1.3l-0.1,1.3h-3.2l0.7-7h3l-0.3,3.4l0.8,0.6V24h-4.3v-2.1h11.9v3.5H47V24h-1.1v2h3.8v2.1h-3.8V30h4.7
				L49.8,32.1z M39.4,21h-1.2l0.3-4.6h1.1L39.4,21z M42.6,15.7v5.6H40v-5.6h-1.7v-2H40v-1.6h2.6v1.6H44v2H42.6z M43.1,21l-0.3-4.6h1
				l0.3,4.6H43.1z M48.7,15.7v5.6H46v-5.6h-1.6v-2H46v-1.5h2.7v1.5h1.6v2H48.7z M45.5,20.9h-1.1l0.2-4.6h1.1L45.5,20.9z M49.3,20.9
				L49,16.3h1.1l0.3,4.6H49.3z"/>
			<path class="st1" d="M56.7,19.9h0.7v12.3h-3.9V21h-1.1l2.5-9H59L56.7,19.9z M70.1,32.2h-6.3l-2.2-11.4L57.8,21v-2.3l3.4-0.2
				L60,12h4.1l1.2,6.3l5.4-0.3v2.3l-4.9,0.3l1.8,9.3h3.7L70.1,32.2z M66.4,17.2l-0.9-4.8h3.7l1,4.8H66.4z"/>
			<path class="st1" d="M73,15.9v-2.1h1.3L74,12.1h3.7l0.3,1.7h1v2.1H73z M82.4,32.1l-0.8-1.7l-0.2,1.2h-2.6v0.5h-5.3v-8.5h5.3v7.1
				l1-5h2.8L81.7,30h1v-4.9h-3.8V23h0.4v-9.5h1.4l0.4-1.3h3.6l-0.4,1.3h1.4v18.7h-3.3V32.1z M73.4,19.1V17h5.3v2.1H73.4z M73.4,22.3
				v-2.1h5.3v2.1H73.4z M76.4,25.7h-0.7v4.2h0.7V25.7z M82.7,15.6h-0.9v1.2h0.9V15.6z M82.7,18.7h-0.9v1.2h0.9V18.7z M82.7,21.8
				h-0.9v1.1h0.9V21.8z M90.9,17.6v14.5h-4L86,29.8h1.7V17.5H86v-2.3h1.8v-3.3h3.1v3.3h0.5v2.3L90.9,17.6L90.9,17.6z M86.4,28.7
				l-0.3-10.2h1.1l0.3,10.2H86.4z"/>
			<path class="st1" d="M97.1,24.7h-3.6l1.7-4h3.4L97.1,24.7z M104.7,28.5v3.6h-4.1v-3.6h-7.1v-2.2h7.1v-1.1h4.1v1.1h7.1v2.2H104.7z
				 M105.4,16l-2.4,2h3.3v1.8l-1.5,1.3h1.6l1,3.5h-2.3l-0.4-1.4l-0.6,1.4h-5.5v-2.1l2.9-2.5h-2.6v-2.3l2.1-1.8h-7.1v-2.1h6.8
				l-0.4-1.8h4.2l0.5,1.8h6.7v2.1h-6.3V16z M95.1,20l-1.3-3.5h3.5l1.3,3.5H95.1z M104.2,21.8l-1.1,1h1.4L104.2,21.8z M110.1,20h-3.5
				l1.4-3.5h3.4L110.1,20z M108.3,24.7l-1.5-4h3.4l1.5,4H108.3z"/>
			<path class="st1" d="M123.5,14.5v17.6h-4.1V14.5H114v-2.3h18.3v2.3H123.5z M128.4,28.9l-3.6-10.6h4.1l3.6,10.6H128.4z"/>
			<path class="st1" d="M148.6,22l-1.7-1.3l-1.5,1.3h-4.1v7.5h-3.5v2.6h-3V12.3h6.5v7.3l-1.3,1.2l1.3,0.9l3.1-2.7l-2.7-2h4.7
				l0.2,0.1l1.8-1.6h-2.5l-0.4,0.9h-3.7l1.9-4.3h3.7l-0.5,1.2h5.5V16l-3.3,2.9l4.3,3.1H148.6z M138.5,14.5h-0.7v5.3h0.7V14.5z
				 M138.5,22h-0.7v5.3h0.7V22z M149.7,29.8v2.3H146v-2.3h-4.2v-2.1l0.5-1.4h3.1l-0.4,1.3h1v-2h-4.2v-2.2h4.2v-1h3.7v1h2.6v2.2h-2.6
				v2h3v2.2H149.7z"/>
		</g>
	</g>
</g>
</svg>
