<?xml version="1.0" encoding="utf-8"?>
<!-- Generator: Adobe Illustrator 22.1.0, SVG Export Plug-In . SVG Version: 6.00 Build 0)  -->
<svg version="1.1" id="圖層_1" xmlns="http://www.w3.org/2000/svg" xmlns:xlink="http://www.w3.org/1999/xlink" x="0px" y="0px"
	 viewBox="0 0 142.6 42.9" style="enable-background:new 0 0 142.6 42.9;" xml:space="preserve">
<style type="text/css">
	.st0{fill:#F2F2F2;}
	.st1{fill:#333333;}
</style>
<g>
	<rect class="st0" width="142.6" height="42.9"/>
	<g>
		<g>
			<path class="st1" d="M19.3,32.1L18.2,30h6.9v-4h-4l-4.9,6.2h-5l5-6.2h-4.6v-2.2h0.7V13.5h4.5l0.7-1.4h4.4l-0.6,1.4h7.9v18.6H19.3
				z M25,15.7h-8.9V17H25V15.7z M25,19h-8.9v1.3H25V19z M25,22.4h-8.9v1.4H25V22.4z"/>
			<path class="st1" d="M39.7,22v10.1h-3.4L35.7,30h0.9v-1h-1.2v3.1h-3V22h-0.6v-3.6h0.6v-6.1h7.2v6.1h0.5V22H39.7z M37.1,14.4H35v4
				h0.5v-3.2h1.6V14.4z M37.1,20.5H35v0.9h2.1V20.5z M36.7,23.5h-1.2v0.7h1.2V23.5z M36.7,26.2h-1.2V27h1.2V26.2z M37.1,17.2h-0.5
				v1.2h0.5V17.2z M40.3,32.1v-2h1.4l-0.4-1.4h3.3l0.4,1.4h0.7l0.5-1.4h3.2l-0.5,1.4h1.4v2H40.3z M40.4,23.7v-2h9.8v2H40.4z
				 M40.6,21.2v-8.1h2V12h2.3v1.1h0.6V12h2.3v1.1H50v8.1H40.6z M40.8,28.2v-4h9v4H40.8z M43.2,15.2h-0.5v1h0.5V15.2z M43.2,18.2
				h-0.5v1h0.5V18.2z M46.5,25.9H44v0.7h2.5V25.9z M45.5,15.2h-0.6v1h0.6V15.2z M45.5,18.2h-0.6v1h0.6V18.2z M47.8,15.2h-0.5v1h0.5
				V15.2z M47.8,18.2h-0.5v1h0.5V18.2z"/>
			<path class="st1" d="M56.8,16.7H60v2.1l-1.9,2.3h2.1v4h-7.4v-2.6l3-3.5h-3v-2.4l3.3-4.5h4.1L56.8,16.7z M52.8,32.1v-6.3H55v6.3
				H52.8z M55.4,32.1v-6.3h2.1v6.3H55.4z M57.7,21.5L56.5,23h1.2V21.5z M58,32.1v-6.3h2.1v4.1h0.5V12.3H70v17.6h0.8v2.2H58z
				 M66.3,14.4h-2v3.7h2V14.4z M66.3,20.2h-2v3.7h2V20.2z M66.3,26.2h-2v3.7h2V26.2z"/>
			<path class="st1" d="M87.9,24.5l0.8,5.3h2.8l-0.9,2.4h-5.4l-0.3-2.4l-1.4,2.4h-3.4l1.3-2.1h-2.7l-0.9-2.2h1.4v-6.2h-1.6V29
				l-0.9,3.2h-3.8l0.9-3.5V14.6h9L82.4,12h3.8l0.4,2.6h0.9l-0.3-2.3h3.2l0.3,2.3h0.8v2.3h-4.7l0.5,3.1l1-1.8h3.3L87.9,24.5z
				 M83,16.9h-5.5v2.5h5.2v8.3l1.5-2.5L83,16.9z"/>
			<path class="st1" d="M108.4,32.1l-1.8-3.3l-1.4,3.3h-3.7l3-7.1l-2.4-4.4h3.7l0.3,0.6l1.4-3.4h-1.4l-0.8,2.2h-3.4v2.3h-4.6v7.1
				h4.5l-0.9,2.3h-7.3V20h4.6v-5.5h-4.7v-2.2h8.5v6.8l2.7-7.1h3.7l-1.3,3.4h4.7v2.3h-0.6l-3,7.1l3.9,7.2h-3.7V32.1z"/>
			<path class="st1" d="M125.7,32.1l-3.2-1.5l-2.8,1.5h-6.1l5.6-2.9l-3.6-1.7h6.9l2.5-1.4h-5l-1,0.9h-4.8l4.3-3.7h-0.4v-3.2h1.6v2.8
				h0.5v-3.6h5.6v4h-2.5l-1,0.9h9.5v2H131l-5.3,2.9l6.8,3.2h-6.8V32.1z M114.2,19.5v-2l1.6-1.6h-1.6V14l2-1.9h3.4l-2.2,2.2h2.3v1.4
				l-2.1,2.2h1V17h1.2v2.6h-5.6V19.5z M114.2,23.3v-3.2h1.5v3.2H114.2z M116.1,23.3v-3.2h1.5v3.2H116.1z M120,14.6v-1.7h1.4
				l-0.2-0.8h3.6l0.2,0.8h1.2v1.7H120z M120.2,16.7v-1.5h5.6v1.5H120.2z M120.2,18.7v-1.5h5.6v1.5H120.2z M123.6,20.8h-0.9v0.8h0.9
				V20.8z M129.9,14.3h2.1v1.5l-2.1,2.1h1.1V17h1.1v2.6h-5.7v-2l1.7-1.6h-1.7v-1.7l2.3-2.2h3.5L129.9,14.3z M126.3,23.3v-3.2h1.7
				v3.2H126.3z M128.5,23.3v-3.2h1.5v3.2H128.5z M130.5,23.3v-3.2h1.5v3.2H130.5z"/>
		</g>
	</g>
</g>
</svg>
