<?xml version="1.0" encoding="utf-8"?>
<!-- Generator: Adobe Illustrator 22.1.0, SVG Export Plug-In . SVG Version: 6.00 Build 0)  -->
<svg version="1.1" id="圖層_1" xmlns="http://www.w3.org/2000/svg" xmlns:xlink="http://www.w3.org/1999/xlink" x="0px" y="0px"
	 viewBox="0 0 142.6 42.9" style="enable-background:new 0 0 142.6 42.9;" xml:space="preserve">
<style type="text/css">
	.st0{fill:#F2F2F2;}
	.st1{fill:#333333;}
</style>
<g>
	<rect class="st0" width="142.6" height="42.9"/>
	<g>
		<g>
			<path class="st1" d="M28.8,22.6v9.6h-6.7l-1.3-2.1h4.1v-1h-8.6v3.1h-3.9v-9.6h-1v-4.4h0.9v-6h16.4v6h1v4.4H28.8z M25.8,20.3H15.3
				v1h10.5V20.3z M24.9,14.4h-8.7v3.8h2.4v-3.1h6.2v-0.7H24.9z M24.9,23.4h-8.6v1h8.6V23.4z M24.9,26.2h-8.6v1h8.6V26.2z M24.9,17.2
				h-2.5v1h2.5V17.2z"/>
			<path class="st1" d="M40.6,14.5h-4.5v0.9h5v2h-0.9v2.5h-3.3v-2.5h-0.8V18l-0.7,1.9h-3.8l0.8-2.4v-4.8h4.7l0.2-0.6h3.8L40.6,14.5z
				 M45.2,32.1l-2.4-1.7h-3.3l-2.2,1.7h-5.4l2.5-1.7H33v-10h16.1v10h-1.2l2.4,1.7H45.2z M45.2,22.5h-8.3v0.7h8.3V22.5z M45.2,25.1
				h-8.3v0.7h8.3V25.1z M45.2,27.7h-8.3v0.7h8.3V27.7z M49.6,14.5H45v0.9h5.1v2h-1v2.5h-3.3v-2.5H45V18l-0.8,1.8h-3.7l1-2.3v-4.9
				h4.8l0.2-0.6h3.8L49.6,14.5z"/>
			<path class="st1" d="M67.3,24.1l-1.8-4.2l-4.6,2.5v0.2h5.6l-0.8,2.2h-8v-0.6l-1,0.5h-5.1l3.4-2h-2.6l1.4-4.2h3.3l-1.3,3.8l2-1.1
				V17H61v2.5l1-0.6l-0.8-2.7h3.1l0.3,1.2l1-0.5h1.1v-1.3H56.5v2.2h-3.8v-4.3h6.8L59,12.2h4.1l0.5,1.3h6.9v4.4h-1.1l-3.2,1.8H69
				l1.8,4.5h-3.5V24.1z M53.2,32.1v-6.4h3.7V30h2.9v-4.6h3.8V30h2.9v-4.3h3.6v6.4H53.2z"/>
			<path class="st1" d="M77.6,15.7v1.6h1.3v-1h3.8v1h3.2v-1h3.7v1h1.6v2.1h-1.6v3.5H78.9v-3.5h-1.3v9.5l-0.8,3.2h-4l1-3.8V13.5h6.7
				L80,12.1h4.2l0.5,1.4h6.6v2.2L77.6,15.7L77.6,15.7z M86,32.1l-1.6-1.2l-1.6,1.2h-5.7l4.4-3.1L78,26.6h5.4l0.7,0.5l1.5-1.1h-7.5
				v-2.1h12.6v2.5L87,29l4.5,3.1H86z M85.9,19.4h-3.2v1.4h3.2V19.4z"/>
			<path class="st1" d="M103,14.5v17.6h-4.1V14.5h-5.4v-2.3h18.3v2.3H103z M107.9,28.9l-3.6-10.6h4.1l3.6,10.6H107.9z"/>
			<path class="st1" d="M128.1,22l-1.7-1.2l-1.5,1.2h-4.1v7.5h-3.5v2.6h-3V12.3h6.5v7.3l-1.4,1.2l1.3,0.9l3.1-2.7l-2.7-2h4.7
				l0.2,0.1l1.8-1.6h-2.5l-0.4,0.9h-3.7l1.9-4.3h3.7l-0.5,1.2h5.5V16l-3.3,2.9l4.3,3.1L128.1,22L128.1,22z M118,14.5h-0.7v5.3h0.7
				V14.5z M118,22h-0.7v5.3h0.7V22z M129.2,29.8v2.3h-3.7v-2.3h-4.2v-2.1l0.5-1.4h3.1l-0.4,1.3h1v-2h-4.2v-2.2h4.2v-1h3.7v1h2.6v2.2
				h-2.6v2h3v2.2H129.2z"/>
		</g>
	</g>
</g>
</svg>
