<?xml version="1.0" encoding="utf-8"?>
<!-- Generator: Adobe Illustrator 22.1.0, SVG Export Plug-In . SVG Version: 6.00 Build 0)  -->
<svg version="1.1" id="圖層_1" xmlns="http://www.w3.org/2000/svg" xmlns:xlink="http://www.w3.org/1999/xlink" x="0px" y="0px"
	 viewBox="0 0 203.4 42.9" style="enable-background:new 0 0 203.4 42.9;" xml:space="preserve">
<style type="text/css">
	.st0{fill:#F2F2F2;}
	.st1{fill:#333333;}
</style>
<g>
	<rect class="st0" width="203.4" height="42.9"/>
	<g>
		<g>
			<path class="st1" d="M12.8,26.1h-1.5l0.3-5.3h1.5L12.8,26.1z M11.8,18.3v-6h17.6v6H11.8z M13.4,32.1V18.9H17v13.2H13.4z
				 M16.5,14.5h-1.3v1.7h1.3V14.5z M18.7,32.1v-6.8h-0.9l0.2-0.9h-0.5l-0.4-3.6h1.2l0.2,1.6l1-3.6H23l-0.5,1.7h1.3l-0.3-1.7h3.4
				l0.5,1.7h2.3v2h-2.4v1.3h2v1.8h-2v1.3h2v1.8h-2v1.4h2.5v2H18.7z M21.2,14.5h-1.4v1.7h1.4V14.5z M23.9,22.6h-1.6v1.3h1.6V22.6z
				 M23.9,25.6h-1.6v1.3h1.6V25.6z M23.9,28.7h-1.6v1.4h1.6V28.7z M25.9,14.5h-1.4v1.7h1.4V14.5z"/>
			<path class="st1" d="M35.6,32.1h-3.7l1-5.8h3.6L35.6,32.1z M43,24.9v0.8h2.1l0.6,3.6H42L41.4,26h-0.6v4h5.7l-0.7,2.1H37v-6.4h2.3
				v-0.8h-6.4v-5.3h6.5v-0.9h-6v-5.3h6v-1.3h3.8v1.3h6.1v5.3h-6.1v0.9h6.6v5.3C49.8,24.9,43,24.9,43,24.9z M39.2,21.5h-2.7v1.3h2.7
				V21.5z M39.2,15.4h-2.3v1.2h2.3V15.4z M45.3,15.4H43v1.2h2.3V15.4z M45.7,21.5H43v1.3h2.7V21.5z M46.9,32.1L46,26.2h3.6l0.9,5.9
				H46.9z"/>
			<path class="st1" d="M53.6,22.8h-1.2l0.2-6.9h1.1L53.6,22.8z M54.2,32.1V12h3.2v20.1H54.2z M58.4,24.6v-3.2h-0.6l-0.1-5.5h1
				l0.1,3.7h11.7v5.1H58.4V24.6z M66,32.1l-1.4-0.9l-1.4,0.9h-5.4l4-2.5l-3-1.8H64l0.2,0.2l1-0.7h-6.8v-2H70v2.3l-3.1,2l4.1,2.5H66z
				 M59.2,18.8v-6.5h10.5v6.5H59.2z M61.7,21.5v1.2h0.7v-1.2H61.7z M66.4,14.2h-3.8v0.7h3.8V14.2z M66.4,16.3h-3.8V17h3.8V16.3z
				 M64.9,21.5h-0.7v1.2h0.7V21.5z M67.4,21.5h-0.7v1.2h0.7V21.5z"/>
			<path class="st1" d="M74.3,22.8h-1.4l0.3-6.9h1.4L74.3,22.8z M74.9,32.1v-20h3.4v20H74.9z M79.3,32.1v-2.2h4.4v-5h-3.9v-2.2h3.9
				v-4.5h-1.3L82,21.7h-2.6l0.2-2.1h-0.8l-0.2-3.7h1l0.1,2.3l0.5-4.6h2.7l-0.2,2.3h1v-3.8h3.7v3.8h3.7v2.3h-3.7v4.5h3.3v2.2h-3.3v5
				h3.9v2.2H79.3z"/>
			<path class="st1" d="M93.9,20.2l-0.4-6.3h1.8l0.3,6.3H93.9z M95.5,27.9h-1.8l0.2-6.8h1.8L95.5,27.9z M99.4,16v13.4l-1,2.7h-3.8
				l1.5-3.8V13.8h6l-0.6-1.8h4.2l0.5,1.8h5.4V16H99.4z M107.5,19.3v1.8h3.9V32h-4.2l-1-2.1h2.1v-1h-1.9l-0.6-1.5l-0.5,1.5h-2.1V32
				h-3.1V21.1h4v-1.8h-4.3v-2.1h11.8v2.1C111.6,19.3,107.5,19.3,107.5,19.3z M104.2,23.3h-1v4.1l1-2.8V23.3z M108.3,23.3h-1v1.4
				l1,2.8V23.3z"/>
			<path class="st1" d="M119.1,17.3v14.9h-3.3V17.3h-1.7v-2.2h1.7v-3h3.3v3h1.5v2.2H119.1z M115.3,30.9h-1.2l0.2-12.6h1.2
				L115.3,30.9z M125.2,12.1v10.5h-0.8v-0.9h-3v0.9h-0.5v2.1h0.5v4.2l-0.5,1.6l-0.3-12.1h-1.2l0.3,12.6h1l-0.5,1.3h3.2l1-2.7v-2.8
				l0.6,2.4h1.4l-0.8-3.2h-1.2v-1.2h1l1.6,4l-3,3.5h2.9l1-1.2l0.5,1.2h3.5l0.7-2.2h-1.8l-0.7-1.7l2.4-2.9h-2.7l-0.6,0.6l-0.5-1.3
				h3.7v-2.1h-0.7l-0.2-1h-2.6l0.2,1h-0.8V12.1H125.2z M123.3,19.1h0.8v-1h0.7V21H121v-1.6l1.2-2.3h-1.3v-1.8l1.6-2.9h2.2l-1.3,2.6
				h1.4v1.3L123.3,19.1z M130.8,19.1h0.7v-1h0.7V21h-3.6v-1.7l1.2-2.2h-1.2v-1.8l1.4-2.9h2.2l-1.3,2.7h1.3v1.3L130.8,19.1z"/>
			<path class="st1" d="M138.1,24.7h-3.6l1.7-4h3.4L138.1,24.7z M145.7,28.5v3.6h-4.1v-3.6h-7.1v-2.2h7.1v-1.1h4.1v1.1h7.1v2.2
				C152.8,28.5,145.7,28.5,145.7,28.5z M146.4,16l-2.4,2h3.3v1.8l-1.5,1.3h1.6l1,3.5h-2.3l-0.4-1.4l-0.6,1.4h-5.5v-2.1l2.9-2.5h-2.6
				v-2.3l2.1-1.8h-7.1v-2.1h6.8l-0.4-1.8h4.2l0.5,1.8h6.7V16H146.4z M136.2,20l-1.3-3.5h3.5l1.3,3.5H136.2z M145.2,21.7l-1.1,1h1.4
				L145.2,21.7z M151.1,20h-3.5l1.4-3.5h3.4L151.1,20z M149.3,24.7l-1.5-4h3.4l1.5,4H149.3z"/>
			<path class="st1" d="M155.1,32v-2.2l1.1-0.3V18.6h-1v-2.2h1V12h3.6v4.4h0.8v2.2h-0.8v9.8l1.3-0.4v2.2L155.1,32z M161.1,22.9v-8.8
				h1.5l-0.9-2.1h3.8l0.9,2.1h1.3l1-2.1h3.9l-1,2.1h1.6v8.8C173.2,22.9,161.1,22.9,161.1,22.9z M161.6,32.1v-8.4h11.1v8.4H161.6z
				 M165.9,16.3h-1.5v0.8h0.9l0.6,2.4V16.3z M165.9,20.1h-1l-0.5-2v2.6h1.5V20.1z M169.2,25.8H165v1.1h4.2V25.8z M169.2,28.9H165V30
				h4.2V28.9z M169.8,16.3h-1.5v3.3l0.7-2.4h0.9v-0.9H169.8z M169.8,18.4l-0.5,1.7h-1.1v0.6h1.5v-2.3H169.8z"/>
			<path class="st1" d="M175.8,15.6v-2.1h6.8l-0.4-1.3h4.2l0.5,1.3h6.7v2.1H175.8z M188.6,32.1l-0.6-1.2h-7.2v-5.5h7.8V30h0.9v-5.4
				h-9.6V32h-3.7v-9.4h16.9V32h-4.5V32.1z M177.4,21.8v-5.3H192v5.3H177.4z M188.3,18.5h-7.1v1.3h7.1V18.5z M185.5,27.4h-1.4V29h1.4
				V27.4z"/>
		</g>
	</g>
</g>
</svg>
