<?xml version="1.0" encoding="utf-8"?>
<!-- Generator: Adobe Illustrator 22.1.0, SVG Export Plug-In . SVG Version: 6.00 Build 0)  -->
<svg version="1.1" id="圖層_1" xmlns="http://www.w3.org/2000/svg" xmlns:xlink="http://www.w3.org/1999/xlink" x="0px" y="0px"
	 viewBox="0 0 142.6 42.9" style="enable-background:new 0 0 142.6 42.9;" xml:space="preserve">
<style type="text/css">
	.st0{fill:#F2F2F2;}
	.st1{fill:#333333;}
</style>
<g>
	<rect class="st0" width="142.6" height="42.9"/>
	<g>
		<g>
			<path class="st1" d="M11.5,16v-2.2H13L12.7,12h3.9l0.3,1.8h1.6V16H11.5z M11.9,32.1v-8.6h6.3v8.6H11.9z M12,19.3v-2.1h6.2v2.1H12
				z M12,22.5v-2.1h6.2v2.1H12z M15.4,25.6h-0.6v4.3h0.6V25.6z M25.2,22.6l-0.8-2H26v-6.2h-0.9v5.1l-2.6,3.2h-4.3l3.4-4.3v-4h-2.8
				v-2.1h10.8v10.3H25.2z M20.7,19.4h-2.1l0.6-4.2h2.1L20.7,19.4z M20.3,31.6h-1.7l0.3-7.1h1.8L20.3,31.6z M26.6,32.1h-5.5v-8.5h3.3
				v6.5h3.1L26.6,32.1z M25.1,28.7L24.6,23h2l0.4,5.7H25.1z M27.8,31.6l-0.6-7.1h2.2l0.6,7.1H27.8z"/>
			<path class="st1" d="M38.3,32.1l-1.2-3.9l-1.4,3.9h-3.9l3-8.8h-2.9v-2.2h3.2v-5h-0.4L34,19.4h-2.4l1.5-7.3h2.6l-0.4,1.8h5.5v2.2
				h-2v5h2.4v2.2h-2.4l-0.5,1.5h1.3l2.1,6.8v-19h8.4v19.5H38.3z M46.6,14.8h-1.5v15.1h1.5V14.8z"/>
			<path class="st1" d="M52.6,31.9v-2.3l1.6-0.4V15.6h-1.4v-2.3h6.6v2.3H58V28l1.7-0.5v2.4L52.6,31.9z M65.4,32.2l-0.9-2.3h2.3V17.7
				h-1.7v10.1l-2.3,4.4h-4.2l2.7-5.3v-9.2h-1.6v-2.3h1.6V12h3.8v3.4h5.5v16.8H65.4z"/>
			<path class="st1" d="M79.6,18.9l-0.2-1.3l-0.5,1.3h-5.5v-2.2l2.2-4.6h3.7l-2.1,4.6h2.1l-0.5-2.8h3.4l1,5H79.6z M78.3,32.1
				l-0.7-2.2h1.3v-1.5h-1.6V32h-3.7V19.7h8.8V32L78.3,32.1L78.3,32.1z M78.8,22h-1.6v1.1h1.6V22z M78.8,25.2h-1.6v1.1h1.6V25.2z
				 M90.8,21.4h-7.6v-9.3h3.7v2.5h0.8l0.4-1.1h3.3l-0.8,3.3h-3.7v2.6h4.6L90.8,21.4z M90.8,32.1h-7.5v-9.9H87v2.6h0.8l0.3-1.1h3.4
				l-0.7,3.2H87V30h4.6L90.8,32.1z"/>
			<path class="st1" d="M110.7,21.9v3.2h-8.8l-2.2,2.3v2.5h4.1l-1,2.1h-7v-3.1h-2.4l3.7-3.9h-2.4v-3.2h-1.1v-2h1.1v-3.1h16v3.1h1v2
				L110.7,21.9L110.7,21.9z M93.8,15.8v-2.1h7l-0.4-1.6h4.1l0.4,1.6h6.8v2.1H93.8z M106.9,18.9h-8.3v1h8.3V18.9z M106.9,21.9h-8.3v1
				h8.3V21.9z M107.3,32l-5.7-6.3h4.6l1.1,1.2l0.5-1.2h3.9l-1.4,3.3h-1.1l2.7,3H107.3z"/>
			<path class="st1" d="M131.6,32h-11l-1.6-1.3l-0.6,1.3h-4.1l1.9-3.8v-3.1h-1.7v-2.3l1.8-3.5h-1.9v-2.2h5.5v2.6l-1.5,3.2h1.5v5.8
				l1.4,1.1h11.3L131.6,32z M116,16.4l-1.7-4.2h3.9l1.8,4.2H116z M124.3,22v5.1h2.3l-1,2.1h-4.9V12.3h11.1V22L124.3,22L124.3,22z
				 M128.1,14.5h-3.8v1.7h3.8V14.5z M128.1,18.1h-3.8v1.7h3.8V18.1z M131.4,25.8h-1l1.8,3.4h-4l-3.7-6.6h4.1l0.5,1l0.3-1h3
				L131.4,25.8z"/>
		</g>
	</g>
</g>
</svg>
