<?xml version="1.0" encoding="utf-8"?>
<!-- Generator: Adobe Illustrator 22.1.0, SVG Export Plug-In . SVG Version: 6.00 Build 0)  -->
<svg version="1.1" id="圖層_1" xmlns="http://www.w3.org/2000/svg" xmlns:xlink="http://www.w3.org/1999/xlink" x="0px" y="0px"
	 viewBox="0 0 102.9 42.9" style="enable-background:new 0 0 102.9 42.9;" xml:space="preserve">
<style type="text/css">
	.st0{fill:#F2F2F2;}
	.st1{fill:#333333;}
</style>
<g>
	<rect class="st0" width="102.9" height="42.9"/>
	<g>
		<g>
			<path class="st1" d="M22.9,32.1l-2.3-0.9l-2.3,0.9h-7.1l5.7-2.3l-1.3-0.5h-3.9l3.2-3.7h-3.2l0.8-2.2h3.6l-0.7,1.8h1v-2.5h3.5V24
				h5.2l-0.7,1.6h-4.9l-0.6,0.7h9.8v1.6l-4.4,1.8l6.1,2.4C30.4,32.1,22.9,32.1,22.9,32.1z M25.9,23v-1h-2.5l0.6,1.2h-3.4L20,22h-4.7
				v1h-3.7v-2.7h1v-5.5h5.7l0.2-0.7h-7v-1.9h17.8v1.9h-6.8l-0.2,0.7h5.8v5.5h1.1V23H25.9z M24.7,16.3h-8.3v0.6h8.3V16.3z M24.7,18
				h-8.3v0.6h8.3V18z M24.7,19.7h-8.3v0.6h8.3V19.7z M17.3,27.9l-0.5,0.6H20l1.5-0.6H17.3z M26,25.6l-1.1-2.2h3.7l1.2,2.2H26z"/>
			<path class="st1" d="M33.1,18.6h-1.3l0.3-3.3h1.2L33.1,18.6z M42.3,16.2v1.4H43v-1h1v2.3h-5.7v-2.3h1v1h0.6v-1.4h-1.7v-1.4h1.7
				v-0.9h-0.2l-0.2,0.5h-1.6v0.4h-1.4v4.3h-2.9v-4.3H32v-1.7h1.6V12h2.9v1.1h1.4v0.6l0.8-1.7h1.9l-0.3,0.6h3.6v1.3h-1.6v0.9h1.8v1.4
				C44.1,16.2,42.3,16.2,42.3,16.2z M46.6,32.1H42l3.6-3.6H42v1.2h-5.9v0.8h6.4l-0.9,1.6h-8.9v-4.6h3.4v0.8h5.6l3.3-3h-2.6v1.9h-9.7
				v-4.5h2.8v0.5H36l0.5,0.7l0.3-0.3l-1.1-1.2h-3.4v-2.7h17.9v3.2h-1.4l-2.1,2h3.6L47,28.2h3.7L46.6,32.1z M35.9,24.1l-0.4-0.5v1.2
				l0.7-0.7H35.9z M36.8,25.2h-1.3v0.4h1.6L36.8,25.2z M37.5,22l-0.6-0.6h-1.1v0.4h1.1l0.7,0.8l0.6-0.6C38.2,22,37.5,22,37.5,22z
				 M36.9,18.6l-0.3-3.3h1.2l0.3,3.3H36.9z M39.7,25.2h-1.4l-0.8-0.8l-0.4,0.5h0.4l0.6,0.7h1.5v-0.4H39.7z M46.4,21.4H38l0.3,0.4H40
				l-0.3,0.3h2.6v2.5l2.8-2.9h1.2v-0.3H46.4z M39.7,24.4l-1-1.1l-0.2,0.3l1.3,1.3L39.7,24.4L39.7,24.4z M39.7,22.2L39,22.9h0.4
				l0.3,0.3V22.2z M45.3,18.6h-1.2l0.3-3.3h1.1L45.3,18.6z M48.6,14.8v4.3h-2.8v-4.3h-1.5v-1.7h1.5V12h2.8v1.1h1.6v1.7H48.6z
				 M49.2,18.6l-0.3-3.3h1.2l0.4,3.3H49.2z"/>
			<path class="st1" d="M67.9,14.4l-0.4,1.5h2.8v12h-8.5v-10l-0.7,2.2h-0.9v7.7h1.5l-0.6,2.1h-3.9v-16L56,20.3h0.5v11.8h-3.4V21.5
				h-0.8l1.7-9.4h3.6l-0.2,1.3h2.9v4.8h0.2l0.5-1.5h0.9V16h1.9l0.4-1.5h-2.6v-2.1h9.3v2.1h-3V14.4z M64.5,32.2h-3.6l1.5-3.7h3.7
				L64.5,32.2z M67,18.1h-1.9v1.2H67V18.1z M67,21.4h-1.9v1.2H67V21.4z M67,24.6h-1.9v1.2H67V24.6z M67.5,32.2l-1.1-3.7h3.4l1.1,3.7
				H67.5z"/>
			<path class="st1" d="M85.1,32.2L83.9,30h3.5V16.9H77.2v15.3h-3.7V14.6H79l0.8-2.5h4.3l-0.9,2.5H91v17.6H85.1z M78.1,28.9V18.4
				h8.4v10.5H78.1z M83.2,20.6h-1.7v6h1.7V20.6z"/>
		</g>
	</g>
</g>
</svg>
