<?xml version="1.0" encoding="utf-8"?>
<!-- Generator: Adobe Illustrator 22.1.0, SVG Export Plug-In . SVG Version: 6.00 Build 0)  -->
<svg version="1.1" id="圖層_1" xmlns="http://www.w3.org/2000/svg" xmlns:xlink="http://www.w3.org/1999/xlink" x="0px" y="0px"
	 viewBox="0 0 142.6 42.9" style="enable-background:new 0 0 142.6 42.9;" xml:space="preserve">
<style type="text/css">
	.st0{fill:#F2F2F2;}
	.st1{fill:#333333;}
</style>
<g>
	<rect class="st0" width="142.6" height="42.9"/>
	<g>
		<g>
			<path class="st1" d="M11.5,32.2v-2.3h7.1v-5.2h-6.3v-2.3h6.2V18h-2.8L15,21.2h-3.9l1.7-8.2h4l-0.6,2.6h2.3V12h4.1v3.6h6.6v2.3
				h-6.6v4.4h6.1v2.3h-6.1v5.2h7.1v2.3L11.5,32.2L11.5,32.2z"/>
			<path class="st1" d="M33.8,17.4L32,12.2h3.9l1.8,5.2H33.8z M35.8,32.2H32l1.6-8.2h3.7L35.8,32.2z M33.7,23.1L32,18.2h3.9l1.6,4.9
				H33.7z M49.3,15.3h-3.7v2.6h4.7v2.2h-4.6v2.7h3.9v9.5H37.9v-9.5h3.9v-2.7h-4.7v-2.2h4.7v-2.6h-4v-2.1h8.1l0.5-1.1h4L49.3,15.3z
				 M45.8,24.9h-4.1V30h4.1V24.9z"/>
			<path class="st1" d="M52.9,32.1v-9.6h8.3v9.6H52.9z M54.6,21.1v-8.7h14.5v8.7H54.6z M57.7,24.7h-1.2V30h1.2V24.7z M65.3,14.5
				h-6.9v4.4h6.9V14.5z M62.1,32.1v-9.6h8.3v9.6H62.1z M66.9,24.6h-1.2v5.3h1.2V24.6z"/>
			<path class="st1" d="M81.7,14.5h-4.5v0.9h5v2h-0.9v2.5H78v-2.5h-0.8V18l-0.7,1.9h-3.8l0.8-2.4v-4.8h4.7l0.2-0.6h3.8L81.7,14.5z
				 M86.3,32.1l-2.4-1.7h-3.3l-2.2,1.7H73l2.5-1.7h-1.4v-10h16.1v10H89l2.4,1.7H86.3z M86.3,22.5H78v0.7h8.3V22.5z M86.3,25.1H78
				v0.7h8.3V25.1z M86.3,27.7H78v0.7h8.3V27.7z M90.7,14.5h-4.6v0.9h5.1v2h-1v2.5h-3.3v-2.5h-0.8V18l-0.8,1.8h-3.7l1-2.3v-4.9h4.8
				l0.2-0.6h3.8L90.7,14.5z"/>
			<path class="st1" d="M107.6,22.1l-1.7-1.3l-1.5,1.3h-4.1v7.5h-3.5v2.6h-3V12.4h6.5v7.3l-1.4,1.2l1.3,0.9l3.1-2.7l-2.7-2h4.7
				l0.2,0.1l1.8-1.6h-2.5l-0.4,0.9h-3.7l1.9-4.3h3.7l-0.5,1.2h5.5v2.7L108,19l4.3,3.1L107.6,22.1L107.6,22.1z M97.5,14.5h-0.7v5.3
				h0.7V14.5z M97.5,22.1h-0.7v5.3h0.7V22.1z M108.7,29.8v2.3H105v-2.3h-4.2v-2.1l0.5-1.4h3.1l-0.4,1.3h1v-2h-4.2v-2.2h4.2v-1h3.7v1
				h2.6v2.2h-2.6v2h3v2.2H108.7z"/>
			<path class="st1" d="M131.7,32.1h-4l-1-9.7h-3.1v7.5h1l-0.4-4.1h2.2l0.6,6.3h-2.2l-0.2-1.8l-0.7,1.8h-4V13.5L118,20h0.7v12.1H115
				v-11h-1.2l2.6-8.9h3.8l-0.3,1h7.8l0.3-1h4.3l-0.9,3.3h-1.7l0.5,4.8h2.2v2.3h-1.9l0.8,7.5h1.4L131.7,32.1z M126,15.4h-2.4v4.8h2.8
				L126,15.4z"/>
		</g>
	</g>
</g>
</svg>
