<?xml version="1.0" encoding="utf-8"?>
<!-- Generator: Adobe Illustrator 22.1.0, SVG Export Plug-In . SVG Version: 6.00 Build 0)  -->
<svg version="1.1" id="圖層_1" xmlns="http://www.w3.org/2000/svg" xmlns:xlink="http://www.w3.org/1999/xlink" x="0px" y="0px"
	 viewBox="0 0 142.6 42.9" style="enable-background:new 0 0 142.6 42.9;" xml:space="preserve">
<style type="text/css">
	.st0{fill:#F2F2F2;}
	.st1{fill:#333333;}
</style>
<g>
	<rect class="st0" width="142.6" height="42.9"/>
	<g>
		<g>
			<g>
				<path class="st1" d="M15.6,21.9h0.9v10.2h-3.9v-9.2H11l2.8-5.4h-2.6l2.8-5.4h4l-2.4,4.7h2.7L15.6,21.9z M27.2,21.2v10.9h-7.5
					l-1.2-2.3h4.8v-8.7h-5.7v-2.3h12.2v2.3h-2.6V21.2z M18.4,14.7v-2.3h10.8v2.3H18.4z"/>
				<path class="st1" d="M45.6,32.1l-0.2-0.4h-0.9l-0.4-6h1.5l0.2,4.3h0.5v-5.2h-9.2l-1.6,7.3h-3.7l3.4-15.4h-3v-2.1h0.7l-0.5-2.1
					h2.7l0.5,2.1H36l0.6-2.5h3.7l-0.6,2.5h8.6v2.3l-0.5,1.8h1.4V21l-0.4,1.8h1.4v9.4h-4.6V32.1z M38.9,31.7h-2l0.5-6h1.9L38.9,31.7z
					 M38.2,20.8l-0.4,1.9h7l0.5-1.9H38.2z M39.1,16.8l-0.4,1.9h5.2l0.5-1.9H39.1z M39.9,31.7l-0.3-6h1.7l0.4,6H39.9z M42.2,31.7
					l-0.3-6h1.8l0.4,6H42.2z"/>
				<path class="st1" d="M67.2,32l-0.9-1.8L65.7,32h-3.3l0.2-0.5l-10,0.6v-2l3.6-0.2v-1.1h-3v-1.9h3.1V26h-3.4v-7.5h3.4v-0.8h-3.7
					v-2h3.7v-0.8h-3.4v-2h6.2l0.4-0.9h3.7l-1,2.9h-2.6v0.8h3.5v2h-3.5v0.8h3.3V26h-3.3v0.9h3.1v1.9h-3.1v0.8l3.2-0.2v1.5l1.1-3.5
					v-9.9h-0.6v-2.2h0.6V12h3v3.3h3.7v16.6L67.2,32L67.2,32z M56.3,20.5h-0.9v1h0.9V20.5z M56.3,23.3h-0.9v1h0.9V23.3z M60.5,20.5
					h-0.9v1h0.9V20.5z M60.5,23.3h-0.9v1h0.9V23.3z M67.6,17.6h-0.7v11l-0.4,1.3h1.1L67.6,17.6L67.6,17.6z"/>
				<path class="st1" d="M78.1,17.3v14.9h-3.3V17.3h-1.7v-2.2h1.7v-3h3.3v3h1.5v2.2H78.1z M74.3,30.9h-1.2l0.2-12.6h1.2L74.3,30.9z
					 M84.2,12.1v10.5h-0.8v-0.9h-3v0.9h-0.5v2.1h0.5v4.2l-0.5,1.6l-0.3-12.1h-1.2L78.7,31h1l-0.5,1.3h3.2l1-2.7v-2.8l0.6,2.4h1.4
					L84.6,26h-1.2v-1.2h1l1.6,4l-3,3.5h2.9l1-1.2l0.5,1.2h3.5l0.7-2.2h-1.8l-0.6-1.8l2.4-2.9h-2.7L88.3,26l-0.5-1.3h3.7v-2.1h-0.7
					l-0.2-1H88l0.2,1h-0.8V12.1H84.2z M82.3,19.1h0.8v-1h0.7V21H80v-1.6l1.2-2.3h-1.3v-1.8l1.6-2.9h2.2l-1.4,2.7h1.4v1.3L82.3,19.1z
					 M89.8,19.1h0.7v-1h0.7V21h-3.6v-1.7l1.2-2.2h-1.2v-1.8l1.4-2.9h2.2l-1.3,2.7h1.3v1.3L89.8,19.1z"/>
				<path class="st1" d="M94.5,17.1l-1.2-4.9h3.6l1.2,4.9H94.5z M94.6,22.8l-1.2-5H97l1.3,5H94.6z M97.2,32.1h-3.6l0.8-8.6H98
					L97.2,32.1z M111.4,32.1h-4.1l-0.2-1.8l-0.8,1.7H104l0.6-1.4h-2.4v-9.4h3.6v6.6l0.9-2.1l-0.5-5.7h-4.5v9.4l-0.8,2.7h-3.3l1-3.3
					V14.5h7.1l-0.2-2.3h3.2l0.2,2.3h0.6l-0.2-1.9h1.9l0.3,1.9h0.4v2.1h-2.7l0.3,3.1l0.5-1.1h2.4l-2.4,5.6l0.6,5.8h1.8L111.4,32.1z
					 M105.7,16.6h-4.1V18h4.2L105.7,16.6z M104.4,23.4h-0.6v5.1h0.6V23.4z"/>
				<path class="st1" d="M117.7,26.4h-3.9l2.8-12.3h3.8L117.7,26.4z M125.2,32.2h-10.1l-1.1-2.3h8.2l2.7-3h-5l-1-2.3h2.3V12.1h4.1
					v14.4l2-2.2h5L125.2,32.2z M128.6,23.5l-2.8-9.4h4l2.8,9.4H128.6z"/>
			</g>
		</g>
	</g>
</g>
</svg>
