<?xml version="1.0" encoding="utf-8"?>
<!-- Generator: Adobe Illustrator 22.1.0, SVG Export Plug-In . SVG Version: 6.00 Build 0)  -->
<svg version="1.1" id="圖層_1" xmlns="http://www.w3.org/2000/svg" xmlns:xlink="http://www.w3.org/1999/xlink" x="0px" y="0px"
	 viewBox="0 0 121.6 42.9" style="enable-background:new 0 0 121.6 42.9;" xml:space="preserve">
<style type="text/css">
	.st0{fill:#F2F2F2;}
	.st1{fill:#333333;}
</style>
<g>
	<rect class="st0" width="121.6" height="42.9"/>
	<g>
		<g>
			<path class="st1" d="M12,32.1V14.5h5.6l0.8-2.5h4.3L22,14.5h7.2v17.6H12z M25.3,16.7h-9.2v2.8h9.2V16.7z M25.3,21.7h-9.2v2.9h9.2
				V21.7z M25.3,26.8h-9.2v3.1h9.2V26.8z"/>
			<path class="st1" d="M47.9,28.3v3.8h-5.6l-0.8-1.9h2.6v-1.8H32.2v-1.9h11.9v-0.9H32.9v-9.2h4.2v-0.9h-5v-2h3.1l-0.7-1.4H39
				l0.7,1.4h2.7l0.8-1.4h4.4l-0.8,1.4H50v2h-4.9v0.9h4.1v9.2h-1.3v0.8h2.2v1.9C50.1,28.3,47.9,28.3,47.9,28.3z M36.4,31.6l-2.5-2.7
				h4.8l2.4,2.7H36.4z M45.6,21.1h-4v-2.8h-0.9v1.5l-0.8,1.4h-3.3v0.4h9V21.1z M37.5,18.3h-0.9v2.6l0.9-1.7V18.3z M45.6,23.1h-9v0.7
				h9V23.1z M41.6,15.5h-0.9v0.9h0.9V15.5z M45.6,18.3h-0.9v1.1h0.9V18.3z"/>
			<path class="st1" d="M56.1,29.6h-3.7L53.9,19h3.7L56.1,29.6z M67.3,32.1H58V15.4h3.7v14.4h6.8L67.3,32.1z M62.8,18.1l-1.8-6h4
				l1.7,6H62.8z M67,29l-2.1-10h4L71,29H67z"/>
			<path class="st1" d="M82.5,14.6v17.6h-4.1V14.6H73v-2.3h18.3v2.3H82.5z M87.4,28.9l-3.6-10.6h4.1l3.6,10.6H87.4z"/>
			<path class="st1" d="M107.6,22.1l-1.7-1.3l-1.5,1.3h-4.1v7.5h-3.5v2.6h-3V12.3h6.5v7.3l-1.4,1.2l1.3,0.9l3.1-2.7l-2.7-2h4.7
				l0.2,0.1l1.8-1.6h-2.5l-0.4,0.9h-3.7l1.9-4.3h3.7l-0.5,1.2h5.5V16l-3.3,2.9l4.3,3.1L107.6,22.1L107.6,22.1z M97.5,14.5h-0.7v5.3
				h0.7V14.5z M97.5,22.1h-0.7v5.3h0.7V22.1z M108.7,29.8v2.3H105v-2.3h-4.2v-2.1l0.5-1.4h3.1l-0.4,1.3h1v-2h-4.2v-2.2h4.2v-1h3.7v1
				h2.6v2.2h-2.6v2h3v2.2H108.7z"/>
		</g>
	</g>
</g>
</svg>
