<?xml version="1.0" encoding="utf-8"?>
<!-- Generator: Adobe Illustrator 22.1.0, SVG Export Plug-In . SVG Version: 6.00 Build 0)  -->
<svg version="1.1" id="圖層_1" xmlns="http://www.w3.org/2000/svg" xmlns:xlink="http://www.w3.org/1999/xlink" x="0px" y="0px"
	 viewBox="0 0 675.8 433.3" style="enable-background:new 0 0 675.8 433.3;" xml:space="preserve">
<style type="text/css">
	.st0{fill:#333333;}
	.st1{clip-path:url(#SVGID_3_);}
	.st2{clip-path:url(#SVGID_4_);fill:url(#XMLID_4_);}
	.st3{opacity:0.2;fill:url(#XMLID_5_);enable-background:new    ;}
	.st4{clip-path:url(#SVGID_7_);}
	.st5{clip-path:url(#SVGID_8_);fill:url(#XMLID_6_);}
	.st6{opacity:0.2;fill:url(#XMLID_7_);enable-background:new    ;}
	.st7{fill:#F3F3F3;}
	.st8{fill:#762C29;}
	.st9{fill:#F4E5D3;}
	.st10{fill:#927C6B;}
	.st11{fill:#ECDBCE;}
	.st12{fill:#303030;}
	.st13{fill:#A08675;}
	.st14{fill:#666666;}
	.st15{fill:#90A9B3;}
	.st16{fill:#66627F;}
	.st17{fill:#EFEFEF;}
	.st18{fill:#3B3B3B;}
	.st19{fill:#FFFFFF;}
	.st20{fill:#5C625E;}
	.st21{fill:#E9EEEA;}
	.st22{fill:#EE9248;}
	.st23{fill:#828282;}
	.st24{fill:#C99F32;}
	.st25{fill:#EEEAE8;}
	.st26{fill:#EBEBEB;}
</style>
<g>
	<path class="st0" d="M261.8,410.5l-1.3,6.4H278l-3.5,16.4h-25.8l-0.8-4.8h18.6l1.4-6.7h-17.8l3.4-16.2h26.9l-1,4.9L261.8,410.5
		L261.8,410.5z"/>
	<path class="st0" d="M304.4,433.3h-25.9l5.9-27.7h26.7l-3.6,17.1h-14.9l-1.7-4.2l-2.1,9.9h18.6L304.4,433.3z M300.9,410.6h-8.4
		l-1.5,7.1h8.4L300.9,410.6z"/>
	<path class="st0" d="M327.3,433.3l4.8-22.7h-8.8l-4.8,22.7h-9.1l5.8-27.6h9.1l-0.9,4.1l3.5-4.1h15.3l-5.8,27.6H327.3z"/>
	<path class="st0" d="M342,433.3l5.9-27.7h9.1l-5.9,27.7H342z M348.5,402.4l1.8-8.6h9.1l-1.8,8.6H348.5z"/>
	<path class="st0" d="M356.6,433.3l5.9-27.7h26.9l-5.9,27.7H356.6z M379.3,410.5h-8.7l-3.8,17.9h8.7L379.3,410.5z"/>
	<path class="st0" d="M401.7,410.6l-4.8,22.7h-9.4l5.9-27.7h9.4l-0.9,4.1l3.7-4.1h9.1l-1.1,5H401.7z"/>
</g>
<g>
	<g>
		<g>
			<defs>
				<polygon id="SVGID_1_" points="1,1 2,1 1,2 				"/>
			</defs>
			<defs>
				<polygon id="SVGID_2_" points="-1,-1 -2,-1 -1,-2 				"/>
			</defs>
			<clipPath id="SVGID_3_">
				<use xlink:href="#SVGID_1_"  style="overflow:visible;"/>
			</clipPath>
			<clipPath id="SVGID_4_" class="st1">
				<use xlink:href="#SVGID_2_"  style="overflow:visible;"/>
			</clipPath>
			
				<linearGradient id="XMLID_4_" gradientUnits="userSpaceOnUse" x1="-516.6722" y1="-1036.9438" x2="-463.0837" y2="-1036.9438" gradientTransform="matrix(1.9191 5.210000e-02 -2.720000e-02 0.9996 1322.0967 1440.6191)">
				<stop  offset="0" style="stop-color:#FFFFFF"/>
				<stop  offset="1" style="stop-color:#000000"/>
			</linearGradient>
			<path id="XMLID_12_" class="st2" d="M459.7,378.6c2,0.7,2.6,1.6,0.9,2.8c-1.4,0.9-5.3,0.4-7.1,0.5c-8.5,0.2-16.9,0.4-25.4,0.4
				c-17.1,0-34.2-0.7-51.2-2c-2.5-0.2-20.8-1-17.8-4.3c1.5-1.7,8.8-0.6,11.5-0.6c5.9,0,11.7,0,17.6,0.1c11.7,0,23.4,0.1,35.2,0.1
				C425.8,375.4,452.3,375.9,459.7,378.6z"/>
		</g>
	</g>
	
		<linearGradient id="XMLID_5_" gradientUnits="userSpaceOnUse" x1="-516.6722" y1="-1036.9438" x2="-463.0837" y2="-1036.9438" gradientTransform="matrix(1.9191 5.210000e-02 -2.720000e-02 0.9996 1322.0967 1440.6191)">
		<stop  offset="0" style="stop-color:#000000"/>
		<stop  offset="1" style="stop-color:#000000"/>
	</linearGradient>
	<path id="XMLID_2681_" class="st3" d="M459.7,378.6c2,0.7,2.6,1.6,0.9,2.8c-1.4,0.9-5.3,0.4-7.1,0.5c-8.5,0.2-16.9,0.4-25.4,0.4
		c-17.1,0-34.2-0.7-51.2-2c-2.5-0.2-20.8-1-17.8-4.3c1.5-1.7,8.8-0.6,11.5-0.6c5.9,0,11.7,0,17.6,0.1c11.7,0,23.4,0.1,35.2,0.1
		C425.8,375.4,452.3,375.9,459.7,378.6z"/>
	<g>
		<g>
			<defs>
				<polygon id="SVGID_5_" points="1,1 2,1 1,2 				"/>
			</defs>
			<defs>
				<polygon id="SVGID_6_" points="-1,-1 -2,-1 -1,-2 				"/>
			</defs>
			<clipPath id="SVGID_7_">
				<use xlink:href="#SVGID_5_"  style="overflow:visible;"/>
			</clipPath>
			<clipPath id="SVGID_8_" class="st4">
				<use xlink:href="#SVGID_6_"  style="overflow:visible;"/>
			</clipPath>
			
				<linearGradient id="XMLID_6_" gradientUnits="userSpaceOnUse" x1="828.5667" y1="54.9794" x2="870.1683" y2="54.9794" gradientTransform="matrix(1.919 -5.460000e-02 -2.840000e-02 -0.9996 -1352.6311 482.4509)">
				<stop  offset="0" style="stop-color:#FFFFFF"/>
				<stop  offset="1" style="stop-color:#000000"/>
			</linearGradient>
			<path id="XMLID_9_" class="st5" d="M314.2,381c1.5-0.6,2-1.3,0.7-2.1c-1.1-0.7-4.1-0.3-5.5-0.4c-6.6-0.2-13.1-0.3-19.7-0.3
				c-13.2,0-26.5,0.6-39.7,1.6c-2,0.2-16.1,0.8-13.8,3.4c1.2,1.3,6.8,0.5,8.9,0.5c4.5,0,9.1,0,13.6-0.1c9.1,0,18.2-0.1,27.3-0.1
				C287.9,383.5,308.5,383.1,314.2,381z"/>
		</g>
	</g>
	
		<linearGradient id="XMLID_7_" gradientUnits="userSpaceOnUse" x1="828.5667" y1="54.9794" x2="870.1683" y2="54.9794" gradientTransform="matrix(1.919 -5.460000e-02 -2.840000e-02 -0.9996 -1352.6311 482.4509)">
		<stop  offset="0" style="stop-color:#000000"/>
		<stop  offset="1" style="stop-color:#000000"/>
	</linearGradient>
	<path id="XMLID_2680_" class="st6" d="M314.2,381c1.5-0.6,2-1.3,0.7-2.1c-1.1-0.7-4.1-0.3-5.5-0.4c-6.6-0.2-13.1-0.3-19.7-0.3
		c-13.2,0-26.5,0.6-39.7,1.6c-2,0.2-16.1,0.8-13.8,3.4c1.2,1.3,6.8,0.5,8.9,0.5c4.5,0,9.1,0,13.6-0.1c9.1,0,18.2-0.1,27.3-0.1
		C287.9,383.5,308.5,383.1,314.2,381z"/>
	<g>
		<path class="st7" d="M320.2,168.1c-11.5,7.3-24.8-11.7-31.3-19.7c-6.2-7.7-13-15.3-22.5-18.1c-0.8-0.2-1.1,1-0.3,1.3
			c13,4.2,20.2,16.8,29.2,26.7c5.6,6.2,16.8,16.9,25.2,10.4C320.9,168.5,320.6,167.9,320.2,168.1z"/>
		<path class="st8" d="M381.8,373.2c0.1,0.5,0.2,1,0,1.4c-0.1,0.4-0.4,0.7-0.7,1c-1.6,1.4-3.8,1.5-5.8,1.6c-2.8,0.1-5.5,0.1-8.3,0.2
			c-0.6,0-1.3,0-1.8-0.4c-0.9-0.8-0.5-2.4,0.4-3.1s2.1-0.8,3.2-0.9c1.8-0.1,3.6-0.3,5.4-0.6c0.8-0.1,1.5-0.3,2.2-0.7
			c0.7-0.4,1.1-1.3,1-2.1c0,0.2,3.3-0.3,3.6,0C381.6,370.1,381.7,372.4,381.8,373.2z"/>
		<path class="st8" d="M421.8,371.4c-0.3,2.4-1.3,4.5-1.9,6.8c-0.2,0.8-0.2,1.7,0.3,2.2c0.3,0.3,0.8,0.3,1.2,0.4c0.6,0,1.2,0,1.9,0
			c0.2,0,0.4,0,0.6-0.2c0.2-0.1,0.2-0.4,0.3-0.6c0.8-2.8,1.5-5.6,2.3-8.4c0.2-0.6,0.3-1.2,0.3-1.9c0-0.7-0.3-1.3-0.5-2
			c-0.5-1.2-1-2.5-1.4-3.7c-0.1-0.2-0.2-0.4-0.3-0.5c-0.2-0.1-0.4,0-0.5,0.1c-1.1,0.5-3.4,1-3,2.7c0.2,0.8,0.7,1.5,0.8,2.4
			C421.9,369.7,421.9,370.5,421.8,371.4z"/>
		<path class="st9" d="M241.6,367.8c-2.6,0.3-5.4-0.5-7.6-2.3c3.4-10.7,4.4-13.8,7.9-24.5c1.1-3.4,2.2-6.8,2.8-10.3
			c0.7-4.4,0.7-9,0.7-13.5c-0.2-17.5,0.4-75.4,0.2-93c0-1.5,0-3,0.4-4.3c1.3-3.8,10.7-3.1,14.1-3c0.7,0,6.3,0.8,6.9,1.4
			c0.7,0.7,6.2,0.3,6.3,1.3c0.7,13.8-7.4,41.5-8.5,56c-0.4,4.8-4.1,35.5-4.7,40.3c-1.1,8.4-3.9,17.1-7.3,24.4
			C247.5,351.8,246.8,354.5,241.6,367.8z"/>
		<path class="st10" d="M272.8,153.4c3.1,1.6,5.3,4.7,7.4,7.6c5,7.1,10.1,14.3,15.1,21.4c1.4,2,3,4.2,5.2,5.1
			c2.7,1.1,5.6,0.3,8.4-0.5c5.5-1.6,4.4-2,9.9-3.6c0.4-0.1,0.9-0.2,1.2,0c0.2,0.2,0.3,0.5,0.4,0.7c0.6,1.7,1.7,5.7,0.7,7.2
			c-0.7,1.1-2,1.5-3.2,1.8c-9.3,2.5-12.2,3.7-21.8,4.5c-1.4,0.1-2.3-0.8-4.9-2.3c-1.1-0.6-2.1-1.4-2.9-2.4
			c-5.3-5.7-10.2-11.9-14.5-18.5c-2.1-3.2-4.1-6.6-6-10c-1.4-2.5-3.8-6.2-3.1-9.3C265.4,151.4,270.4,152.1,272.8,153.4z"/>
		<path class="st11" d="M266.4,129.9c-0.3-4.8-2.2-9.3-4.2-13.6c-1.6-3.5-3.3-7.1-6.2-9.4c-0.6-0.5-1.2-0.9-1.9-1
			c-0.6-0.1-1.2,0.1-1.8,0.4c-5.5,1.9-11.1,3.9-15.9,7.3c-0.4,0.3-0.7,0.5-0.9,1c-0.1,0.4-0.1,0.8,0,1.2c2.2,12,7,27.9,18.2,30.9
			c5.4-2.8,4.4-0.7,10-3C262.4,140.5,266.6,133.4,266.4,129.9z"/>
		<path class="st12" d="M288.6,378.4c-0.6-0.6-1.3-0.9-2.1-1.3c-2.6-1.1-5-2.6-7.2-4.4c-2.9-0.5-5.8-0.7-8.7-0.4
			c-1.1,1.9-1.5,4.3-0.9,6.5c0.1,0.3,0.2,0.5,0.3,0.7c0.2,0.2,0.6,0.3,0.9,0.4c5.3,1,10.7,1.5,16.1,1.5c0.7,0,1.5-0.1,1.9-0.7
			C289.4,380.1,289.2,379,288.6,378.4z"/>
		<path class="st12" d="M247.4,377.4c-0.3-0.8-0.9-1.4-1.5-2c-2-2-3.7-4.3-5.1-6.8c-2.4-1.6-5.1-2.8-7.8-3.7c-1.7,1.3-2.8,3.3-3,5.5
			c0,0.3,0,0.6,0.1,0.8c0.1,0.3,0.4,0.5,0.7,0.7c4.5,3,9.2,5.5,14.1,7.5c0.6,0.3,1.4,0.5,2,0.2C247.6,379.3,247.7,378.2,247.4,377.4
			z"/>
		<path class="st9" d="M288.2,250.2c0-1.4,0-2.8,0-4.3l0,0l0,0c-0.2-6.6-1-13.2-1.8-19.7c-0.5-4.1-1-8.3-2.9-11.7
			c-4.5,3.4-9.6,5.5-14.9,6.2c0,0.1-0.1,0.2-0.1,0.3c-0.3,0.8-0.5,1.7-0.6,2.6c1,11.5-1.1,24.7-1.1,34.6c0,6.3-0.5,12.4-1.2,18.5
			c0.1,0,0.3,0,0.4-0.1c2,9,2.3,18.6,2.6,28.1c0.6,22.5,1.2,45,1.8,67.5c0,2.3,7.5,0.3,8,0.1c0-0.5,0.1-0.9,0.1-1.4
			c0.8-11.6,0.8-23.5,1.7-35c0.9-10.8,1.2-22.5,3.2-33.1c0.8-4.3,0.9-7.9,0.9-12.3c0.1-5.4,0.7-10.7,1.3-16
			C286.7,266.5,288,258.4,288.2,250.2z"/>
		<path class="st13" d="M292.7,296.4c0-7.1-0.8-14.2-1.3-21.3c-0.5-7.1,1.1-25-0.1-32c-2.8-16.8-6.2-15.5-4.5-23.6
			c4.8-23-9.4-54.1-22.9-69.2c-3.9,1.3-8,1.5-12.2,1.5c-0.1,0.3-0.2,0.6-0.2,1c-3.8,21.4-5.3,61-5.8,69c-1,15.7-6,25.4-8,40.1
			c-0.6,4.6-1.5,9.4-2.2,14.2c-1.4,5-3.4,10.5-3.9,16c-0.3,0.7-0.6,1.5-0.7,2.4c-1.7,2.8-1.4,7.3,1.4,9c0.6,0.4,1.2,0.5,1.8,0.4
			c0.1,0,0.2,0.1,0.3,0.2c9.9,4.6,20.6,7.7,31.1,7.1c0.6,0,1.2-0.2,1.8-0.4c3,0.3,6.1,0.4,9.2,0.5c3.9,0.1,9,1.3,12.5-1.3
			c2.1-1.6,2.7-4.9,2.4-7.9C292.1,300.6,292.6,298.7,292.7,296.4z"/>
		<path class="st10" d="M264.2,183.9c-5.8,3.5-21,12.7-27.9,11.9c6.9-7.4,13.3-15.9,16.6-20.5c3.8-5.3,2.6-13.9,1.5-20
			c-0.7-4-4.8-3.8-6.8-1.4c-1.2,0.1-2.3,0.9-2.9,2.5c-6.6,16.3-19.2,30.5-22.2,48.4c-0.4,2.4,0.6,5.7,3.3,6.2
			c16.3,2.8,27.6-15.6,41-22.2C272,186.1,266.3,182.6,264.2,183.9z"/>
		<path class="st11" d="M269.6,173.8c-0.3-1.3-0.9-2.5-2.2-3.2c-0.7-0.4-1.7,0.2-1.8,1.1c-0.1,2.1-0.2,4.2-0.3,6.2
			c-0.2-0.1-0.4-0.2-0.5-0.3c-1-0.7-2,0.8-1.7,1.8c0.6,1.8,1.6,2.8,2.6,4.2c0.5,0.7,1.1,0.8,1.6,0.5c0.5,0.5,1.4,0.6,1.9-0.1
			c0.3-0.4,0.3-0.8,0.3-1.1C270.3,179.7,271,176.5,269.6,173.8z"/>
		<g>
			<path class="st14" d="M273,95.6c-1.7,0.8-3.4,1.5-5.2,2c-0.7,0.2-0.4,1.3,0.3,1.2c1.8-0.3,3.7-0.6,5.4-1.1
				C274.9,97.4,274.2,95.1,273,95.6z"/>
			<path class="st14" d="M259.4,86.2c-0.4-0.9-1.9-0.5-1.8,0.5c0.1,0.9,0.4,1.7,0.7,2.5c0.3,0.9,0.5,1.9,1,2.6
				c0.3,0.4,0.9,0.4,1-0.2c0.1-0.9-0.1-1.8-0.3-2.6C259.9,88.1,259.7,87.1,259.4,86.2z"/>
			<path class="st14" d="M266.7,87.1c-0.6,0.8-1.1,1.8-1.5,2.8c-0.4,0.9-0.9,1.7-0.9,2.7c0,0.5,0.5,0.7,0.8,0.5
				c0.7-0.5,1.1-1.2,1.5-1.9c0.6-0.9,1.3-1.8,1.7-2.9C268.7,87.4,267.5,86.2,266.7,87.1z"/>
		</g>
		<path class="st12" d="M362.6,248.8c0-0.8,4.9-0.4,5.2,0.3c4,0.1,7.9,0.3,11.9,0.4c0.9,0,1.9,0.1,2.6,0.9c0.9,1.1,6.1,3.2,6,5
			c-0.6,34.1-6.2,80.6-6.7,114.7c-1.6,0-3.3,0-4.9,0c0-10.9-4.3-21.6-5.8-32.3C367.5,313,362.4,274.1,362.6,248.8z"/>
		<path class="st12" d="M394,245.1c0.4-0.7,1.1-0.8,1.7-1c2.8-0.6,4.3,0.7,5.8,4.2c0.5,1.2,1.9,3.2,2.8,2.6
			c25.5-19.2,3.1,45.6,4.7,62.1c0.4,4.3,0.8,8.6,1.8,12.6c0.8,3.3,2.1,6.4,3.3,9.4c3.9,9.6,7.7,19.2,11.6,28.8
			c-1.7,2-3.9,3.1-6.1,3.1c-2-5.3-4.9-6.5-17.5-23.2c-4.2-5.6-8.7-18.6-10.4-26.4c-1-4.4-1.9-37.2-2.2-41.8c-0.8-13.1-1-16.9-1.7-30
			C387.6,244.4,393.5,245.9,394,245.1z"/>
		<g id="XMLID_2677_">
			<path class="st11" d="M435.7,73.3c-0.4-2.3-1.3-4.7-0.7-7c0.2,0.1,0.4,0.1,0.7,0.2c0.1,0.5,0.3,0.9,0.4,1.4
				c0-1.2,0.1-2.4,0.4-3.6c0.3-1.1,0.8-2.4,1.7-2.3c0.8,0.1,1.3,1.4,1.5,2.5c1,5.2,0.5,10.7,0.1,16.1c-1.4,0.1-2.7-0.1-4.1-0.6
				C436,77.7,436,75.4,435.7,73.3z"/>
			<g id="XMLID_2678_">
				<path id="XMLID_2679_" class="st11" d="M410.6,164.4c-6.1,4.2-14.2-20.2-6.5-25.2c7-4.5,18.7-5,24.9-12c3-3.3,4.8-8.2,5.2-13.9
					c0.7-11.5,1.1-23,1.4-34.5c1.7-0.1,3.5-0.2,5.2-0.3c1,14.3,1.9,28.5,2.9,42.8c0.2,2.7,0.4,5.6-0.2,8.3c-0.5,2.6-1.7,4.8-2.9,6.8
					C432.7,149.4,420.2,157.7,410.6,164.4z"/>
			</g>
		</g>
		<g id="XMLID_2676_">
			<path class="st11" d="M337.9,81.2c0.2-0.2,0.4-0.2,0.6-0.1c-0.1-0.9,0.5-1.8,1.2-1.9s1.3,0.5,1.7,1.3c0.4,0.8,0.6,1.7,0.8,2.6
				c0.3,1.2,0.5,2.3,0.8,3.5c0.3-0.3,0.5-0.8,0.5-1.3c0.2-0.2,0.6,0,0.7,0.3c0.2,0.3,0.2,0.7,0.2,1.1c0.3,2.3,0.5,4.7,0.8,7
				c-0.6,0.4-1.2,0.9-1.9,1.2s-1.4,0.3-2-0.2c-0.8-0.7-1-2.1-1.3-3.4c-0.3-1.5-0.7-2.9-1.2-4.3C338.3,85.1,337.5,83.1,337.9,81.2z"
				/>
			<path class="st11" d="M345.3,93c1.8,10,3.7,20,5.8,29.9c1,5,3.3,8.7,6.3,10.9c6.3,4.5,13,5.4,19.6,7.6c7.3,2.4,5.8,12.8,0,14.4
				c-9.4,2.5-19.8-1.6-28.3-11c-1.3-1.4-2.6-3-3.4-5.2s-1-4.8-1.3-7.2c-1.1-12.7-2.1-25.5-3.2-38.2C342.3,93.7,343.8,93.4,345.3,93z
				"/>
		</g>
		<path id="XMLID_2675_" class="st15" d="M360.2,157.4c2.8,3.3,5.8,6.6,8.8,9.6c-3.8,32.7-8.2,48.2-8.9,81.3
			c-0.1,5.7,3.4,9.7,7.1,10c6.9,0.5,13.9,0.4,20.8-0.7c3.5-0.5,7.1-1.2,10.6-2.1c1.2-0.3,2.4-0.7,3.4-1.1c0.1,0,0.2,0,0.3,0
			c5.7-0.5,11.1-1.5,16.7-3.1c4.8-1.3,4.4-9.8,1.1-12.8c0-1.8-0.4-3.7-1-5.4c0.6-18.9,2.3-20,0.4-38.6c-0.1-2.2-0.2-4.4-0.3-6.6
			c-0.5-6.3-1.4-12.5-2.6-18.6c1.5-2.2,3.1-4.2,4.6-6.4c1.7-2.5,3.6-4.1,5.5-6.3c0.4-0.5,0.7-1,1-1.6c0,0,13.5-17.6,16.9-24.5
			c3.4-6.9-3.1-53.3-3.1-53.3l-6.8,0.6l-0.9,7.3c0,0-1.5,22.9-3.4,33.8c-1.9,11-15,13.8-15,13.8c-0.8,0.2-1.7,0.4-2.5,0.6
			c-1.7,0.4-3.4,0.6-5.1,0.7c-0.5,0-1,0-1.5,0.1c-7.8,3.4-16.1,4.3-24.1,1.8c-0.2,0.4-0.5,0.8-0.7,1.2c-0.5-0.2-1.2-0.3-1.8-0.2
			c-2.3,0.3-4.7,0.3-7.1,0.1c-1.3-0.4-2.6-0.8-3.8-1.2c-1.5-0.5-3.6-0.4-5-1.4c0,0-8-2.5-10.5-10.9s-6.9-30.4-6.9-30.4l-6.5,1.3
			l3.5,41.3C343.3,135.6,341.3,139.9,360.2,157.4z"/>
		<path class="st16" d="M369.9,161.7c-0.9,1.2-1.9,2.4-2.6,3.9c-0.5,1-0.7,2.2-0.9,3.3c-1.1,6-1.8,12.1-2.5,18.2
			c-1.2,11-2.5,22-3.7,33c-0.9,8-1.8,16.3-0.2,24.2c0.1,0.6,0.3,1.3,0.8,1.7c0.5,0.5,1.3,0.5,1.9,0.4c10.3-0.6,20.6-1.2,30.9-1.8
			c6.5-0.4,13.1-0.8,19.4-2.6c3-0.9,6.3-2.4,7.6-5.6c0.7-1.7,0.8-3.5,0.9-5.4c0.2-6.1,0.5-12.2,0.7-18.3c0.4-9.2,0.7-18.5-0.4-27.7
			c-0.8-6.3-2.2-12.5-3.7-18.7c-0.2-1-0.5-2-1.1-2.9c-0.5-0.8-1.2-1.3-1.9-1.8c-7-5.4-12.4-13.7-14.8-23c-0.2-0.7-0.4-1.5-0.8-2.1
			c-1.3-2-4-1.3-6.1-0.5c0,3.4-2.4,6.7-5.4,7.2c-3.2,0.6-5.8-1.7-7.1-4.8c-1.6-3.7-3.5-2.7-4.3,1.2
			C375.2,147.7,374.6,155.1,369.9,161.7z"/>
		<g>
			<path class="st17" d="M258.7,155.3c-0.4,0-0.7,0.2-0.9,0.4c0-0.5-0.3-1-0.9-1c0,0,0,0-0.1,0c0.2-0.7-0.2-1.7-1.1-1.7
				c-0.1,0-0.2,0-0.2,0.1c0.2-0.6-0.1-1.3-0.9-1.4c0,0,0,0-0.1,0l0,0c0.1-0.8-0.2-1.6-1.2-1.6c-1.6,0-1.6,2.7,0,2.7
				c0.1,0,0.2,0,0.2-0.1c0,0.6,0.3,1.2,1,1.1c0,0,0,0,0.1,0h0.1c-0.3,0.8,0,1.9,1,1.9c0.1,0,0.2,0,0.3-0.1c0,0.5,0.3,1,0.9,1
				c0.3,0,0.5-0.1,0.6-0.3c-0.1,0.8,0.3,1.6,1.2,1.6C260.4,158.1,260.4,155.3,258.7,155.3z"/>
			<path class="st17" d="M264.9,154.9c-0.7,0-1.1,0.6-1.1,1.2c-0.1,0-0.2-0.1-0.4-0.1c-0.6,0-0.9,0.3-1.2,0.7
				c-0.2-0.3-0.5-0.6-1-0.6c-1.7,0-1.7,2.9,0,2.9c0.5,0,0.8-0.3,1-0.6c0.2,0.4,0.6,0.7,1.2,0.7c1,0,1.5-0.9,1.3-1.8h0.1
				C266.3,157.3,266.3,154.9,264.9,154.9z"/>
			<path class="st17" d="M264.9,154.7c1,0,1-1.7,0-1.7C263.9,153.1,263.9,154.7,264.9,154.7z"/>
			<path class="st17" d="M264,150.6c-0.9,0.5-0.8,2.4,0.5,2.4c1.5,0,1.5-2.4,0.1-2.5c0.9-0.5,0.8-2.4-0.5-2.4
				C262.7,148.1,262.6,150.5,264,150.6z"/>
		</g>
		<path class="st11" d="M325.2,182c0.3-0.1,0.8-0.2,1,0c0.1,0.1,0.2,0.3,0.3,0.4c0.4,0.5,1.1,0.3,1.6,0.1c0.9-0.3,1.8-0.5,2.7-0.5
			c0.4,0,0.7,0,1.1,0.2c0.7,0.3,1,1.2,1.2,1.9c0.3,1,0.5,2.2,0,3.1c-0.4,0.8-1.3,1.1-2,1.4c-2.8,0.9-5.7,1.3-8.6,1.7
			c-0.4,0.1-0.8,0.1-1.1-0.2c-0.2-0.1-0.3-0.4-0.4-0.6c-0.5-1.2-1.6-3.7-0.5-4.8C321.7,183.6,323.5,182.7,325.2,182z"/>
		<path class="st7" d="M375.3,137.2c-5.9,10.1-19.2,17-29.6,19.8c-5.2,1.4-10.6,1.4-15.6,3.6c-4.1,1.8-7.5,4.7-10.4,8.4
			c-0.3,0.3,0.2,0.9,0.5,0.5c4.7-5.6,10.4-8.7,17.3-9.8c5.6-0.9,10.9-1.8,16.2-4.1c8.4-3.7,18-9.1,22.7-17.7
			C376.8,137.1,375.7,136.4,375.3,137.2z"/>
		<path id="XMLID_2674_" class="st11" d="M394.2,107c1.6,3.8,2,8.4,2.3,12.8c0.3,5.5,0.6,11.2-0.6,16.4c-0.9,3.9-0.6,2.1-6.1,6.9
			c-5.9,0.5-1.6,0-6.9,0.6c-19.3-5.3-9.8-22.5-8.1-36.3c0.1-0.5,0.1-0.9,0.3-1.3c0.2-0.4,0.6-0.5,1-0.6c5-1.5,10.1-1.2,15.2-0.8
			c0.5,0,1.1,0.1,1.6,0.4C393.5,105.5,393.9,106.3,394.2,107z"/>
		<path class="st7" d="M329.5,200c0-0.3-0.5-0.2-0.4,0.1c0.7,7.4,1.6,15.3-0.4,22.6c-2,7.5-8.5,6.7-12.7,2.2c-3.2-3.5-4.7-8.2-5-13
			c-1-15.2,8.4-28.2,9.7-42.8c0-0.5-0.7-0.5-0.7,0c-0.3,6.2-3.1,13.2-5.1,19c-1.7,5-3.6,10-4.5,15.3c-1.5,8-0.7,17.3,5.3,23.1
			c3.5,3.4,9.9,6.1,12.8,0.6C332.4,219.2,330.6,208.4,329.5,200z"/>
		<path class="st7" d="M330.2,200.7c0-0.1-0.1-0.2-0.1-0.3c0-0.3-0.1-0.6-0.2-0.9c0-0.2,0-0.3,0-0.5c0-0.3-0.2-0.6-0.5-0.5l-0.1-0.1
			c-1-0.8-1.5,0.5-1.3,1.5l0,0c0,0.5,0,0.9,0,1.4c0.1,0.6,0,1.4,0.4,1.8c0.7,0.7,1.7,0,1.8-0.9c0-0.3,0-0.7,0-1.1
			C330.2,201,330.2,200.9,330.2,200.7z"/>
		<g>
			<g>
				<path class="st18" d="M324.3,178.2c-0.2-1.4-0.4-3,0.1-4.3c0.6-1.5,1.9-1.9,3.1-2.2c1.4-0.3,2.8-0.4,4.2-0.3c0.6,0,2,0,2.5,0.5
					c0.7,0.7,0.7,2,0.8,3.2c0.5,7.2,1.2,13.1,1.3,19.7c0,0.9,0,1.9-0.5,2.5c-0.3,0.4-0.7,0.5-1.1,0.6c-2.2,0.5-9,2.3-9.4-2.4
					C325,189.7,325.1,184,324.3,178.2z"/>
				<path class="st19" d="M324.9,176.8c0-0.6,0-1.1,0.3-1.6s0.8-0.7,1.2-0.8c1.9-0.4,3.9-0.6,5.8-0.7c0.3,0,1.1-0.1,1.4,0.1
					c0.2,0.1,0.5,0.3,0.7,0.5c0.4,0.8,0.3,1.8,0.4,2.7c0.2,0.8,0,1.7,0.1,2.6c0.1,0.9,0.1,1.9,0.2,2.8c0.1,1.4,0.2,2.8,0.4,4.2
					c0.1,1,0.2,2,0.3,3c0.1,0.5,0.1,1,0,1.4c-0.2,0.6-0.6,0.8-1.1,1c-0.9,0.2-1.8,0.3-2.8,0.4c-1.4,0.1-2.8,0.2-4.1,0.3
					c-0.5,0-1.5,0.3-1.8-0.5c-0.1-0.4-0.1-1.1-0.1-1.6c0-0.6-0.1-1.3-0.1-1.9c-0.2-2.5-0.4-5-0.6-7.6
					C325,179.6,324.9,178.2,324.9,176.8z"/>
				<g>
					<path class="st20" d="M330.8,172.7c-0.2,0-0.3,0-0.5,0c-0.4,0-0.7,0.1-1.1,0.1c-0.2,0-0.5,0.1-0.5,0.2c0,0.1,0,0.1,0.1,0.2
						c0.3,0.2,2.2,0.1,2.3-0.3C331.1,172.8,331,172.7,330.8,172.7z"/>
					<path class="st20" d="M328.5,172.9c-0.1-0.1-0.2-0.1-0.2,0c-0.1,0.1-0.1,0.2-0.1,0.3s0,0.1,0,0.2c0.1,0.1,0.2,0.1,0.3,0
						S328.6,173.1,328.5,172.9L328.5,172.9z"/>
				</g>
				<path class="st21" d="M330.4,194.5c-0.2,0.2-0.3,0.5-0.3,0.7c0,0.1,0,0.3,0,0.4c0.1,0.3,0.3,0.6,0.5,0.8
					c0.3,0.1,0.6,0.2,0.8,0.1c0.1,0,0.1,0,0.2-0.1s0.1-0.1,0.2-0.2c0.2-0.3,0.2-0.8,0.1-1.1C331.7,194.4,330.9,194,330.4,194.5z"/>
			</g>
			<path class="st22" d="M332.8,182.7c-0.1-0.8-0.2-1.8-0.5-2.5c-0.2-0.4-0.4-0.4-0.8-0.4c-0.8,0.1-1.7,0.3-2.5,0.5
				c-0.2,0.1-0.3,0.3-0.3,0.5c0.1,0.5,0.1,1.1,0.2,1.6c0,0.2,0,0.6,0,1c-0.1,0-0.1,0-0.2,0c-0.5,0-1,0.5-0.7,1.2
				c0.2,0.5,0.6,0.5,0.9,0.3c0.9-0.1,0.9-1.6,0.8-2.9c0.7-0.1,1.4-0.2,2-0.2c0,0,0,0,0.1,0c0,0.1,0,0.3,0,0.4c0,0.2,0.1,0.4,0.1,0.6
				v0.1c-0.4,0-0.7,0.2-0.8,0.7c-0.1,0.9,1.1,1.3,1.6,0.6C333,183.8,332.8,183.2,332.8,182.7z M329.6,181.5c0-0.1,0-0.3-0.1-0.4
				c0.3-0.1,0.5-0.1,0.8-0.2c0.2,0,0.4-0.1,0.6-0.1c0.3,0,0.5-0.1,0.6,0.1l0,0C330.9,181,330.2,181.2,329.6,181.5z"/>
			<g>
				<path class="st23" d="M330.2,189c-0.1,0-0.2,0.1-0.2,0.2c0,0,0,0,0,0.1c0,0.5,0.1,1,0.2,1.5c0,0.1,0.2,0.1,0.3,0.1
					c0.2-0.2,0.4-0.4,0.6-0.5s0.3-0.2,0.5-0.4c0.1-0.1,0-0.2-0.1-0.3C331,189.4,330.6,189.2,330.2,189z"/>
				<path class="st23" d="M328.2,189.4c0,0.5,0,1,0.1,1.6c0,0.3,0.4,0.2,0.4-0.1c-0.1-0.5-0.2-1-0.2-1.5
					C328.3,189.3,328.2,189.3,328.2,189.4z"/>
				<path class="st23" d="M327.5,189.5c0,0.6,0.2,1.2,0.3,1.8c0,0.1,0.2,0.1,0.2,0c-0.1-0.6-0.1-1.2-0.1-1.8
					C327.8,189.2,327.5,189.2,327.5,189.5z"/>
				<path class="st23" d="M334,189.3c0-0.2,0-0.5-0.3-0.5c-0.2,0-0.4,0.1-0.5,0.1s-0.3,0-0.3,0.1c-0.2,0.2-0.1,0.5,0,0.8l0,0
					c0,0.2,0,0.3,0.1,0.5c0.1,0.3,0.2,0.4,0.5,0.3c0.2,0,0.6-0.1,0.7-0.3C334.2,190.1,334,189.6,334,189.3z"/>
			</g>
		</g>
		<path class="st24" d="M284,221.1c0.4,0,0.8-0.1,1.2,0c1.6,0.5,1.7,3.3,1.4,5.4c-12.4,3.7-25.2,1.6-37.7-0.5
			c-2.5-0.4-7.2-3.5-3.1-6.3c3.1-2.2,8.2,0.3,11.4,0.8C266.1,221.8,275.1,222,284,221.1z"/>
		<path class="st25" d="M251.5,114.3c-1.6,0.7-3.4,0.2-5.1-0.2c0.9,1.2-0.1,3-1.4,3.7c-1.3,0.7-2.8,0.9-3.8,2
			c-1.2,1.3-1.1,3.6-0.4,5.3c0.7,1.7,1.8,3.2,2.5,4.9c1.7,4.2,0.8,10,4.2,12.7c1.4,1.1,3.5,1.9,3.3,3.7c-0.2,1.2-1.5,1.9-2.7,1.8
			c-1.2-0.1-2.2-0.8-3.3-1.3c-5.1-2.3-10.9,0.5-16.4,0.9c-2.2,0.2-4.9-0.4-5.7-2.6c-0.6-1.6,0.1-3.5-0.5-5.1
			c-1.2-3.5-7.1-3.8-7.2-7.6c0-2.7,3.2-4.1,3.9-6.7c0.9-3.6-3.6-7.1-2.1-10.4c1.2-2.6,4.9-2.3,6.7-4.5c2.2-2.6,0.9-7.8,3.9-9.1
			c0.8-0.4,1.8-0.3,2.7-0.4c2.4-0.4,4.2-2.6,6-4.4s4.3-3.5,6.6-2.6c1.2,0.5,2.1,1.5,3.3,2c1.9,0.7,3.9-0.2,5.8-0.7
			c1.9-0.5,4.4-0.3,5.3,1.6c0.4,1,0.4,2.3,1.2,2.9c0.6,0.5,1.4,0.4,2.1,0.5c2.6,0.6,3.4,4,3.7,6.8c0.1,0.5,0.1,0.9-0.1,1.3
			s-0.6,0.6-1,0.7c-2.3,0.9-4.8,0.5-7-0.5C254.7,110.5,253,113.6,251.5,114.3z"/>
		<path class="st20" d="M369.8,121c2.5,3.9,8.7-0.3,8.7-4.4c1.2,0,2.4-0.1,3.6-0.1v0.1c-0.5,3.7,2.8,6.7,6,6.6
			c2.8-0.1,7.5-2.7,6-6.3c-1.2-2.9-4.1-4.4-6.9-4.2c-2-0.4-4.1,0.9-4.8,3c-1.2,0.1-2.4,0.1-3.6,0.1c0,0,0-0.1-0.1-0.1
			c-1.9-2-5.3-1.9-7.4-0.4C369.6,116.5,368.6,119.1,369.8,121z M383.1,118.2c-0.6-3.1,2.5-5.4,5-4.2c0.3,0.2,0.6-0.1,0.6-0.4
			c1.4,0.3,2.8,1.1,3.8,2.3c2.4,3-0.6,5.7-3.5,6.2C386.4,122.7,383.6,121.1,383.1,118.2z M373.3,115.4c1.6-0.4,2.9,0,4.3,0.7l0,0
			c1.5,3.3-5.2,7.6-7.1,4.2C369.3,118,371.4,115.9,373.3,115.4z"/>
		<path class="st26" d="M402.6,106.6c-0.9-0.7-2.3-2.1-3.6-3.1c-0.2-0.4-0.4-0.8-0.6-1.1c-2-3.1-5.1-5.4-8.6-6
			c-3-0.5-5.1,0.5-7.8,1.4c-2.2,0.7-4.9,0.5-6.6,2.6c-1.2,1.5-2,3.3-3.5,4.3c-2.1,1.4-4.8,0.8-7.2,0.1c-0.7,1.6,0.9,3.2,2.3,4
			c3,1.6,6.3,2.2,9.6,1.9c3.1-0.3,6-1.4,9.1-1.6c3.1-0.3,6.5,0.4,8.4,3c0.1,0.2,0.2,0.4,0.3,0.6c0.1,0.8,0.2,1.7,0.4,2.5
			c0.3,1,0.7,3.8,1,4.8c1.7,5-0.5,6.8,0.9,13.7c0.7,0.3,1.7,0,2.2-0.6s0.8-1.3,1.3-1.9c0.6-0.7,1.5-1.1,2.2-1.8
			c1.3-1.5,1.1-3.9,1.5-6c0.7-3.5,3.3-6.5,3-10C406.8,110.5,404.7,108.3,402.6,106.6z"/>
		<path class="st26" d="M375.6,135.3c0,0.2,0,0.5,0.1,0.7c0.3,0.6,1.1,0.6,1.7,0.4c2.2-0.5,4.4-1.3,6.5-0.7c0.4,0.1,0.8,0.3,1.2,0.3
			c0.4,0,0.9-0.2,1-0.6c0.2-0.5-0.1-1-0.5-1.3s-0.9-0.3-1.4-0.3c-1.9-0.1-3.7,0-5.6,0.2C377.7,134.1,375.8,133.5,375.6,135.3z"/>
	</g>
</g>
</svg>
