<?xml version="1.0" encoding="utf-8"?>
<!-- Generator: Adobe Illustrator 22.1.0, SVG Export Plug-In . SVG Version: 6.00 Build 0)  -->
<svg version="1.1" id="圖層_1" xmlns="http://www.w3.org/2000/svg" xmlns:xlink="http://www.w3.org/1999/xlink" x="0px" y="0px"
	 viewBox="0 0 142.6 42.9" style="enable-background:new 0 0 142.6 42.9;" xml:space="preserve">
<style type="text/css">
	.st0{fill:#F2F2F2;}
	.st1{fill:#333333;}
</style>
<g>
	<rect class="st0" width="142.6" height="42.9"/>
	<g>
		<g>
			<path class="st1" d="M18.4,32.1v-2.3h3.8v-9.2h-2.9l0.8,6.8h-2.3l-0.9-7.2l-0.2,0.4V32h-3.9v-8.3h-1.7l3.7-7.2h-3.3v-2.3h1.9
				L12.9,12h3.9l0.6,2.2h1.4v2.2l-1.7,3.5h2v-1.6h3.1V12h3.9v6.3h3.3v2.3H26v9.2h3.8v2.3L18.4,32.1L18.4,32.1z"/>
			<path class="st1" d="M44.9,32.2l-3.7-3.3l-3.7,3.3h-5.7l6.5-5.9l-4-3.6h-2.4l3.4-5.6h4.6l-2.8,4.6H39l2.3,2l2.3-2h1.9l-2.9-4.6
				h4.5l3.5,5.6h-2.5l-3.9,3.5l6.7,6H44.9z M31.9,16.4v-2.3h7.2L38.5,12h4.3l0.6,2.1h6.7v2.3H31.9z"/>
			<path class="st1" d="M70.2,32.2H59.3L57,30.8l-0.7,1.3h-3.9l1.8-3.6v-3.2h-1.5v-2.1l1.6-4h-1.9v-2.1h5.4v2.4l-1.4,3.6h1.4v5.6
				L60,30h11L70.2,32.2z M54.1,16.5l-1.6-4.3h4l1.6,4.3H54.1z M66.1,28.1v1.5h-3.5v-1.5h-4.4v-2h4.4v-1h-4v-8.5h4v-0.9h-4.5v-2.1
				h4.5v-1.5h3.5v1.5h4.5v2.1h-4.5v0.9h4v8.5h-4v1h4.6v2H66.1z M62.6,18.6h-1.1v1.3h1.1V18.6z M62.6,21.7h-1.1V23h1.1V21.7z
				 M67.2,18.6h-1.1v1.3h1.1V18.6z M67.2,21.8h-1.1v1.3h1.1V21.8z"/>
			<path class="st1" d="M77.5,16.7h3.2v2.1l-1.9,2.3h1.9v4h-7.5v-2.4l3.2-3.8h-3.3v-2.3l3.9-4.5h4.3L77.5,16.7z M73.3,32.1v-6.3h2.2
				v6.3H73.3z M76,32.1v-6.3h2.1v6.3H76z M78.6,21.4l-1.3,1.5h1.3V21.4z M78.7,32.1v-6.3h2.1v6.3H78.7z M87.8,16.9v2.9h3V22h-9.4
				v-2.2h2.9v-2.9H81v-2.2h3.3v-2.5h3.6v2.5h3.4v2.2H87.8z M81.5,32.1v-8.9h9.4v8.9H81.5z M87.3,25.4H85v4.5h2.3V25.4z"/>
			<path class="st1" d="M94.5,17l-1.2-4.9h3.6l1.2,4.9H94.5z M94.6,22.8l-1.2-5H97l1.3,5H94.6z M97.1,32.1h-3.6l0.8-8.6h3.6
				L97.1,32.1z M111.4,32.1h-4.1l-0.2-1.8l-0.8,1.7H104l0.6-1.4h-2.4v-9.4h3.6v6.6l0.9-2.1l-0.5-5.7h-4.5v9.4l-0.8,2.7h-3.3l1-3.3
				V14.5h7.1l-0.2-2.3h3.2l0.2,2.3h0.6l-0.2-1.9h1.9l0.3,1.9h0.4v2.1h-2.7l0.3,3.1l0.5-1.1h2.4l-2.4,5.6l0.6,5.8h1.8L111.4,32.1z
				 M105.7,16.5h-4.1v1.4h4.2L105.7,16.5z M104.3,23.3h-0.6v5.1h0.6V23.3z"/>
			<path class="st1" d="M117.7,26.3h-3.9l2.8-12.3h3.8L117.7,26.3z M125.1,32.1H115l-1.1-2.3h8.2l2.7-3h-5l-1-2.3h2.3V12h4.1v14.4
				l2-2.2h5L125.1,32.1z M128.5,23.4l-2.8-9.4h4l2.8,9.4H128.5z"/>
		</g>
	</g>
</g>
</svg>
