<?xml version="1.0" encoding="utf-8"?>
<!-- Generator: Adobe Illustrator 22.1.0, SVG Export Plug-In . SVG Version: 6.00 Build 0)  -->
<svg version="1.1" id="圖層_1" xmlns="http://www.w3.org/2000/svg" xmlns:xlink="http://www.w3.org/1999/xlink" x="0px" y="0px"
	 viewBox="0 0 142.6 42.9" style="enable-background:new 0 0 142.6 42.9;" xml:space="preserve">
<style type="text/css">
	.st0{fill:#F2F2F2;}
	.st1{fill:#333333;}
</style>
<g>
	<rect class="st0" width="142.6" height="42.9"/>
	<g>
		<g>
			<g>
				<path class="st1" d="M15,29.6h-3.7L12.8,19h3.7L15,29.6z M26.2,32.1h-9.3V15.4h3.7v14.4h6.8L26.2,32.1z M21.8,18.1l-1.8-6h4
					l1.7,6H21.8z M25.9,29l-2.1-10h4l2.1,10H25.9z"/>
				<path class="st1" d="M35.8,32.1l-0.7-1.8l-0.3,1.8h-3.1l0.6-3.5V12.3h6.9v19.8H35.8z M36.3,24.9h-0.9V29l-0.1,0.8h1V24.9z
					 M36.3,14.4h-0.9v3h0.9V14.4z M36.3,19.6h-0.9v3h0.9V19.6z M46.5,16.4v1.8h3.2V31h-2.6l-0.7-1.5V32h-3.5V20.2H42V31h-2.1V18.1
					H43v-1.8h-3.4v-2.2H43V12h3.5v2.1h3.7v2.2L46.5,16.4L46.5,16.4z M47.5,20.3h-0.9v8.5h0.9V20.3z"/>
				<path class="st1" d="M52.5,31.9v-2.3l1.6-0.4V15.6h-1.4v-2.3h6.6v2.3h-1.4V28l1.7-0.5v2.4L52.5,31.9z M65.4,32.2l-0.9-2.3h2.3
					V17.7h-1.7v10.1l-2.3,4.4h-4.2l2.7-5.3v-9.2h-1.6v-2.3h1.6V12h3.8v3.4h5.5v16.8L65.4,32.2L65.4,32.2z"/>
				<path class="st1" d="M79.5,18.9l-0.2-1.3l-0.5,1.3h-5.5v-2.2l2.2-4.6h3.7l-2.1,4.6h2.1l-0.5-2.8h3.4l1,5H79.5z M78.2,32.1
					l-0.7-2.2h1.3v-1.5h-1.6V32h-3.7V19.7h8.8V32h-4.1V32.1z M78.7,21.9h-1.6V23h1.6V21.9z M78.7,25.2h-1.6v1.1h1.6V25.2z
					 M90.8,21.4h-7.6v-9.3h3.7v2.5h0.8l0.4-1.1h3.3l-0.8,3.3h-3.7v2.6h4.6L90.8,21.4z M90.7,32.1h-7.5v-9.9h3.7v2.6h0.8l0.3-1.1h3.4
					l-0.7,3.2h-3.8V30h4.6L90.7,32.1z"/>
				<path class="st1" d="M103,14.5v17.6h-4.1V14.5h-5.4v-2.3h18.4v2.3H103z M107.9,28.9l-3.6-10.6h4.1l3.6,10.6H107.9z"/>
				<path class="st1" d="M128.1,22l-1.7-1.3l-1.5,1.3h-4.1v7.5h-3.5v2.6h-3V12.3h6.5v7.3l-1.4,1.2l1.3,0.9l3.1-2.7l-2.7-2h4.7
					l0.2,0.1l1.8-1.6h-2.5l-0.4,0.9h-3.7l1.9-4.3h3.7l-0.5,1.2h5.5V16l-3.3,2.9l4.3,3.1L128.1,22L128.1,22z M118,14.5h-0.7v5.3h0.7
					V14.5z M118,22h-0.7v5.3h0.7V22z M129.2,29.8v2.3h-3.7v-2.3h-4.2v-2.1l0.5-1.4h3.1l-0.4,1.3h1v-2h-4.2v-2.2h4.2v-1h3.7v1h2.6
					v2.2h-2.6v2h3v2.2H129.2z"/>
			</g>
		</g>
	</g>
</g>
</svg>
