<?xml version="1.0" encoding="utf-8"?>
<!-- Generator: Adobe Illustrator 22.1.0, SVG Export Plug-In . SVG Version: 6.00 Build 0)  -->
<svg version="1.1" id="圖層_1" xmlns="http://www.w3.org/2000/svg" xmlns:xlink="http://www.w3.org/1999/xlink" x="0px" y="0px"
	 viewBox="0 0 214.5 373.3" style="enable-background:new 0 0 214.5 373.3;" xml:space="preserve">
<style type="text/css">
	.st0{fill:#E36E4B;}
	.st1{opacity:5.000000e-02;}
	.st2{fill:#E8B894;}
	.st3{fill:#D1A685;}
	.st4{fill:#FFCAA3;}
	.st5{fill:#FF9D4E;}
</style>
<g>
	<path class="st0" d="M189.1,373.3H25.5v-54.7c0-33.5,27.1-60.6,60.6-60.6h42.4c33.5,0,60.6,27.1,60.6,60.6V373.3z"/>
	<path class="st1" d="M128.5,258h-0.2c23.8,8.9,40.8,31.8,40.8,58.7v56.6h20v-54.7C189.1,285.2,161.9,258,128.5,258z"/>
	<path class="st2" d="M127.3,268.9L127.3,268.9c-11.9,8.8-28.1,8.8-40,0l0,0v-71.6h40V268.9z"/>
	<path class="st3" d="M87.3,246.1c11.9,6.9,25.5,11.1,40,11.9v-60.6h-40V246.1z"/>
	<g>
		<path class="st2" d="M195,160L195,160c-10.8,0-19.5-8.7-19.5-19.5v-8.3c0-10.8,8.7-19.5,19.5-19.5h0c10.8,0,19.5,8.7,19.5,19.5
			v8.3C214.5,151.3,205.8,160,195,160z"/>
		<path class="st2" d="M19.5,160L19.5,160C8.7,160,0,151.3,0,140.5v-8.3c0-10.8,8.7-19.5,19.5-19.5h0c10.8,0,19.5,8.7,19.5,19.5v8.3
			C39,151.3,30.3,160,19.5,160z"/>
	</g>
	<path class="st4" d="M107.3,243.8L107.3,243.8c-48.9,0-88.6-39.7-88.6-88.6v-37.8c0-48.9,39.7-88.6,88.6-88.6h0
		c48.9,0,88.6,39.7,88.6,88.6v37.8C195.8,204.2,156.2,243.8,107.3,243.8z"/>
	<path class="st5" d="M15.2,144.8c15.9-18.1,26.2-41,29.3-64.9c16.5,14.5,39.2,20.9,61.2,21.6c-1.7-4-4.2-8.9-5.9-12.9
		c14.4,11.9,34,14.6,52.3,18.7c18.2,4.1,37.9,11.5,46.3,28.2c4.9-29.3,5.8-58.1-4-86.2c-5.5-15.8-14-31.6-28.2-40.4
		c-13.5-8.4-30.4-9.4-46.3-8.7c-21.5,1-44.8,5.6-58.9,22c-10-5-24.8-0.5-33.8,6.1c-9,6.7-14.7,17.1-17.6,28
		C6.8,67.1,6.3,78.4,6,89.6C5.5,108.3,6.6,128.3,15.2,144.8z"/>
	<path class="st5" d="M135.2,226c-6.3,0.9-13.6,0.9-18.2-3.5h-5.5h-9.2h-5.5c-4.7,4.4-11.9,4.4-18.2,3.5
		c-16.8-2.5-32.7-10.4-45.2-22c15.8,24,43,39.8,73.9,39.8h0c31.8,0,59.6-16.7,75.3-41.9C169.8,214.6,153,223.3,135.2,226z"/>
</g>
</svg>
