<?xml version="1.0" encoding="utf-8"?>
<!-- Generator: Adobe Illustrator 22.1.0, SVG Export Plug-In . SVG Version: 6.00 Build 0)  -->
<svg version="1.1" id="圖層_1" xmlns="http://www.w3.org/2000/svg" xmlns:xlink="http://www.w3.org/1999/xlink" x="0px" y="0px"
	 viewBox="0 0 270.4 372.2" style="enable-background:new 0 0 270.4 372.2;" xml:space="preserve">
<style type="text/css">
	.st0{fill:#DE5E00;}
	.st1{fill:#FFB103;}
	.st2{opacity:5.000000e-02;}
	.st3{fill:#E8B894;}
	.st4{fill:#D1A685;}
	.st5{fill:#FFCAA3;}
</style>
<g>
	<path class="st0" d="M83.8,134.3c-1.8,18.8-16,34.1-30.9,45.7c-14.9,11.6-31.8,21.5-42.9,36.8c-11.1,15.3-14.6,38.5-1.7,52.3
		c0.1-10.7,9.1-19.3,19.4-22.1c10.3-2.7,21.3-1.9,31.7-4.1c21.1-4.4,38.9-21.9,43.5-43C107.6,178.9,101.1,147.1,83.8,134.3z"/>
	<path class="st0" d="M186.7,134.3c1.8,18.8,16,34.1,30.9,45.7c14.9,11.6,31.8,21.5,42.9,36.8c11.1,15.3,14.6,38.5,1.7,52.3
		c-0.1-10.7-9.1-19.3-19.4-22.1c-10.3-2.7-21.3-1.9-31.7-4.1c-21.1-4.4-38.9-21.9-43.5-43C162.8,178.9,169.3,147.1,186.7,134.3z"/>
	<path class="st1" d="M212.3,372.2H48.7v-54.7c0-33.5,27.1-60.6,60.6-60.6h42.4c33.5,0,60.6,27.1,60.6,60.6V372.2z"/>
	<path class="st2" d="M151.7,256.9h-0.2c23.8,8.9,40.8,31.8,40.8,58.7v56.6h20v-54.7C212.3,284.1,185.1,256.9,151.7,256.9z"/>
	<path class="st3" d="M150.5,267.8L150.5,267.8c-11.9,8.8-28.1,8.8-40,0l0,0v-71.6h40V267.8z"/>
	<path class="st4" d="M110.5,245c11.9,6.9,25.5,11.1,40,11.9v-60.6h-40V245z"/>
	<g>
		<path class="st3" d="M218.2,158.9L218.2,158.9c-10.8,0-19.5-8.7-19.5-19.5v-8.3c0-10.8,8.7-19.5,19.5-19.5h0
			c10.8,0,19.5,8.7,19.5,19.5v8.3C237.7,150.2,229,158.9,218.2,158.9z"/>
		<path class="st3" d="M42.7,158.9L42.7,158.9c-10.8,0-19.5-8.7-19.5-19.5v-8.3c0-10.8,8.7-19.5,19.5-19.5h0
			c10.8,0,19.5,8.7,19.5,19.5v8.3C62.2,150.2,53.5,158.9,42.7,158.9z"/>
	</g>
	<path class="st5" d="M130.5,242.7L130.5,242.7c-48.9,0-88.6-39.7-88.6-88.6v-37.8c0-48.9,39.7-88.6,88.6-88.6h0
		c48.9,0,88.6,39.7,88.6,88.6v37.8C219.1,203.1,179.4,242.7,130.5,242.7z"/>
	<path class="st0" d="M204.9,204.6c5.2-40.7-3.8-84.4-25.9-118.1c-14.2,9.5-32.4,8.1-49,5.6c-16.6-2.5-34.3-5.5-49.7,1.5
		c-16,7.2-26.5,24.3-30.9,42c-4.5,17.8-4.3,37.9-3.6,56.3c-7-19.9-14-39.9-17.5-60.8S24.9,88.2,32,68.4
		c7.1-19.6,20.7-36.2,37.4-47.6C86,9.3,105.4,2.9,125.1,0.6c25.2-3,51,6.1,69,25c18.1,18.9,28.7,44.6,34.1,70.8
		c3.9,18.9,5.3,38.5,2,57.5S218.2,191.4,204.9,204.6z"/>
</g>
</svg>
