<?xml version="1.0" encoding="utf-8"?>
<!-- Generator: Adobe Illustrator 22.1.0, SVG Export Plug-In . SVG Version: 6.00 Build 0)  -->
<svg version="1.1" id="圖層_1" xmlns="http://www.w3.org/2000/svg" xmlns:xlink="http://www.w3.org/1999/xlink" x="0px" y="0px"
	 viewBox="0 0 214.5 376.6" style="enable-background:new 0 0 214.5 376.6;" xml:space="preserve">
<style type="text/css">
	.st0{fill:#18CBEF;}
	.st1{opacity:5.000000e-02;}
	.st2{fill:#E8B894;}
	.st3{fill:#D1A685;}
	.st4{fill:#FFCAA3;}
	.st5{fill:#8F5000;}
</style>
<g>
	<path class="st0" d="M189.1,376.6H25.5v-54.7c0-33.5,27.1-60.6,60.6-60.6h42.4c33.5,0,60.6,27.1,60.6,60.6V376.6z"/>
	<path class="st1" d="M128.5,261.3h-0.2c23.8,8.9,40.8,31.8,40.8,58.7v56.6h20v-54.7C189.1,288.5,161.9,261.3,128.5,261.3z"/>
	<path class="st2" d="M127.3,272.2L127.3,272.2c-11.9,8.8-28.1,8.8-40,0l0,0v-71.6h40V272.2z"/>
	<path class="st3" d="M87.3,249.3c11.9,6.9,25.5,11.1,40,11.9v-60.6h-40V249.3z"/>
	<g>
		<path class="st2" d="M195,163.3L195,163.3c-10.8,0-19.5-8.7-19.5-19.5v-8.3c0-10.8,8.7-19.5,19.5-19.5h0
			c10.8,0,19.5,8.7,19.5,19.5v8.3C214.5,154.6,205.8,163.3,195,163.3z"/>
		<path class="st2" d="M19.5,163.3L19.5,163.3C8.7,163.3,0,154.6,0,143.8v-8.3c0-10.8,8.7-19.5,19.5-19.5h0
			c10.8,0,19.5,8.7,19.5,19.5v8.3C39,154.6,30.3,163.3,19.5,163.3z"/>
	</g>
	<path class="st4" d="M107.3,247.1L107.3,247.1c-48.9,0-88.6-39.7-88.6-88.6v-37.8c0-48.9,39.7-88.6,88.6-88.6h0
		c48.9,0,88.6,39.7,88.6,88.6v37.8C195.8,207.5,156.2,247.1,107.3,247.1z"/>
	<path class="st5" d="M194.8,172.1c-3.3,5.4-8.1,9.9-13.7,12.8c-8.8,4.6-19.5,5.2-28.7,1.6c-7.7-3-14.1-8.5-21.2-12.8
		c-7.1-4.3-15.8-7.4-23.6-4.6c0,0.9-1.3,0.9-1.3,0c-7.8-2.7-16.5,0.4-23.6,4.6c-7.1,4.3-13.5,9.8-21.2,12.8
		c-9.2,3.5-19.9,2.9-28.7-1.6c-5.1-2.7-9.6-6.7-12.8-11.5c7.1,41.8,43.5,73.7,87.3,73.7h0C151.6,247.1,188.3,214.6,194.8,172.1z"/>
	<path class="st5" d="M21.7,176c-5.1,5.4-3.5,14.3,0.2,20.8c3.7,6.5,9.1,12,11.3,19.2c2.2,7.1,1.6,16.1,7.9,20
		c3.6,2.3,8.4,1.8,12.3,3.6c9.7,4.4,10.5,20.1,20.7,23.3c8.8,2.8,17.4-6.3,26.6-5.6c9.3,0.7,16.9,11.2,25.9,8.6
		c7.6-2.1,10.3-12.4,17.7-15c5.4-1.9,11.9,0.9,17.1-1.7c3.1-1.5,5-4.6,6.7-7.5c4.5-7.5,9-15,13.5-22.6c8-13.4,16.3-29,11.4-43.8
		c-5.1,15.8-17.9,27.9-33.3,34.1c-15.4,6.2-32.5,6.9-49,5.2C78.2,211.1,47.1,196.7,21.7,176z"/>
	<path class="st5" d="M107.3,32.1L107.3,32.1c-48.9,0-88.6,39.7-88.6,88.6v37.8c0,11.8,2.3,23.1,6.5,33.4c2.4,2.8,4.3,2.8,8.5,4.3
		c-9.3-31.2-10-64.9-1.9-96.4c14-3.9,27.3-13.2,36.6-24.4c23.5,20.1,53,30.8,83.9,31c-2.1-4.3-3.5-9.4-5.6-13.7
		c13.6,3.6,28.1,7.8,37.2,18.5c9.7,11.6,10.8,28.1,8.9,43.1c-2,14.8-6.5,29.4-6.5,44.3c6.1-12,9.6-25.6,9.6-40.1v-37.8
		C195.8,71.8,156.2,32.1,107.3,32.1z"/>
	<path class="st5" d="M20.2,146.6C12.5,130.1,6.5,112,8.4,93.9c1.9-18.1,13.3-36.2,30.9-41.3C48,30.1,65.8,10.5,88.9,3.4
		c23.1-7.1,49.3-3,69.2,10.8c23.2,16.1,36.4,43.6,40.9,71.5s1,56.3-3.2,84.2c-2.9-18-4.9-37-3.3-55.2c-18.6-32.3-53-54.1-90-58.2
		c-14.3-1.6-29.3-0.5-42,6.3C46.7,70.1,37,83.4,31,97.8C25,112.2,22.7,131.3,20.2,146.6z"/>
</g>
</svg>
