<?xml version="1.0" encoding="utf-8"?>
<!-- Generator: Adobe Illustrator 22.1.0, SVG Export Plug-In . SVG Version: 6.00 Build 0)  -->
<svg version="1.1" id="圖層_1" xmlns="http://www.w3.org/2000/svg" xmlns:xlink="http://www.w3.org/1999/xlink" x="0px" y="0px"
	 viewBox="0 0 214.5 367.1" style="enable-background:new 0 0 214.5 367.1;" xml:space="preserve">
<style type="text/css">
	.st0{fill:#44A3E3;}
	.st1{opacity:5.000000e-02;}
	.st2{fill:#E8B894;}
	.st3{fill:#D1A685;}
	.st4{fill:#FFCAA3;}
	.st5{fill:#61330E;}
</style>
<g>
	<path class="st0" d="M189.1,367.1H25.5v-54.7c0-33.5,27.1-60.6,60.6-60.6h42.4c33.5,0,60.6,27.1,60.6,60.6V367.1z"/>
	<path class="st1" d="M128.5,251.8h-0.2c23.8,8.9,40.8,31.8,40.8,58.7v56.6h20v-54.7C189.1,278.9,161.9,251.8,128.5,251.8z"/>
	<path class="st2" d="M127.3,262.6L127.3,262.6c-11.9,8.8-28.1,8.8-40,0l0,0V191h40V262.6z"/>
	<path class="st3" d="M87.3,239.8c11.9,6.9,25.5,11.1,40,11.9V191h-40V239.8z"/>
	<g>
		<path class="st2" d="M195,153.7L195,153.7c-10.8,0-19.5-8.7-19.5-19.5v-8.3c0-10.8,8.7-19.5,19.5-19.5h0
			c10.8,0,19.5,8.7,19.5,19.5v8.3C214.5,145,205.8,153.7,195,153.7z"/>
		<path class="st2" d="M19.5,153.7L19.5,153.7C8.7,153.7,0,145,0,134.2v-8.3c0-10.8,8.7-19.5,19.5-19.5l0,0
			c10.8,0,19.5,8.7,19.5,19.5v8.3C39,145,30.3,153.7,19.5,153.7z"/>
	</g>
	<path class="st4" d="M107.3,237.5L107.3,237.5c-48.9,0-88.6-39.7-88.6-88.6v-37.8c0-48.9,39.7-88.6,88.6-88.6h0
		c48.9,0,88.6,39.7,88.6,88.6V149C195.8,197.9,156.2,237.5,107.3,237.5z"/>
	<path class="st5" d="M177.9,30C160.1,7.1,132.3-3.5,106.9,1C81.5-3.5,53.7,7.1,35.8,30C16,55.5,9.7,90.6,17.6,124.8h8.9
		c0.6-11.6,0.7-22.4,3.5-33.5c2.8-11.1,8.2-21.6,16.2-27.3c10.2-7.3,22.9-6,34.4-3.1c5.9,1.5,11.8,3.4,17.7,4.6c0,0,5.7,1.4,8.6,1.2
		c2.9,0.2,8.6-1.2,8.6-1.2c5.9-1.2,11.8-3.1,17.7-4.6c11.5-3,24.2-4.3,34.4,3.1c8,5.8,13.4,16.3,16.2,27.3c2.8,11.1,3,21.9,3.5,33.5
		h8.9C204.1,90.6,197.8,55.5,177.9,30z"/>
	<path class="st5" d="M139,221.7c-3.5-7.6-0.6-16.9-3.4-24.9c-2.1-5.8-7.2-10.2-12.8-12.8c-4.4-2-9.1-3.1-13.8-4c0,0-1.4-0.5-2-0.4
		c-0.7-0.1-2,0.4-2,0.4c-4.8,0.9-9.5,2-13.8,4c-5.6,2.6-10.7,6.9-12.8,12.8c-2.9,7.9,0.1,17.2-3.4,24.9c-1.3,2.9-3.6,5.3-6.3,6.9
		c11.7,5.7,24.9,9,38.9,9h0c13.8,0,26.8-3.2,38.5-8.8C142.9,227.2,140.4,224.7,139,221.7z M118.4,224.4c-3.1,2.8-7.3,4.4-11.5,4.6
		c-4.2-0.2-8.4-1.8-11.5-4.6c-4.6-4.1-6.8-10.6-5.9-16.6c0.9-5.8,4.6-10.8,9.2-14.4c0,0,0,0,0.1-0.1c4.7-3.6,11.4-3.6,16.1,0
		c0,0,0,0,0.1,0.1c4.6,3.6,8.3,8.6,9.2,14.4C125.2,213.8,122.9,220.3,118.4,224.4z"/>
</g>
</svg>
