<?xml version="1.0" encoding="utf-8"?>
<!-- Generator: Adobe Illustrator 22.1.0, SVG Export Plug-In . SVG Version: 6.00 Build 0)  -->
<svg version="1.1" id="圖層_1" xmlns="http://www.w3.org/2000/svg" xmlns:xlink="http://www.w3.org/1999/xlink" x="0px" y="0px"
	 viewBox="0 0 215.8 383.2" style="enable-background:new 0 0 215.8 383.2;" xml:space="preserve">
<style type="text/css">
	.st0{fill:#E36E4B;}
	.st1{opacity:5.000000e-02;}
	.st2{fill:#E8B894;}
	.st3{fill:#D1A685;}
	.st4{fill:#FFCAA3;}
	.st5{fill:#9D5300;}
</style>
<g>
	<path class="st0" d="M190.4,383.2H26.7v-54.7c0-33.5,27.1-60.6,60.6-60.6h42.4c33.5,0,60.6,27.1,60.6,60.6V383.2z"/>
	<path class="st1" d="M129.8,267.9h-0.2c23.8,8.9,40.8,31.8,40.8,58.7v56.6h20v-54.7C190.4,295,163.2,267.9,129.8,267.9z"/>
	<path class="st2" d="M128.6,278.7L128.6,278.7c-11.9,8.8-28.1,8.8-40,0l0,0v-71.6h40V278.7z"/>
	<path class="st3" d="M88.5,255.9c11.9,6.9,25.5,11.1,40,11.9v-60.6h-40V255.9z"/>
	<g>
		<path class="st2" d="M196.3,169.8L196.3,169.8c-10.8,0-19.5-8.7-19.5-19.5V142c0-10.8,8.7-19.5,19.5-19.5h0
			c10.8,0,19.5,8.7,19.5,19.5v8.3C215.8,161.1,207.1,169.8,196.3,169.8z"/>
		<path class="st2" d="M20.8,169.8L20.8,169.8c-10.8,0-19.5-8.7-19.5-19.5V142c0-10.8,8.7-19.5,19.5-19.5h0
			c10.8,0,19.5,8.7,19.5,19.5v8.3C40.3,161.1,31.6,169.8,20.8,169.8z"/>
	</g>
	<path class="st4" d="M108.5,253.7L108.5,253.7C59.6,253.7,20,214,20,165.1v-37.8c0-48.9,39.7-88.6,88.6-88.6h0
		c48.9,0,88.6,39.7,88.6,88.6v37.8C197.1,214,157.5,253.7,108.5,253.7z"/>
	<path class="st5" d="M17.5,145.4c5-6.5,10.3-13.4,15.2-19.9c44.7,6.9,92.3-7.8,125.4-38.7c2.5,16.7,13.8,32.5,29.9,37.6
		c3.9,5.7,7,12.6,8.4,19.3c4.3-31.4,3.4-62.7-8-92.2c-3.9-10.2-9-20.3-17.2-27.4c-8.2-7.1-20.3-10.7-30.4-6.5
		C121.3,7.4,95.8-1.1,73.9,0.1C51.9,1.4,30,11,16.4,28.3C3.8,44.4-0.7,65.7,0.1,86.2S12,125.6,17.5,145.4z"/>
	<path class="st5" d="M111.6,203.5c0-0.1-0.1-0.2-0.1-0.3c-1.2,0-2.3,0.1-3.5,0.1c-1.2,0-2.3-0.1-3.5-0.1c0,0.1-0.1,0.2-0.1,0.3
		c-14.2,0.8-28.4,3.4-42,7.8c10.3,8.7,24.1,12,37.3,9.2c2.9-0.6,5.8-1.6,8.2-3.3c2.4,1.7,5.3,2.7,8.2,3.3c13.2,2.9,27-0.5,37.3-9.2
		C140,206.9,125.8,204.3,111.6,203.5z"/>
</g>
</svg>
