<?xml version="1.0" encoding="utf-8"?>
<!-- Generator: Adobe Illustrator 22.1.0, SVG Export Plug-In . SVG Version: 6.00 Build 0)  -->
<svg version="1.1" id="圖層_1" xmlns="http://www.w3.org/2000/svg" xmlns:xlink="http://www.w3.org/1999/xlink" x="0px" y="0px"
	 viewBox="0 0 561.3 444.6" style="enable-background:new 0 0 561.3 444.6;" xml:space="preserve">
<style type="text/css">
	.st0{fill:#333333;}
	.st1{filter:url(#Adobe_OpacityMaskFilter);}
	.st2{filter:url(#Adobe_OpacityMaskFilter_1_);}
	.st3{mask:url(#XMLID_2_);fill:url(#XMLID_3_);}
	.st4{opacity:0.2;fill:url(#XMLID_4_);}
	.st5{filter:url(#Adobe_OpacityMaskFilter_2_);}
	.st6{filter:url(#Adobe_OpacityMaskFilter_3_);}
	.st7{mask:url(#XMLID_5_);fill:url(#XMLID_6_);}
	.st8{opacity:0.2;fill:url(#XMLID_7_);}
	.st9{fill:#F3F3F3;}
	.st10{fill:#762C29;}
	.st11{fill:#F4E5D3;}
	.st12{fill:#927C6B;}
	.st13{fill:#ECDBCE;}
	.st14{fill:#303030;}
	.st15{fill:#A08675;}
	.st16{fill:#666666;}
	.st17{fill:#90A9B3;}
	.st18{fill:#66627F;}
	.st19{fill:#EFEFEF;}
	.st20{fill:#3B3B3B;}
	.st21{fill:#FFFFFF;}
	.st22{fill:#5C625E;}
	.st23{fill:#E9EEEA;}
	.st24{fill:#EE9248;}
	.st25{fill:#828282;}
	.st26{fill:#C99F32;}
	.st27{fill:#EEEAE8;}
	.st28{fill:#EBEBEB;}
</style>
<g>
	<g>
		<path class="st0" d="M214.2,348.6l-1.3,6.4h17.5l-3.5,16.4h-25.8l-0.8-4.8h18.6l1.4-6.7h-17.8l3.4-16.2h26.9l-1,4.9H214.2z"/>
		<path class="st0" d="M256.8,371.4h-25.9l5.9-27.7h26.7l-3.6,17.1H245l-1.7-4.2l-2.1,9.9h18.6L256.8,371.4z M253.3,348.7h-8.4
			l-1.5,7.1h8.4L253.3,348.7z"/>
		<path class="st0" d="M279.8,371.4l4.8-22.7h-8.8l-4.8,22.7h-9.1l5.8-27.6h9.1l-0.9,4.1l3.5-4.1h15.3l-5.8,27.6H279.8z"/>
		<path class="st0" d="M294.4,371.4l5.9-27.7h9.1l-5.9,27.7H294.4z M300.9,340.5l1.8-8.6h9.1l-1.8,8.6H300.9z"/>
		<path class="st0" d="M309.1,371.4l5.9-27.7h26.9l-5.9,27.7H309.1z M331.7,348.6H323l-3.8,17.9h8.7L331.7,348.6z"/>
		<path class="st0" d="M354.1,348.7l-4.8,22.7h-9.4l5.9-27.7h9.4l-0.9,4.1l3.7-4.1h9.1l-1.1,5H354.1z"/>
	</g>
	<g>
		<defs>
			<filter id="Adobe_OpacityMaskFilter" filterUnits="userSpaceOnUse" x="311.1" y="313" width="102.8" height="7.4">
				<feFlood  style="flood-color:white;flood-opacity:1" result="back"/>
				<feBlend  in="SourceGraphic" in2="back" mode="normal"/>
			</filter>
		</defs>
		<mask maskUnits="userSpaceOnUse" x="311.1" y="313" width="102.8" height="7.4" id="XMLID_2_">
			<g class="st1">
				<defs>
					<filter id="Adobe_OpacityMaskFilter_1_" filterUnits="userSpaceOnUse" x="311.1" y="313" width="102.8" height="7.4">
						<feFlood  style="flood-color:white;flood-opacity:1" result="back"/>
						<feBlend  in="SourceGraphic" in2="back" mode="normal"/>
					</filter>
				</defs>
				<mask maskUnits="userSpaceOnUse" x="311.1" y="313" width="102.8" height="7.4" id="XMLID_2_">
					<g class="st2">
					</g>
				</mask>
				
					<linearGradient id="XMLID_3_" gradientUnits="userSpaceOnUse" x1="-449.9482" y1="2651.7102" x2="-396.3521" y2="2651.7102" gradientTransform="matrix(1.9191 5.210000e-02 2.720000e-02 -0.9996 1102.4963 2989.2969)">
					<stop  offset="0" style="stop-color:#FFFFFF"/>
					<stop  offset="1" style="stop-color:#000000"/>
				</linearGradient>
				<path id="XMLID_12_" class="st3" d="M412.1,316.8c2,0.7,2.6,1.6,0.9,2.8c-1.4,0.9-5.3,0.4-7.1,0.5c-8.5,0.2-16.9,0.4-25.4,0.4
					c-17.1,0-34.2-0.7-51.2-2c-2.5-0.2-20.8-1-17.8-4.3c1.5-1.7,8.8-0.6,11.5-0.6c5.9,0,11.7,0,17.6,0.1c11.7,0,23.4,0.1,35.2,0.1
					C378.3,313.5,404.8,314,412.1,316.8z"/>
			</g>
		</mask>
		
			<linearGradient id="XMLID_4_" gradientUnits="userSpaceOnUse" x1="-449.9482" y1="2651.7102" x2="-396.3521" y2="2651.7102" gradientTransform="matrix(1.9191 5.210000e-02 2.720000e-02 -0.9996 1102.4963 2989.2969)">
			<stop  offset="0" style="stop-color:#000000"/>
			<stop  offset="1" style="stop-color:#000000"/>
		</linearGradient>
		<path id="XMLID_2681_" class="st4" d="M412.1,316.8c2,0.7,2.6,1.6,0.9,2.8c-1.4,0.9-5.3,0.4-7.1,0.5c-8.5,0.2-16.9,0.4-25.4,0.4
			c-17.1,0-34.2-0.7-51.2-2c-2.5-0.2-20.8-1-17.8-4.3c1.5-1.7,8.8-0.6,11.5-0.6c5.9,0,11.7,0,17.6,0.1c11.7,0,23.4,0.1,35.2,0.1
			C378.3,313.5,404.8,314,412.1,316.8z"/>
		<defs>
			<filter id="Adobe_OpacityMaskFilter_2_" filterUnits="userSpaceOnUse" x="188.3" y="316.3" width="79.8" height="5.8">
				<feFlood  style="flood-color:white;flood-opacity:1" result="back"/>
				<feBlend  in="SourceGraphic" in2="back" mode="normal"/>
			</filter>
		</defs>
		<mask maskUnits="userSpaceOnUse" x="188.3" y="316.3" width="79.8" height="5.8" id="XMLID_5_">
			<g class="st5">
				<defs>
					<filter id="Adobe_OpacityMaskFilter_3_" filterUnits="userSpaceOnUse" x="188.3" y="316.3" width="79.8" height="5.8">
						<feFlood  style="flood-color:white;flood-opacity:1" result="back"/>
						<feBlend  in="SourceGraphic" in2="back" mode="normal"/>
					</filter>
				</defs>
				<mask maskUnits="userSpaceOnUse" x="188.3" y="316.3" width="79.8" height="5.8" id="XMLID_5_">
					<g class="st6">
					</g>
				</mask>
				
					<linearGradient id="XMLID_6_" gradientUnits="userSpaceOnUse" x1="913.4245" y1="309.859" x2="955.0262" y2="309.859" gradientTransform="matrix(1.919 -5.460000e-02 2.840000e-02 0.9996 -1573.4066 60.5049)">
					<stop  offset="0" style="stop-color:#FFFFFF"/>
					<stop  offset="1" style="stop-color:#000000"/>
				</linearGradient>
				<path id="XMLID_9_" class="st7" d="M266.6,319.1c1.5-0.6,2-1.3,0.7-2.1c-1.1-0.7-4.1-0.3-5.5-0.4c-6.6-0.2-13.1-0.3-19.7-0.3
					c-13.2,0-26.5,0.6-39.7,1.6c-2,0.2-16.1,0.8-13.8,3.4c1.2,1.3,6.8,0.5,8.9,0.5c4.5,0,9.1,0,13.6-0.1c9.1,0,18.2-0.1,27.3-0.1
					C240.4,321.6,260.9,321.2,266.6,319.1z"/>
			</g>
		</mask>
		
			<linearGradient id="XMLID_7_" gradientUnits="userSpaceOnUse" x1="913.4245" y1="309.859" x2="955.0262" y2="309.859" gradientTransform="matrix(1.919 -5.460000e-02 2.840000e-02 0.9996 -1573.4066 60.5049)">
			<stop  offset="0" style="stop-color:#000000"/>
			<stop  offset="1" style="stop-color:#000000"/>
		</linearGradient>
		<path id="XMLID_2680_" class="st8" d="M266.6,319.1c1.5-0.6,2-1.3,0.7-2.1c-1.1-0.7-4.1-0.3-5.5-0.4c-6.6-0.2-13.1-0.3-19.7-0.3
			c-13.2,0-26.5,0.6-39.7,1.6c-2,0.2-16.1,0.8-13.8,3.4c1.2,1.3,6.8,0.5,8.9,0.5c4.5,0,9.1,0,13.6-0.1c9.1,0,18.2-0.1,27.3-0.1
			C240.4,321.6,260.9,321.2,266.6,319.1z"/>
		<g>
			<path class="st9" d="M272.6,106.2c-11.5,7.3-24.8-11.7-31.3-19.7c-6.2-7.7-13-15.3-22.5-18.1c-0.8-0.2-1.1,1-0.3,1.3
				c13,4.2,20.2,16.8,29.2,26.7c5.6,6.2,16.8,16.9,25.2,10.4C273.3,106.6,273,106,272.6,106.2z"/>
			<path class="st10" d="M334.3,311.3c0.1,0.5,0.2,1,0,1.4c-0.1,0.4-0.4,0.7-0.7,1c-1.6,1.4-3.8,1.5-5.8,1.6
				c-2.8,0.1-5.5,0.1-8.3,0.2c-0.6,0-1.3,0-1.8-0.4c-0.9-0.8-0.5-2.4,0.4-3.1c0.9-0.7,2.1-0.8,3.2-0.9c1.8-0.1,3.6-0.3,5.4-0.6
				c0.8-0.1,1.5-0.3,2.2-0.7c0.7-0.4,1.1-1.3,1-2.1c0,0.2,3.3-0.3,3.6,0C334,308.2,334.1,310.5,334.3,311.3z"/>
			<path class="st10" d="M374.2,309.5c-0.3,2.4-1.3,4.5-1.9,6.8c-0.2,0.8-0.2,1.7,0.3,2.2c0.3,0.3,0.8,0.3,1.2,0.4
				c0.6,0,1.2,0,1.9,0c0.2,0,0.4,0,0.6-0.2c0.2-0.1,0.2-0.4,0.3-0.6c0.8-2.8,1.5-5.6,2.3-8.4c0.2-0.6,0.3-1.2,0.3-1.9
				c0-0.7-0.3-1.3-0.5-2c-0.5-1.2-1-2.5-1.4-3.7c-0.1-0.2-0.2-0.4-0.3-0.5c-0.2-0.1-0.4,0-0.5,0.1c-1.1,0.5-3.4,1-3,2.7
				c0.2,0.8,0.7,1.5,0.8,2.4C374.3,307.8,374.3,308.6,374.2,309.5z"/>
			<path class="st11" d="M194.1,305.9c-2.6,0.3-5.4-0.5-7.6-2.3c3.4-10.7,4.4-13.8,7.9-24.5c1.1-3.4,2.2-6.8,2.8-10.3
				c0.7-4.4,0.7-9,0.7-13.5c-0.2-17.5,0.4-75.4,0.2-93c0-1.5,0-3,0.4-4.3c1.3-3.8,10.7-3.1,14.1-3c0.7,0,6.3,0.8,6.9,1.4
				c0.7,0.7,6.2,0.3,6.3,1.3c0.7,13.8-7.4,41.5-8.5,56c-0.4,4.8-4.1,35.5-4.7,40.3c-1.1,8.4-3.9,17.1-7.3,24.4
				C200,289.9,199.2,292.6,194.1,305.9z"/>
			<path class="st12" d="M225.2,91.5c3.1,1.6,5.3,4.7,7.4,7.6c5,7.1,10.1,14.3,15.1,21.4c1.4,2,3,4.2,5.2,5.1
				c2.7,1.1,5.6,0.3,8.4-0.5c5.5-1.6,4.4-2,9.9-3.6c0.4-0.1,0.9-0.2,1.2,0c0.2,0.2,0.3,0.5,0.4,0.7c0.6,1.7,1.7,5.7,0.7,7.2
				c-0.7,1.1-2,1.5-3.2,1.8c-9.3,2.5-12.2,3.7-21.8,4.5c-1.4,0.1-2.3-0.8-4.9-2.3c-1.1-0.6-2.1-1.4-2.9-2.4
				c-5.3-5.7-10.2-11.9-14.5-18.5c-2.1-3.2-4.1-6.6-6-10c-1.4-2.5-3.8-6.2-3.1-9.3C217.8,89.5,222.8,90.2,225.2,91.5z"/>
			<path class="st13" d="M218.8,68c-0.3-4.8-2.2-9.3-4.2-13.6c-1.6-3.5-3.3-7.1-6.2-9.4c-0.6-0.5-1.2-0.9-1.9-1
				c-0.6-0.1-1.2,0.1-1.8,0.4c-5.5,1.9-11.1,3.9-15.9,7.3c-0.4,0.3-0.7,0.5-0.9,1c-0.1,0.4-0.1,0.8,0,1.2c2.2,12,7,27.9,18.2,30.9
				c5.4-2.8,4.4-0.7,10-3C214.8,78.6,219,71.5,218.8,68z"/>
			<path class="st14" d="M241.1,316.5c-0.6-0.6-1.3-0.9-2.1-1.3c-2.6-1.1-5-2.6-7.2-4.4c-2.9-0.5-5.8-0.7-8.7-0.4
				c-1.1,1.9-1.5,4.3-0.9,6.5c0.1,0.3,0.2,0.5,0.3,0.7c0.2,0.2,0.6,0.3,0.9,0.4c5.3,1,10.7,1.5,16.1,1.5c0.7,0,1.5-0.1,1.9-0.7
				C241.8,318.2,241.6,317.2,241.1,316.5z"/>
			<path class="st14" d="M199.9,315.5c-0.3-0.8-0.9-1.4-1.5-2c-2-2-3.7-4.3-5.1-6.8c-2.4-1.6-5.1-2.8-7.8-3.7
				c-1.7,1.3-2.8,3.3-3,5.5c0,0.3,0,0.6,0.1,0.8c0.1,0.3,0.4,0.5,0.7,0.7c4.5,3,9.2,5.5,14.1,7.5c0.6,0.3,1.4,0.5,2,0.2
				C200,317.4,200.2,316.3,199.9,315.5z"/>
			<path class="st11" d="M240.6,188.3c0-1.4,0-2.8,0-4.3h0c0,0,0,0,0,0c-0.2-6.6-1-13.2-1.8-19.7c-0.5-4.1-1-8.3-2.9-11.7
				c-4.5,3.4-9.6,5.5-14.9,6.2c0,0.1-0.1,0.2-0.1,0.3c-0.3,0.8-0.5,1.7-0.6,2.6c1,11.5-1.1,24.7-1.1,34.6c0,6.3-0.5,12.4-1.2,18.5
				c0.1,0,0.3,0,0.4-0.1c2,9,2.3,18.6,2.6,28.1c0.6,22.5,1.2,45,1.8,67.5c0,2.3,7.5,0.3,8,0.1c0-0.5,0.1-0.9,0.1-1.4
				c0.8-11.6,0.8-23.5,1.7-35c0.9-10.8,1.2-22.5,3.2-33.1c0.8-4.3,0.9-7.9,0.9-12.3c0.1-5.4,0.7-10.7,1.3-16
				C239.1,204.7,240.5,196.5,240.6,188.3z"/>
			<path class="st15" d="M245.1,234.5c0-7.1-0.8-14.2-1.3-21.3c-0.5-7.1,1.1-25-0.1-32c-2.8-16.8-6.2-15.5-4.5-23.6
				c4.8-23-9.4-54.1-22.9-69.2c-3.9,1.3-8,1.5-12.2,1.5c-0.1,0.3-0.2,0.6-0.2,1c-3.8,21.4-5.3,61-5.8,69c-1,15.7-6,25.4-8,40.1
				c-0.6,4.6-1.5,9.4-2.2,14.2c-1.4,5-3.4,10.5-3.9,16c-0.3,0.7-0.6,1.5-0.7,2.4c-1.7,2.8-1.4,7.3,1.4,9c0.6,0.4,1.2,0.5,1.8,0.4
				c0.1,0,0.2,0.1,0.3,0.2c9.9,4.6,20.6,7.7,31.1,7.1c0.6,0,1.2-0.2,1.8-0.4c3,0.3,6.1,0.4,9.2,0.5c3.9,0.1,9,1.3,12.5-1.3
				c2.1-1.6,2.7-4.9,2.4-7.9C244.6,238.7,245.1,236.8,245.1,234.5z"/>
			<path class="st12" d="M216.6,122c-5.8,3.5-21,12.7-27.9,11.9c6.9-7.4,13.3-15.9,16.6-20.5c3.8-5.3,2.6-13.9,1.5-20
				c-0.7-4-4.8-3.8-6.8-1.4c-1.2,0.1-2.3,0.9-2.9,2.5c-6.6,16.3-19.2,30.5-22.2,48.4c-0.4,2.4,0.6,5.7,3.3,6.2
				c16.3,2.8,27.6-15.6,41-22.2C224.5,124.2,218.7,120.7,216.6,122z"/>
			<path class="st13" d="M222,111.9c-0.3-1.3-0.9-2.5-2.2-3.2c-0.7-0.4-1.7,0.2-1.8,1.1c-0.1,2.1-0.2,4.2-0.3,6.2
				c-0.2-0.1-0.4-0.2-0.5-0.3c-1-0.7-2,0.8-1.7,1.8c0.6,1.8,1.6,2.8,2.6,4.2c0.5,0.7,1.1,0.8,1.6,0.5c0.5,0.5,1.4,0.6,1.9-0.1
				c0.3-0.4,0.3-0.8,0.3-1.1C222.8,117.8,223.4,114.6,222,111.9z"/>
			<g>
				<path class="st16" d="M225.4,33.7c-1.7,0.8-3.4,1.5-5.2,2c-0.7,0.2-0.4,1.3,0.3,1.2c1.8-0.3,3.7-0.6,5.4-1.1
					C227.3,35.5,226.6,33.2,225.4,33.7z"/>
				<path class="st16" d="M211.8,24.3c-0.4-0.9-1.9-0.5-1.8,0.5c0.1,0.9,0.4,1.7,0.7,2.5c0.3,0.9,0.5,1.9,1,2.6
					c0.3,0.4,0.9,0.4,1-0.2c0.1-0.9-0.1-1.8-0.3-2.6C212.3,26.2,212.2,25.2,211.8,24.3z"/>
				<path class="st16" d="M219.1,25.3c-0.6,0.8-1.1,1.8-1.5,2.8c-0.4,0.9-0.9,1.7-0.9,2.7c0,0.5,0.5,0.7,0.8,0.5
					c0.7-0.5,1.1-1.2,1.5-1.9c0.6-0.9,1.3-1.8,1.7-2.9C221.1,25.5,219.9,24.3,219.1,25.3z"/>
			</g>
			<path class="st14" d="M315.1,186.9c0-0.8,4.9-0.4,5.2,0.3c4,0.1,7.9,0.3,11.9,0.4c0.9,0,1.9,0.1,2.6,0.9c0.9,1.1,6.1,3.2,6,5
				c-0.6,34.1-6.2,80.6-6.7,114.7c-1.6,0-3.3,0-4.9,0c0-10.9-4.3-21.6-5.8-32.3C319.9,251.1,314.8,212.2,315.1,186.9z"/>
			<path class="st14" d="M346.4,183.2c0.4-0.7,1.1-0.8,1.7-1c2.8-0.6,4.3,0.7,5.8,4.2c0.5,1.2,1.9,3.2,2.8,2.6
				c25.5-19.2,3.1,45.6,4.7,62.1c0.4,4.3,0.8,8.6,1.8,12.6c0.8,3.3,2.1,6.4,3.3,9.4c3.9,9.6,7.7,19.2,11.6,28.8
				c-1.7,2-3.9,3.1-6.1,3.1c-2-5.3-4.9-6.5-17.5-23.2c-4.2-5.6-8.7-18.6-10.4-26.4c-1-4.4-1.9-37.2-2.2-41.8
				c-0.8-13.1-1-16.9-1.7-30C340.1,182.5,346,184,346.4,183.2z"/>
			<g id="XMLID_2677_">
				<path class="st13" d="M388.1,11.4c-0.4-2.3-1.3-4.7-0.7-7c0.2,0.1,0.4,0.1,0.7,0.2c0.1,0.5,0.3,0.9,0.4,1.4
					c0-1.2,0.1-2.4,0.4-3.6c0.3-1.1,0.8-2.4,1.7-2.3c0.8,0.1,1.3,1.4,1.5,2.5c1,5.2,0.5,10.7,0.1,16.1c-1.4,0.1-2.7-0.1-4.1-0.6
					C388.5,15.8,388.5,13.5,388.1,11.4z"/>
				<g id="XMLID_2678_">
					<path id="XMLID_2679_" class="st13" d="M363,102.5c-6.1,4.2-14.2-20.2-6.5-25.2c7-4.5,18.7-5,24.9-12c3-3.3,4.8-8.2,5.2-13.9
						c0.7-11.5,1.1-23,1.4-34.5c1.7-0.1,3.5-0.2,5.2-0.3c1,14.3,1.9,28.5,2.9,42.8c0.2,2.7,0.4,5.6-0.2,8.3
						c-0.5,2.6-1.7,4.8-2.9,6.8C385.1,87.5,372.7,95.8,363,102.5z"/>
				</g>
			</g>
			<g id="XMLID_2676_">
				<path class="st13" d="M290.3,19.3c0.2-0.2,0.4-0.2,0.6-0.1c-0.1-0.9,0.5-1.8,1.2-1.9c0.7-0.1,1.3,0.5,1.7,1.3
					c0.4,0.8,0.6,1.7,0.8,2.6c0.3,1.2,0.5,2.3,0.8,3.5c0.3-0.3,0.5-0.8,0.5-1.3c0.2-0.2,0.6,0,0.7,0.3c0.2,0.3,0.2,0.7,0.2,1.1
					c0.3,2.3,0.5,4.7,0.8,7c-0.6,0.4-1.2,0.9-1.9,1.2c-0.7,0.3-1.4,0.3-2-0.2c-0.8-0.7-1-2.1-1.3-3.4c-0.3-1.5-0.7-2.9-1.2-4.3
					C290.7,23.2,289.9,21.2,290.3,19.3z"/>
				<path class="st13" d="M297.7,31.1c1.8,10,3.7,20,5.8,29.9c1,5,3.3,8.7,6.3,10.9c6.3,4.5,13,5.4,19.6,7.6
					c7.3,2.4,5.8,12.8,0,14.4c-9.4,2.5-19.8-1.6-28.3-11c-1.3-1.4-2.6-3-3.4-5.2c-0.8-2.2-1-4.8-1.3-7.2
					c-1.1-12.7-2.1-25.5-3.2-38.2C294.7,31.8,296.2,31.5,297.7,31.1z"/>
			</g>
			<path id="XMLID_2675_" class="st17" d="M312.7,95.5c2.8,3.3,5.8,6.6,8.8,9.6c-3.8,32.7-8.2,48.2-8.9,81.3
				c-0.1,5.7,3.4,9.7,7.1,10c6.9,0.5,13.9,0.4,20.8-0.7c3.5-0.5,7.1-1.2,10.6-2.1c1.2-0.3,2.4-0.7,3.4-1.1c0.1,0,0.2,0,0.3,0
				c5.7-0.5,11.1-1.5,16.7-3.1c4.8-1.3,4.4-9.8,1.1-12.8c0-1.8-0.4-3.7-1-5.4c0.6-18.9,2.3-20,0.4-38.6c-0.1-2.2-0.2-4.4-0.3-6.6
				c-0.5-6.3-1.4-12.5-2.6-18.6c1.5-2.2,3.1-4.2,4.6-6.4c1.7-2.5,3.6-4.1,5.5-6.3c0.4-0.5,0.7-1,1-1.6c0,0,13.5-17.6,16.9-24.5
				c3.4-6.9-3.1-53.3-3.1-53.3l-6.8,0.6l-0.9,7.3c0,0-1.5,22.9-3.4,33.8c-1.9,11-15,13.8-15,13.8c-0.8,0.2-1.7,0.4-2.5,0.6
				c-1.7,0.4-3.4,0.6-5.1,0.7c-0.5,0-1,0-1.5,0.1c-7.8,3.4-16.1,4.3-24.1,1.8c-0.2,0.4-0.5,0.8-0.7,1.2c-0.5-0.2-1.2-0.3-1.8-0.2
				c-2.3,0.3-4.7,0.3-7.1,0.1c-1.3-0.4-2.6-0.8-3.8-1.2c-1.5-0.5-3.6-0.4-5-1.4c0,0-8-2.5-10.5-10.9c-2.5-8.4-6.9-30.4-6.9-30.4
				l-6.5,1.3l3.5,41.3C295.7,73.7,293.8,78.1,312.7,95.5z"/>
			<path class="st18" d="M322.3,99.8c-0.9,1.2-1.9,2.4-2.6,3.9c-0.5,1-0.7,2.2-0.9,3.3c-1.1,6-1.8,12.1-2.5,18.2
				c-1.2,11-2.5,22-3.7,33c-0.9,8-1.8,16.3-0.2,24.2c0.1,0.6,0.3,1.3,0.8,1.7c0.5,0.5,1.3,0.5,1.9,0.4c10.3-0.6,20.6-1.2,30.9-1.8
				c6.5-0.4,13.1-0.8,19.4-2.6c3-0.9,6.3-2.4,7.6-5.6c0.7-1.7,0.8-3.5,0.9-5.4c0.2-6.1,0.5-12.2,0.7-18.3c0.4-9.2,0.7-18.5-0.4-27.7
				c-0.8-6.3-2.2-12.5-3.7-18.7c-0.2-1-0.5-2-1.1-2.9c-0.5-0.8-1.2-1.3-1.9-1.8c-7-5.4-12.4-13.7-14.8-23c-0.2-0.7-0.4-1.5-0.8-2.1
				c-1.3-2-4-1.3-6.1-0.5c0,3.4-2.4,6.7-5.4,7.2c-3.2,0.6-5.8-1.7-7.1-4.8c-1.6-3.7-3.5-2.7-4.3,1.2
				C327.6,85.8,327.1,93.2,322.3,99.8z"/>
			<g>
				<path class="st19" d="M211.2,93.4c-0.4,0-0.7,0.2-0.9,0.4c0-0.5-0.3-1-0.9-1c0,0,0,0-0.1,0c0.2-0.7-0.2-1.7-1.1-1.7
					c-0.1,0-0.2,0-0.2,0.1c0.2-0.6-0.1-1.3-0.9-1.4c0,0,0,0-0.1,0c0,0,0,0,0,0c0.1-0.8-0.2-1.6-1.2-1.6c-1.6,0-1.6,2.7,0,2.7
					c0.1,0,0.2,0,0.2-0.1c0,0.6,0.3,1.2,1,1.1c0,0,0,0,0.1,0c0,0,0.1,0,0.1,0c-0.3,0.8,0,1.9,1,1.9c0.1,0,0.2,0,0.3-0.1
					c0,0.5,0.3,1,0.9,1c0.3,0,0.5-0.1,0.6-0.3c-0.1,0.8,0.3,1.6,1.2,1.6C212.8,96.2,212.8,93.4,211.2,93.4z"/>
				<path class="st19" d="M217.3,93c-0.7,0-1.1,0.6-1.1,1.2c-0.1,0-0.2-0.1-0.4-0.1c-0.6,0-0.9,0.3-1.2,0.7c-0.2-0.3-0.5-0.6-1-0.6
					c-1.7,0-1.7,2.9,0,2.9c0.5,0,0.8-0.3,1-0.6c0.2,0.4,0.6,0.7,1.2,0.7c1,0,1.5-0.9,1.3-1.8c0,0,0.1,0,0.1,0
					C218.7,95.4,218.7,93,217.3,93z"/>
				<path class="st19" d="M217.3,92.8c1,0,1-1.7,0-1.7C216.3,91.2,216.3,92.8,217.3,92.8z"/>
				<path class="st19" d="M216.4,88.7c-0.9,0.5-0.8,2.4,0.5,2.4c1.5,0,1.5-2.4,0.1-2.5c0.9-0.5,0.8-2.4-0.5-2.4
					C215.1,86.2,215.1,88.6,216.4,88.7z"/>
			</g>
			<path class="st13" d="M277.6,120.1c0.3-0.1,0.8-0.2,1,0c0.1,0.1,0.2,0.3,0.3,0.4c0.4,0.5,1.1,0.3,1.6,0.1
				c0.9-0.3,1.8-0.5,2.7-0.5c0.4,0,0.7,0,1.1,0.2c0.7,0.3,1,1.2,1.2,1.9c0.3,1,0.5,2.2,0,3.1c-0.4,0.8-1.3,1.1-2,1.4
				c-2.8,0.9-5.7,1.3-8.6,1.7c-0.4,0.1-0.8,0.1-1.1-0.2c-0.2-0.1-0.3-0.4-0.4-0.6c-0.5-1.2-1.6-3.7-0.5-4.8
				C274.2,121.7,276,120.8,277.6,120.1z"/>
			<path class="st9" d="M327.7,75.3c-5.9,10.1-19.2,17-29.6,19.8c-5.2,1.4-10.6,1.4-15.6,3.6c-4.1,1.8-7.5,4.7-10.4,8.4
				c-0.3,0.3,0.2,0.9,0.5,0.5c4.7-5.6,10.4-8.7,17.3-9.8c5.6-0.9,10.9-1.8,16.2-4.1c8.4-3.7,18-9.1,22.7-17.7
				C329.2,75.2,328.2,74.5,327.7,75.3z"/>
			<path id="XMLID_2674_" class="st13" d="M346.6,45.1c1.6,3.8,2,8.4,2.3,12.8c0.3,5.5,0.6,11.2-0.6,16.4c-0.9,3.9-0.6,2.1-6.1,6.9
				c-5.9,0.5-1.6,0-6.9,0.6c-19.3-5.3-9.8-22.5-8.1-36.3c0.1-0.5,0.1-0.9,0.3-1.3c0.2-0.4,0.6-0.5,1-0.6c5-1.5,10.1-1.2,15.2-0.8
				c0.5,0,1.1,0.1,1.6,0.4C345.9,43.6,346.3,44.4,346.6,45.1z"/>
			<path class="st9" d="M281.9,138.1c0-0.3-0.5-0.2-0.4,0.1c0.7,7.4,1.6,15.3-0.4,22.6c-2,7.5-8.5,6.7-12.7,2.2
				c-3.2-3.5-4.7-8.2-5-13c-1-15.2,8.4-28.2,9.7-42.8c0-0.5-0.7-0.5-0.7,0c-0.3,6.2-3.1,13.2-5.1,19c-1.7,5-3.6,10-4.5,15.3
				c-1.5,8-0.7,17.3,5.3,23.1c3.5,3.4,9.9,6.1,12.8,0.6C284.8,157.3,283,146.5,281.9,138.1z"/>
			<path class="st9" d="M282.6,138.8c0-0.1-0.1-0.2-0.1-0.3c0-0.3-0.1-0.6-0.2-0.9c0-0.2,0-0.3,0-0.5c0-0.3-0.2-0.6-0.5-0.5
				c0,0-0.1-0.1-0.1-0.1c-1-0.8-1.5,0.5-1.3,1.5c0,0,0,0,0,0c0,0.5,0,0.9,0,1.4c0.1,0.6,0,1.4,0.4,1.8c0.7,0.7,1.7,0,1.8-0.9
				c0-0.3,0-0.7,0-1.1C282.7,139.1,282.7,139,282.6,138.8z"/>
			<g>
				<g>
					<path class="st20" d="M276.8,116.3c-0.2-1.4-0.4-3,0.1-4.3c0.6-1.5,1.9-1.9,3.1-2.2c1.4-0.3,2.8-0.4,4.2-0.3c0.6,0,2,0,2.5,0.5
						c0.7,0.7,0.7,2,0.8,3.2c0.5,7.2,1.2,13.1,1.3,19.7c0,0.9,0,1.9-0.5,2.5c-0.3,0.4-0.7,0.5-1.1,0.6c-2.2,0.5-9,2.3-9.4-2.4
						C277.5,127.8,277.5,122.1,276.8,116.3z"/>
					<path class="st21" d="M277.4,114.9c0-0.6,0-1.1,0.3-1.6c0.3-0.5,0.8-0.7,1.2-0.8c1.9-0.4,3.9-0.6,5.8-0.7
						c0.3,0,1.1-0.1,1.4,0.1c0.2,0.1,0.5,0.3,0.7,0.5c0.4,0.8,0.3,1.8,0.4,2.7c0.2,0.8,0,1.7,0.1,2.6c0.1,0.9,0.1,1.9,0.2,2.8
						c0.1,1.4,0.2,2.8,0.4,4.2c0.1,1,0.2,2,0.3,3c0.1,0.5,0.1,1,0,1.4c-0.2,0.6-0.6,0.8-1.1,1c-0.9,0.2-1.8,0.3-2.8,0.4
						c-1.4,0.1-2.8,0.2-4.1,0.3c-0.5,0-1.5,0.3-1.8-0.5c-0.1-0.4-0.1-1.1-0.1-1.6c0-0.6-0.1-1.3-0.1-1.9c-0.2-2.5-0.4-5-0.6-7.6
						C277.4,117.7,277.4,116.3,277.4,114.9z"/>
					<g>
						<path class="st22" d="M283.3,110.8c-0.2,0-0.3,0-0.5,0c-0.4,0-0.7,0.1-1.1,0.1c-0.2,0-0.5,0.1-0.5,0.2c0,0.1,0,0.1,0.1,0.2
							c0.3,0.2,2.2,0.1,2.3-0.3C283.6,110.9,283.4,110.8,283.3,110.8z"/>
						<path class="st22" d="M281,111c-0.1-0.1-0.2-0.1-0.2,0c-0.1,0.1-0.1,0.2-0.1,0.3c0,0.1,0,0.1,0,0.2c0.1,0.1,0.2,0.1,0.3,0
							C281,111.4,281,111.2,281,111L281,111z"/>
					</g>
					<path class="st23" d="M282.9,132.6c-0.2,0.2-0.3,0.5-0.3,0.7c0,0.1,0,0.3,0,0.4c0.1,0.3,0.3,0.6,0.5,0.8
						c0.3,0.1,0.6,0.2,0.8,0.1c0.1,0,0.1,0,0.2-0.1c0.1-0.1,0.1-0.1,0.2-0.2c0.2-0.3,0.2-0.8,0.1-1.1
						C284.1,132.5,283.3,132.1,282.9,132.6z"/>
				</g>
				<path class="st24" d="M285.2,120.8c-0.1-0.8-0.2-1.8-0.5-2.5c-0.2-0.4-0.4-0.4-0.8-0.4c-0.8,0.1-1.7,0.3-2.5,0.5
					c-0.2,0.1-0.3,0.3-0.3,0.5c0.1,0.5,0.1,1.1,0.2,1.6c0,0.2,0,0.6,0,1c-0.1,0-0.1,0-0.2,0c-0.5,0-1,0.5-0.7,1.2
					c0.2,0.5,0.6,0.5,0.9,0.3c0.9-0.1,0.9-1.6,0.8-2.9c0.7-0.1,1.4-0.2,2-0.2c0,0,0,0,0.1,0c0,0.1,0,0.3,0,0.4
					c0,0.2,0.1,0.4,0.1,0.6c0,0,0,0.1,0,0.1c-0.4,0-0.7,0.2-0.8,0.7c-0.1,0.9,1.1,1.3,1.6,0.6C285.4,121.9,285.3,121.3,285.2,120.8z
					 M282,119.6c0-0.1,0-0.3-0.1-0.4c0.3-0.1,0.5-0.1,0.8-0.2c0.2,0,0.4-0.1,0.6-0.1c0.3,0,0.5-0.1,0.6,0.1l0,0
					C283.3,119.1,282.7,119.4,282,119.6z"/>
				<g>
					<path class="st25" d="M282.6,127.2c-0.1,0-0.2,0.1-0.2,0.2c0,0,0,0,0,0.1c0,0.5,0.1,1,0.2,1.5c0,0.1,0.2,0.1,0.3,0.1
						c0.2-0.2,0.4-0.4,0.6-0.5c0.2-0.1,0.3-0.2,0.5-0.4c0.1-0.1,0-0.2-0.1-0.3C283.4,127.5,283.1,127.3,282.6,127.2z"/>
					<path class="st25" d="M280.6,127.5c0,0.5,0,1,0.1,1.6c0,0.3,0.4,0.2,0.4-0.1c-0.1-0.5-0.2-1-0.2-1.5
						C280.8,127.4,280.6,127.4,280.6,127.5z"/>
					<path class="st25" d="M279.9,127.6c0,0.6,0.2,1.2,0.3,1.8c0,0.1,0.2,0.1,0.2,0c-0.1-0.6-0.1-1.2-0.1-1.8
						C280.3,127.3,279.9,127.3,279.9,127.6z"/>
					<path class="st25" d="M286.4,127.4c0-0.2,0-0.5-0.3-0.5c-0.2,0-0.4,0.1-0.5,0.1c-0.1,0-0.3,0-0.3,0.1c-0.2,0.2-0.1,0.5,0,0.8
						c0,0,0,0,0,0c0,0.2,0,0.3,0.1,0.5c0.1,0.3,0.2,0.4,0.5,0.3c0.2,0,0.6-0.1,0.7-0.3C286.6,128.2,286.5,127.7,286.4,127.4z"/>
				</g>
			</g>
			<path class="st26" d="M236.4,159.2c0.4,0,0.8-0.1,1.2,0c1.6,0.5,1.7,3.3,1.4,5.4c-12.4,3.7-25.2,1.6-37.7-0.5
				c-2.5-0.4-7.2-3.5-3.1-6.3c3.1-2.2,8.2,0.3,11.4,0.8C218.5,159.9,227.5,160.1,236.4,159.2z"/>
			<path class="st27" d="M203.9,52.4c-1.6,0.7-3.4,0.2-5.1-0.2c0.9,1.2-0.1,3-1.4,3.7c-1.3,0.7-2.8,0.9-3.8,2
				c-1.2,1.3-1.1,3.6-0.4,5.3c0.7,1.7,1.8,3.2,2.5,4.9c1.7,4.2,0.8,10,4.2,12.7c1.4,1.1,3.5,1.9,3.3,3.7c-0.2,1.2-1.5,1.9-2.7,1.8
				c-1.2-0.1-2.2-0.8-3.3-1.3c-5.1-2.3-10.9,0.5-16.4,0.9c-2.2,0.2-4.9-0.4-5.7-2.6c-0.6-1.6,0.1-3.5-0.5-5.1
				c-1.2-3.5-7.1-3.8-7.2-7.6c0-2.7,3.2-4.1,3.9-6.7c0.9-3.6-3.6-7.1-2.1-10.4c1.2-2.6,4.9-2.3,6.7-4.5c2.2-2.6,0.9-7.8,3.9-9.1
				c0.8-0.4,1.8-0.3,2.7-0.4c2.4-0.4,4.2-2.6,6-4.4c1.8-1.8,4.3-3.5,6.6-2.6c1.2,0.5,2.1,1.5,3.3,2c1.9,0.7,3.9-0.2,5.8-0.7
				c1.9-0.5,4.4-0.3,5.3,1.6c0.4,1,0.4,2.3,1.2,2.9c0.6,0.5,1.4,0.4,2.1,0.5c2.6,0.6,3.4,4,3.7,6.8c0.1,0.5,0.1,0.9-0.1,1.3
				c-0.2,0.4-0.6,0.6-1,0.7c-2.3,0.9-4.8,0.5-7-0.5C207.1,48.6,205.5,51.7,203.9,52.4z"/>
			<path class="st22" d="M322.3,59.2c2.5,3.9,8.7-0.3,8.7-4.4c1.2,0,2.4-0.1,3.6-0.1c0,0,0,0.1,0,0.1c-0.5,3.7,2.8,6.7,6,6.6
				c2.8-0.1,7.5-2.7,6-6.3c-1.2-2.9-4.1-4.4-6.9-4.2c-2-0.4-4.1,0.9-4.8,3c-1.2,0.1-2.4,0.1-3.6,0.1c0,0,0-0.1-0.1-0.1
				c-1.9-2-5.3-1.9-7.4-0.4C322,54.6,321,57.2,322.3,59.2z M335.5,56.3c-0.6-3.1,2.5-5.4,5-4.2c0.3,0.2,0.6-0.1,0.6-0.4
				c1.4,0.3,2.8,1.1,3.8,2.3c2.4,3-0.6,5.7-3.5,6.2C338.9,60.8,336.1,59.2,335.5,56.3z M325.7,53.5c1.6-0.4,2.9,0,4.3,0.7
				c0,0,0,0,0,0c1.5,3.3-5.2,7.6-7.1,4.2C321.7,56.1,323.8,54,325.7,53.5z"/>
			<path class="st28" d="M355.1,44.7c-0.9-0.7-2.3-2.1-3.6-3.1c-0.2-0.4-0.4-0.8-0.6-1.1c-2-3.1-5.1-5.4-8.6-6
				c-3-0.5-5.1,0.5-7.8,1.4c-2.2,0.7-4.9,0.5-6.6,2.6c-1.2,1.5-2,3.3-3.5,4.3c-2.1,1.4-4.8,0.8-7.2,0.1c-0.7,1.6,0.9,3.2,2.3,4
				c3,1.6,6.3,2.2,9.6,1.9c3.1-0.3,6-1.4,9.1-1.6c3.1-0.3,6.5,0.4,8.4,3c0.1,0.2,0.2,0.4,0.3,0.6c0.1,0.8,0.2,1.7,0.4,2.5
				c0.3,1,0.7,3.8,1,4.8c1.7,5-0.5,6.8,0.9,13.7c0.7,0.3,1.7,0,2.2-0.6c0.5-0.6,0.8-1.3,1.3-1.9c0.6-0.7,1.5-1.1,2.2-1.8
				c1.3-1.5,1.1-3.9,1.5-6c0.7-3.5,3.3-6.5,3-10C359.2,48.7,357.2,46.4,355.1,44.7z"/>
			<path class="st28" d="M328,73.4c0,0.2,0,0.5,0.1,0.7c0.3,0.6,1.1,0.6,1.7,0.4c2.2-0.5,4.4-1.3,6.5-0.7c0.4,0.1,0.8,0.3,1.2,0.3
				c0.4,0,0.9-0.2,1-0.6c0.2-0.5-0.1-1-0.5-1.3c-0.4-0.3-0.9-0.3-1.4-0.3c-1.9-0.1-3.7,0-5.6,0.2C330.1,72.2,328.2,71.6,328,73.4z"
				/>
		</g>
	</g>
	<g>
		<path class="st0" d="M24.7,434.3l0.9-4.1l-3.4,4.1H0l8.7-38h34.5l-1.1,4.9H17.6l-6.4,28.2h14.7l3.1-13.4h-7.4l1.1-5h17.3
			l-5.3,23.3H24.7z"/>
		<path class="st0" d="M66.5,434.2h-9.7l0.8-3.6l-3.4,3.6H38.7l6.1-26.6h15.8l1.6,3.6l0.8-3.6h9.2l-5.1,22.2h2.7L66.5,434.2z
			 M61.9,412.1H53L49,429.9h8.9L61.9,412.1z"/>
		<path class="st0" d="M100.9,434.2l5-21.8h-5.7l-5,21.8h-9.2l5-21.8h-5.7l-5,21.8h-9.1l6.1-26.6h9.1l-0.9,3.9l3.5-3.9h12.3
			l-0.9,3.9l3.8-3.9h11.9l-6.1,26.6H100.9z"/>
		<path class="st0" d="M115.9,434.3l6.1-26.6h9.5l-6.1,26.6H115.9z M122.7,404.6l1.9-8.3h9.5l-1.9,8.3H122.7z"/>
		<path class="st0" d="M151,412.4l-5,21.9h-9.5l5-21.9h-6l1.1-4.7h6l2.6-11.3H162l-1,4.6h-7.4l-1.5,6.7h7.4l-1.1,4.7H151z"/>
		<path class="st0" d="M157.7,434.3l6.1-26.6h9.5l-6.1,26.6H157.7z M164.5,404.6l1.9-8.3h9.5l-1.9,8.3H164.5z"/>
		<path class="st0" d="M198.9,434.3H173l6.1-26.6h27.1l-1.1,4.7h-17.7l-3.9,17.1H202L198.9,434.3z"/>
		<path class="st0" d="M232.2,434.2h-9.7l0.8-3.6l-3.4,3.6h-15.7l6.1-26.6h15.8l1.6,3.6l0.8-3.6h9.2l-5.1,22.2h2.7L232.2,434.2z
			 M227.7,412.1h-8.9l-4.1,17.8h8.9L227.7,412.1z"/>
		<path class="st0" d="M256.7,434.3h-15.7l5-21.9h-5.1l1.1-4.7h5.1l2-8.8h9.5l-2,8.8h7.2l-1.1,4.7h-7.2l-4,17.3h8.2L256.7,434.3z"/>
		<path class="st0" d="M263.3,434.3l6.1-26.6h9.5l-6.1,26.6H263.3z M270.1,404.6l1.9-8.3h9.5l-1.9,8.3H270.1z"/>
		<path class="st0" d="M278.5,434.3l6.1-26.6h28l-6.1,26.6H278.5z M302.1,412.4h-9.1l-3.9,17.3h9.1L302.1,412.4z"/>
		<path class="st0" d="M329.3,434.3l5-21.9h-9.2l-5,21.9h-9.5l6.1-26.6h9.5l-0.9,3.9l3.6-3.9h15.9l-6.1,26.6H329.3z"/>
		<path class="st0" d="M374.7,401.2l-2.6,11.3h23.6l-5,21.9h-33.2l-0.6-4.9h24.7l2.8-12h-23.4l4.8-21h33.7l-1.1,4.9H374.7z"/>
		<path class="st0" d="M406.6,444.6h-13l-0.8-4.6h7.2l4-5.9l-4.9-26.4h10l2.7,14.5l9.6-14.5h9.8L406.6,444.6z"/>
		<path class="st0" d="M442.2,412.3l-1.4,6.1H459l-3.6,15.8h-26.9l-0.8-4.6h19.4l1.5-6.4h-18.5l3.6-15.6h27.9l-1.1,4.7H442.2z"/>
		<path class="st0" d="M479.3,434.3h-15.7l5-21.9h-5.1l1.1-4.7h5.1l2-8.8h9.5l-2,8.8h7.2l-1.1,4.7h-7.2l-4,17.3h8.2L479.3,434.3z"/>
		<path class="st0" d="M511.1,434.3h-26.9l6.1-26.6h27.8l-3.8,16.5h-15.5l-1.8-4l-2.2,9.5h19.4L511.1,434.3z M507.5,412.5h-8.7
			l-1.6,6.8h8.7L507.5,412.5z"/>
		<path class="st0" d="M546,434.2l5-21.8h-5.7l-5,21.8h-9.2l5-21.8h-5.7l-5,21.8h-9.1l6.1-26.6h9.1l-0.9,3.9l3.5-3.9h12.3l-0.9,3.9
			l3.8-3.9h11.9l-6.1,26.6H546z"/>
	</g>
</g>
</svg>
