<?xml version="1.0" encoding="utf-8"?>
<!-- Generator: Adobe Illustrator 22.1.0, SVG Export Plug-In . SVG Version: 6.00 Build 0)  -->
<svg version="1.1" id="圖層_1" xmlns="http://www.w3.org/2000/svg" xmlns:xlink="http://www.w3.org/1999/xlink" x="0px" y="0px"
	 viewBox="0 0 675.8 433.3" style="enable-background:new 0 0 675.8 433.3;" xml:space="preserve">
<style type="text/css">
	.st0{fill:#333333;}
	.st1{fill:#F2F2F2;}
	.st2{filter:url(#Adobe_OpacityMaskFilter);}
	.st3{filter:url(#Adobe_OpacityMaskFilter_1_);}
	.st4{mask:url(#XMLID_2_);fill:url(#XMLID_3_);}
	.st5{opacity:0.2;fill:url(#XMLID_4_);}
	.st6{filter:url(#Adobe_OpacityMaskFilter_2_);}
	.st7{filter:url(#Adobe_OpacityMaskFilter_3_);}
	.st8{mask:url(#XMLID_5_);fill:url(#XMLID_6_);}
	.st9{opacity:0.2;fill:url(#XMLID_7_);}
	.st10{fill:#F3F3F3;}
	.st11{fill:#762C29;}
	.st12{fill:#F4E5D3;}
	.st13{fill:#927C6B;}
	.st14{fill:#ECDBCE;}
	.st15{fill:#303030;}
	.st16{fill:#A08675;}
	.st17{fill:#666666;}
	.st18{fill:#90A9B3;}
	.st19{fill:#66627F;}
	.st20{fill:#EFEFEF;}
	.st21{fill:#3B3B3B;}
	.st22{fill:#FFFFFF;}
	.st23{fill:#5C625E;}
	.st24{fill:#E9EEEA;}
	.st25{fill:#EE9248;}
	.st26{fill:#828282;}
	.st27{fill:#C99F32;}
	.st28{fill:#EEEAE8;}
	.st29{fill:#EBEBEB;}
</style>
<g>
	<g>
		<path class="st0" d="M261.8,410.5l-1.3,6.4H278l-3.5,16.4h-25.8l-0.8-4.8h18.6l1.4-6.7h-17.8l3.4-16.2h26.9l-1,4.9H261.8z"/>
		<path class="st0" d="M304.4,433.3h-25.9l5.9-27.7h26.7l-3.6,17.1h-14.9l-1.7-4.2l-2.1,9.9h18.6L304.4,433.3z M300.9,410.6h-8.4
			l-1.5,7.1h8.4L300.9,410.6z"/>
		<path class="st0" d="M327.3,433.3l4.8-22.7h-8.8l-4.8,22.7h-9.1l5.8-27.6h9.1l-0.9,4.1l3.5-4.1h15.3l-5.8,27.6H327.3z"/>
		<path class="st0" d="M342,433.3l5.9-27.7h9.1l-5.9,27.7H342z M348.5,402.4l1.8-8.6h9.1l-1.8,8.6H348.5z"/>
		<path class="st0" d="M356.6,433.3l5.9-27.7h26.9l-5.9,27.7H356.6z M379.3,410.5h-8.7l-3.8,17.9h8.7L379.3,410.5z"/>
		<path class="st0" d="M401.7,410.6l-4.8,22.7h-9.4l5.9-27.7h9.4l-0.9,4.1l3.7-4.1h9.1l-1.1,5H401.7z"/>
	</g>
	<g>
		<rect x="51.4" y="184.4" class="st1" width="142.6" height="42.9"/>
		<g>
			<g>
				<path class="st0" d="M62.9,200.4v-2.2h1.5l-0.3-1.8H68l0.3,1.8h1.6v2.2H62.9z M63.3,216.5v-8.6h6.3v8.6H63.3z M63.4,203.7v-2.1
					h6.2v2.1H63.4z M63.4,206.9v-2.1h6.2v2.1H63.4z M66.8,210h-0.6v4.3h0.6V210z M76.6,207l-0.8-2h1.6v-6.2h-0.9v5.1l-2.6,3.2h-4.3
					l3.4-4.3v-4h-2.8v-2.1H81V207H76.6z M72.1,203.8H70l0.6-4.2h2.1L72.1,203.8z M71.7,216H70l0.3-7.1h1.8L71.7,216z M78,216.5h-5.5
					V208h3.3v6.5h3.1L78,216.5z M76.5,213.1l-0.5-5.7h2l0.4,5.7H76.5z M79.2,216l-0.6-7.1h2.2l0.6,7.1H79.2z"/>
				<path class="st0" d="M89.7,216.5l-1.2-3.9l-1.4,3.9h-3.9l3-8.8h-2.9v-2.2h3.2v-5h-0.4l-0.7,3.3H83l1.5-7.3h2.6l-0.4,1.8h5.5v2.2
					h-2v5h2.4v2.2h-2.4l-0.5,1.5h1.3l2.1,6.8v-19h8.4v19.5H89.7z M98,199.2h-1.5v15.1H98V199.2z"/>
				<path class="st0" d="M104,216.3V214l1.6-0.4V200h-1.4v-2.3h6.6v2.3h-1.4v12.4l1.7-0.5v2.4L104,216.3z M116.8,216.6l-0.9-2.3h2.3
					v-12.2h-1.7v10.1l-2.3,4.4h-4.2l2.7-5.3v-9.2h-1.6v-2.3h1.6v-3.4h3.8v3.4h5.5v16.8H116.8z"/>
				<path class="st0" d="M131,203.3l-0.2-1.3l-0.5,1.3h-5.5v-2.2l2.2-4.6h3.7l-2.1,4.6h2.1l-0.5-2.8h3.4l1,5H131z M129.7,216.5
					l-0.7-2.2h1.3v-1.5h-1.6v3.6H125v-12.3h8.8v12.3H129.7z M130.2,206.4h-1.6v1.1h1.6V206.4z M130.2,209.6h-1.6v1.1h1.6V209.6z
					 M142.2,205.8h-7.6v-9.3h3.7v2.5h0.8l0.4-1.1h3.3l-0.8,3.3h-3.7v2.6h4.6L142.2,205.8z M142.2,216.5h-7.5v-9.9h3.7v2.6h0.8
					l0.3-1.1h3.4l-0.7,3.2h-3.8v3.1h4.6L142.2,216.5z"/>
				<path class="st0" d="M162.1,206.3v3.2h-8.8l-2.2,2.3v2.5h4.1l-1,2.1h-7v-3.1h-2.4l3.7-3.9h-2.4v-3.2h-1.1v-2h1.1v-3.1h16v3.1h1
					v2H162.1z M145.2,200.2v-2.1h7l-0.4-1.6h4.1l0.4,1.6h6.8v2.1H145.2z M158.3,203.3H150v1h8.3V203.3z M158.3,206.3H150v1h8.3
					V206.3z M158.7,216.4l-5.7-6.3h4.6l1.1,1.2l0.5-1.2h3.9l-1.4,3.3h-1.1l2.7,3H158.7z"/>
				<path class="st0" d="M183,216.4h-11l-1.6-1.3l-0.6,1.3h-4.1l1.9-3.8v-3.1h-1.7v-2.3l1.8-3.5h-1.9v-2.2h5.5v2.6l-1.5,3.2h1.5v5.8
					l1.4,1.1H184L183,216.4z M167.4,200.8l-1.7-4.2h3.9l1.8,4.2H167.4z M175.7,206.4v5.1h2.3l-1,2.1h-4.9v-16.9h11.1v9.7H175.7z
					 M179.5,198.9h-3.8v1.7h3.8V198.9z M179.5,202.5h-3.8v1.7h3.8V202.5z M182.8,210.2h-1l1.8,3.4h-4l-3.7-6.6h4.1l0.5,1l0.3-1h3
					L182.8,210.2z"/>
			</g>
		</g>
	</g>
	<g>
		<rect x="32.7" y="112.4" class="st1" width="142.6" height="42.9"/>
		<g>
			<g>
				<path class="st0" d="M44.2,144.6v-2.3h7.1v-5.2H45v-2.3h6.2v-4.4h-2.8l-0.7,3.2h-3.9l1.7-8.2h4l-0.6,2.6h2.3v-3.6h4.1v3.6h6.6
					v2.3h-6.6v4.4h6.1v2.3h-6.1v5.2h7.1v2.3H44.2z"/>
				<path class="st0" d="M66.5,129.8l-1.8-5.2h3.9l1.8,5.2H66.5z M68.5,144.6h-3.8l1.6-8.2H70L68.5,144.6z M66.4,135.5l-1.7-4.9h3.9
					l1.6,4.9H66.4z M82,127.7h-3.7v2.6H83v2.2h-4.6v2.7h3.9v9.5H70.6v-9.5h3.9v-2.7h-4.7v-2.2h4.7v-2.6h-4v-2.1h8.1l0.5-1.1h4
					L82,127.7z M78.5,137.3h-4.1v5.1h4.1V137.3z"/>
				<path class="st0" d="M85.6,144.5v-9.6h8.3v9.6H85.6z M87.3,133.5v-8.7h14.5v8.7H87.3z M90.4,137.1h-1.2v5.3h1.2V137.1z
					 M98,126.9h-6.9v4.4H98V126.9z M94.8,144.5v-9.6h8.3v9.6H94.8z M99.6,137h-1.2v5.3h1.2V137z"/>
				<path class="st0" d="M114.4,126.9h-4.5v0.9h5v2H114v2.5h-3.3v-2.5h-0.8v0.6l-0.7,1.9h-3.8l0.8-2.4v-4.8h4.7l0.2-0.6h3.8
					L114.4,126.9z M119,144.5l-2.4-1.7h-3.3l-2.2,1.7h-5.4l2.5-1.7h-1.4v-10h16.1v10h-1.2l2.4,1.7H119z M119,134.9h-8.3v0.7h8.3
					V134.9z M119,137.5h-8.3v0.7h8.3V137.5z M119,140.1h-8.3v0.7h8.3V140.1z M123.4,126.9h-4.6v0.9h5.1v2h-1v2.5h-3.3v-2.5h-0.8v0.6
					l-0.8,1.8h-3.7l1-2.3v-4.9h4.8l0.2-0.6h3.8L123.4,126.9z"/>
				<path class="st0" d="M140.3,134.5l-1.7-1.3l-1.5,1.3h-4.1v7.5h-3.5v2.6h-3v-19.8h6.5v7.3l-1.4,1.2l1.3,0.9l3.1-2.7l-2.7-2h4.7
					l0.2,0.1l1.8-1.6h-2.5l-0.4,0.9h-3.7l1.9-4.3h3.7l-0.5,1.2h5.5v2.7l-3.3,2.9l4.3,3.1H140.3z M130.2,126.9h-0.7v5.3h0.7V126.9z
					 M130.2,134.5h-0.7v5.3h0.7V134.5z M141.4,142.2v2.3h-3.7v-2.3h-4.2v-2.1l0.5-1.4h3.1l-0.4,1.3h1v-2h-4.2v-2.2h4.2v-1h3.7v1h2.6
					v2.2h-2.6v2h3v2.2H141.4z"/>
				<path class="st0" d="M164.4,144.5h-4l-1-9.7h-3.1v7.5h1l-0.4-4.1h2.2l0.6,6.3h-2.2l-0.2-1.8l-0.7,1.8h-4v-18.6l-1.9,6.5h0.7
					v12.1h-3.7v-11h-1.2l2.6-8.9h3.8l-0.3,1h7.8l0.3-1h4.3l-0.9,3.3h-1.7l0.5,4.8h2.2v2.3h-1.9l0.8,7.5h1.4L164.4,144.5z
					 M158.7,127.8h-2.4v4.8h2.8L158.7,127.8z"/>
			</g>
		</g>
	</g>
	<g>
		<rect x="481.7" y="74.5" class="st1" width="102.9" height="42.9"/>
		<g>
			<g>
				<path class="st0" d="M504.6,106.6l-2.3-0.9l-2.3,0.9h-7.1l5.7-2.3l-1.3-0.5h-3.9l3.2-3.7h-3.2l0.8-2.2h3.6l-0.7,1.8h1v-2.5h3.5
					v1.3h5.2l-0.7,1.6h-4.9l-0.6,0.7h9.8v1.6l-4.4,1.8l6.1,2.4H504.6z M507.6,97.5v-1h-2.5l0.6,1.2h-3.4l-0.6-1.2h-4.7v1h-3.7v-2.7
					h1v-5.5h5.7l0.2-0.7h-7v-1.9h17.8v1.9h-6.8l-0.2,0.7h5.8v5.5h1.1v2.7H507.6z M506.4,90.8h-8.3v0.6h8.3V90.8z M506.4,92.5h-8.3
					v0.6h8.3V92.5z M506.4,94.2h-8.3v0.6h8.3V94.2z M499,102.4l-0.5,0.6h3.2l1.5-0.6H499z M507.7,100.1l-1.1-2.2h3.7l1.2,2.2H507.7z
					"/>
				<path class="st0" d="M514.8,93.1h-1.3l0.3-3.3h1.2L514.8,93.1z M524,90.7v1.4h0.7v-1h1v2.3H520v-2.3h1v1h0.6v-1.4h-1.7v-1.4h1.7
					v-0.9h-0.2l-0.2,0.5h-1.6v0.4h-1.4v4.3h-2.9v-4.3h-1.6v-1.7h1.6v-1.1h2.9v1.1h1.4v0.6l0.8-1.7h1.9l-0.3,0.6h3.6v1.3H524v0.9h1.8
					v1.4H524z M528.3,106.6h-4.6l3.6-3.6h-3.6v1.2h-5.9v0.8h6.4l-0.9,1.6h-8.9V102h3.4v0.8h5.6l3.3-3h-2.6v1.9h-9.7v-4.5h2.8v0.5
					h0.5l0.5,0.7l0.3-0.3l-1.1-1.2h-3.4v-2.7h17.9v3.2h-1.4l-2.1,2h3.6l-3.3,3.3h3.7L528.3,106.6z M517.6,98.6l-0.4-0.5v1.2l0.7-0.7
					H517.6z M518.5,99.7h-1.3v0.4h1.6L518.5,99.7z M519.2,96.5l-0.6-0.6h-1.1v0.4h1.1l0.7,0.8l0.6-0.6H519.2z M518.6,93.1l-0.3-3.3
					h1.2l0.3,3.3H518.6z M521.4,99.7H520l-0.8-0.8l-0.4,0.5h0.4l0.6,0.7h1.5V99.7z M528.1,95.9h-8.4l0.3,0.4h1.7l-0.3,0.3h2.6v2.5
					l2.8-2.9h1.2V95.9z M521.4,98.9l-1-1.1l-0.2,0.3l1.3,1.3V98.9z M521.4,96.7l-0.7,0.7h0.4l0.3,0.3V96.7z M527,93.1h-1.2l0.3-3.3
					h1.1L527,93.1z M530.3,89.3v4.3h-2.8v-4.3h-1.5v-1.7h1.5v-1.1h2.8v1.1h1.6v1.7H530.3z M530.9,93.1l-0.3-3.3h1.2l0.4,3.3H530.9z"
					/>
				<path class="st0" d="M549.6,88.9l-0.4,1.5h2.8v12h-8.5v-10l-0.7,2.2h-0.9v7.7h1.5l-0.6,2.1h-3.9v-16l-1.2,6.4h0.5v11.8h-3.4V96
					H534l1.7-9.4h3.6l-0.2,1.3h2.9v4.8h0.2l0.5-1.5h0.9v-0.7h1.9l0.4-1.5h-2.6v-2.1h9.3v2.1H549.6z M546.2,106.7h-3.6l1.5-3.7h3.7
					L546.2,106.7z M548.7,92.6h-1.9v1.2h1.9V92.6z M548.7,95.9h-1.9v1.2h1.9V95.9z M548.7,99.1h-1.9v1.2h1.9V99.1z M549.2,106.7
					l-1.1-3.7h3.4l1.1,3.7H549.2z"/>
				<path class="st0" d="M566.8,106.7l-1.2-2.2h3.5V91.4h-10.2v15.3h-3.7V89.1h5.5l0.8-2.5h4.3l-0.9,2.5h7.8v17.6H566.8z
					 M559.8,103.4V92.9h8.4v10.5H559.8z M564.9,95.1h-1.7v6h1.7V95.1z"/>
			</g>
		</g>
	</g>
	<g>
		<rect x="102.9" y="40.4" class="st1" width="121.6" height="42.9"/>
		<g>
			<g>
				<path class="st0" d="M114.9,72.5V54.9h5.6l0.8-2.5h4.3l-0.7,2.5h7.2v17.6H114.9z M128.2,57.1h-9.2v2.8h9.2V57.1z M128.2,62.1
					h-9.2V65h9.2V62.1z M128.2,67.2h-9.2v3.1h9.2V67.2z"/>
				<path class="st0" d="M150.8,68.7v3.8h-5.6l-0.8-1.9h2.6v-1.8h-11.9v-1.9h11.9V66h-11.2v-9.2h4.2v-0.9h-5v-2h3.1l-0.7-1.4h4.5
					l0.7,1.4h2.7l0.8-1.4h4.4l-0.8,1.4h3.2v2H148v0.9h4.1V66h-1.3v0.8h2.2v1.9H150.8z M139.3,72l-2.5-2.7h4.8l2.4,2.7H139.3z
					 M148.5,61.5h-4v-2.8h-0.9v1.5l-0.8,1.4h-3.3V62h9V61.5z M140.4,58.7h-0.9v2.6l0.9-1.7V58.7z M148.5,63.5h-9v0.7h9V63.5z
					 M144.5,55.9h-0.9v0.9h0.9V55.9z M148.5,58.7h-0.9v1.1h0.9V58.7z"/>
				<path class="st0" d="M159,70h-3.7l1.5-10.6h3.7L159,70z M170.2,72.5h-9.3V55.8h3.7v14.4h6.8L170.2,72.5z M165.7,58.5l-1.8-6h4
					l1.7,6H165.7z M169.9,69.4l-2.1-10h4l2.1,10H169.9z"/>
				<path class="st0" d="M185.4,55v17.6h-4.1V55h-5.4v-2.3h18.3V55H185.4z M190.3,69.3l-3.6-10.6h4.1l3.6,10.6H190.3z"/>
				<path class="st0" d="M210.5,62.5l-1.7-1.3l-1.5,1.3h-4.1v7.5h-3.5v2.6h-3V52.7h6.5V60l-1.4,1.2l1.3,0.9l3.1-2.7l-2.7-2h4.7
					l0.2,0.1l1.8-1.6h-2.5l-0.4,0.9h-3.7l1.9-4.3h3.7l-0.5,1.2h5.5v2.7l-3.3,2.9l4.3,3.1H210.5z M200.4,54.9h-0.7v5.3h0.7V54.9z
					 M200.4,62.5h-0.7v5.3h0.7V62.5z M211.6,70.2v2.3h-3.7v-2.3h-4.2v-2.1l0.5-1.4h3.1l-0.4,1.3h1v-2h-4.2v-2.2h4.2v-1h3.7v1h2.6V66
					h-2.6v2h3v2.2H211.6z"/>
			</g>
		</g>
	</g>
	<g>
		<rect x="498.1" y="288" class="st1" width="142.6" height="42.9"/>
		<g>
			<g>
				<g>
					<path class="st0" d="M513.1,317.6h-3.7l1.5-10.6h3.7L513.1,317.6z M524.3,320.1H515v-16.7h3.7v14.4h6.8L524.3,320.1z
						 M519.9,306.1l-1.8-6h4l1.7,6H519.9z M524,317l-2.1-10h4l2.1,10H524z"/>
					<path class="st0" d="M533.9,320.1l-0.7-1.8l-0.3,1.8h-3.1l0.6-3.5v-16.3h6.9v19.8H533.9z M534.4,312.9h-0.9v4.1l-0.1,0.8h1
						V312.9z M534.4,302.4h-0.9v3h0.9V302.4z M534.4,307.6h-0.9v3h0.9V307.6z M544.6,304.4v1.8h3.2V319h-2.6l-0.7-1.5v2.5h-3.5
						v-11.8h-0.9V319H538v-12.9h3.1v-1.8h-3.4v-2.2h3.4V300h3.5v2.1h3.7v2.2H544.6z M545.6,308.3h-0.9v8.5h0.9V308.3z"/>
					<path class="st0" d="M550.6,319.9v-2.3l1.6-0.4v-13.6h-1.4v-2.3h6.6v2.3H556v12.4l1.7-0.5v2.4L550.6,319.9z M563.5,320.2
						l-0.9-2.3h2.3v-12.2h-1.7v10.1l-2.3,4.4h-4.2l2.7-5.3v-9.2h-1.6v-2.3h1.6V300h3.8v3.4h5.5v16.8H563.5z"/>
					<path class="st0" d="M577.6,306.9l-0.2-1.3l-0.5,1.3h-5.5v-2.2l2.2-4.6h3.7l-2.1,4.6h2.1l-0.5-2.8h3.4l1,5H577.6z M576.3,320.1
						l-0.7-2.2h1.3v-1.5h-1.6v3.6h-3.7v-12.3h8.8v12.3H576.3z M576.8,309.9h-1.6v1.1h1.6V309.9z M576.8,313.2h-1.6v1.1h1.6V313.2z
						 M588.9,309.4h-7.6v-9.3h3.7v2.5h0.8l0.4-1.1h3.3l-0.8,3.3H585v2.6h4.6L588.9,309.4z M588.8,320.1h-7.5v-9.9h3.7v2.6h0.8
						l0.3-1.1h3.4l-0.7,3.2H585v3.1h4.6L588.8,320.1z"/>
					<path class="st0" d="M601.1,302.5v17.6H597v-17.6h-5.4v-2.3H610v2.3H601.1z M606,316.9l-3.6-10.6h4.1l3.6,10.6H606z"/>
					<path class="st0" d="M626.2,310l-1.7-1.3L623,310h-4.1v7.5h-3.5v2.6h-3v-19.8h6.5v7.3l-1.4,1.2l1.3,0.9l3.1-2.7l-2.7-2h4.7
						l0.2,0.1l1.8-1.6h-2.5l-0.4,0.9h-3.7l1.9-4.3h3.7l-0.5,1.2h5.5v2.7l-3.3,2.9l4.3,3.1H626.2z M616.1,302.5h-0.7v5.3h0.7V302.5z
						 M616.1,310h-0.7v5.3h0.7V310z M627.3,317.8v2.3h-3.7v-2.3h-4.2v-2.1l0.5-1.4h3.1l-0.4,1.3h1v-2h-4.2v-2.2h4.2v-1h3.7v1h2.6
						v2.2h-2.6v2h3v2.2H627.3z"/>
				</g>
			</g>
		</g>
	</g>
	<g>
		<rect x="461.8" y="214.7" class="st1" width="142.6" height="42.9"/>
		<g>
			<g>
				<g>
					<path class="st0" d="M477.4,236.6h0.9v10.2h-3.9v-9.2h-1.6l2.8-5.4H473l2.8-5.4h4l-2.4,4.7h2.7L477.4,236.6z M489,235.9v10.9
						h-7.5l-1.2-2.3h4.8v-8.7h-5.7v-2.3h12.2v2.3H489z M480.2,229.4v-2.3H491v2.3H480.2z"/>
					<path class="st0" d="M507.4,246.8l-0.2-0.4h-0.9l-0.4-6h1.5l0.2,4.3h0.5v-5.2h-9.2l-1.6,7.3h-3.7l3.4-15.4H494v-2.1h0.7
						l-0.5-2.1h2.7l0.5,2.1h0.4l0.6-2.5h3.7l-0.6,2.5h8.6v2.3l-0.5,1.8h1.4v2.3l-0.4,1.8h1.4v9.4H507.4z M500.7,246.4h-2l0.5-6h1.9
						L500.7,246.4z M500,235.5l-0.4,1.9h7l0.5-1.9H500z M500.9,231.5l-0.4,1.9h5.2l0.5-1.9H500.9z M501.7,246.4l-0.3-6h1.7l0.4,6
						H501.7z M504,246.4l-0.3-6h1.8l0.4,6H504z"/>
					<path class="st0" d="M529,246.7l-0.9-1.8l-0.6,1.8h-3.3l0.2-0.5l-10,0.6v-2l3.6-0.2v-1.1H515v-1.9h3.1v-0.9h-3.4v-7.5h3.4v-0.8
						h-3.7v-2h3.7v-0.8h-3.4v-2h6.2l0.4-0.9h3.7l-1,2.9h-2.6v0.8h3.5v2h-3.5v0.8h3.3v7.5h-3.3v0.9h3.1v1.9h-3.1v0.8l3.2-0.2v1.5
						l1.1-3.5v-9.9h-0.6v-2.2h0.6v-3.3h3v3.3h3.7v16.6H529z M518.1,235.2h-0.9v1h0.9V235.2z M518.1,238h-0.9v1h0.9V238z
						 M522.3,235.2h-0.9v1h0.9V235.2z M522.3,238h-0.9v1h0.9V238z M529.4,232.3h-0.7v11l-0.4,1.3h1.1V232.3z"/>
					<path class="st0" d="M539.9,232v14.9h-3.3V232h-1.7v-2.2h1.7v-3h3.3v3h1.5v2.2H539.9z M536.1,245.6h-1.2l0.2-12.6h1.2
						L536.1,245.6z M546,226.8v10.5h-0.8v-0.9h-3v0.9h-0.5v2.1h0.5v4.2l-0.5,1.6l-0.3-12.1h-1.2l0.3,12.6h1l-0.5,1.3h3.2l1-2.7v-2.8
						l0.6,2.4h1.4l-0.8-3.2h-1.2v-1.2h1l1.6,4l-3,3.5h2.9l1-1.2l0.5,1.2h3.5l0.7-2.2h-1.8L551,243l2.4-2.9h-2.7l-0.6,0.6l-0.5-1.3
						h3.7v-2.1h-0.7l-0.2-1h-2.6l0.2,1h-0.8v-10.5H546z M544.1,233.8h0.8v-1h0.7v2.9h-3.8v-1.6l1.2-2.3h-1.3V230l1.6-2.9h2.2
						l-1.4,2.7h1.4v1.3L544.1,233.8z M551.6,233.8h0.7v-1h0.7v2.9h-3.6V234l1.2-2.2h-1.2V230l1.4-2.9h2.2l-1.3,2.7h1.3v1.3
						L551.6,233.8z"/>
					<path class="st0" d="M556.3,231.8l-1.2-4.9h3.6l1.2,4.9H556.3z M556.4,237.5l-1.2-5h3.6l1.3,5H556.4z M559,246.8h-3.6l0.8-8.6
						h3.6L559,246.8z M573.2,246.8h-4.1l-0.2-1.8l-0.8,1.7h-2.3l0.6-1.4H564v-9.4h3.6v6.6l0.9-2.1l-0.5-5.7h-4.5v9.4l-0.8,2.7h-3.3
						l1-3.3v-14.3h7.1l-0.2-2.3h3.2l0.2,2.3h0.6l-0.2-1.9h1.9l0.3,1.9h0.4v2.1h-2.7l0.3,3.1l0.5-1.1h2.4l-2.4,5.6l0.6,5.8h1.8
						L573.2,246.8z M567.5,231.3h-4.1v1.4h4.2L567.5,231.3z M566.2,238.1h-0.6v5.1h0.6V238.1z"/>
					<path class="st0" d="M579.5,241.1h-3.9l2.8-12.3h3.8L579.5,241.1z M587,246.9h-10.1l-1.1-2.3h8.2l2.7-3h-5l-1-2.3h2.3v-12.5
						h4.1v14.4l2-2.2h5L587,246.9z M590.4,238.2l-2.8-9.4h4l2.8,9.4H590.4z"/>
				</g>
			</g>
		</g>
	</g>
	<g>
		<rect x="280.6" class="st1" width="203.4" height="42.9"/>
		<g>
			<g>
				<path class="st0" d="M293.4,26.1h-1.5l0.3-5.3h1.5L293.4,26.1z M292.4,18.3v-6H310v6H292.4z M294,32.1V18.9h3.6v13.2H294z
					 M297.1,14.5h-1.3v1.7h1.3V14.5z M299.3,32.1v-6.8h-0.9l0.2-0.9h-0.5l-0.4-3.6h1.2l0.2,1.6l1-3.6h3.5l-0.5,1.7h1.3l-0.3-1.7h3.4
					l0.5,1.7h2.3v2h-2.4v1.3h2v1.8h-2v1.3h2v1.8h-2v1.4h2.5v2H299.3z M301.8,14.5h-1.4v1.7h1.4V14.5z M304.5,22.6h-1.6v1.3h1.6V22.6
					z M304.5,25.6h-1.6v1.3h1.6V25.6z M304.5,28.7h-1.6v1.4h1.6V28.7z M306.5,14.5h-1.4v1.7h1.4V14.5z"/>
				<path class="st0" d="M316.2,32.1h-3.7l1-5.8h3.6L316.2,32.1z M323.6,24.9v0.8h2.1l0.6,3.6h-3.7l-0.6-3.3h-0.6V30h5.7l-0.7,2.1
					h-8.8v-6.4h2.3v-0.8h-6.4v-5.3h6.5v-0.9h-6v-5.3h6v-1.3h3.8v1.3h6.1v5.3h-6.1v0.9h6.6v5.3H323.6z M319.8,21.5h-2.7v1.3h2.7V21.5
					z M319.8,15.4h-2.3v1.2h2.3V15.4z M325.9,15.4h-2.3v1.2h2.3V15.4z M326.3,21.5h-2.7v1.3h2.7V21.5z M327.5,32.1l-0.9-5.9h3.6
					l0.9,5.9H327.5z"/>
				<path class="st0" d="M334.2,22.8H333l0.2-6.9h1.1L334.2,22.8z M334.8,32.1V12h3.2v20.1H334.8z M339,24.6v-3.2h-0.6l-0.1-5.5h1
					l0.1,3.7h11.7v5.1H339z M346.6,32.1l-1.4-0.9l-1.4,0.9h-5.4l4-2.5l-3-1.8h5.2l0.2,0.2l1-0.7h-6.8v-2h11.6v2.3l-3.1,2l4.1,2.5
					H346.6z M339.8,18.8v-6.5h10.5v6.5H339.8z M342.3,21.5v1.2h0.7v-1.2H342.3z M347,14.2h-3.8v0.7h3.8V14.2z M347,16.3h-3.8v0.7
					h3.8V16.3z M345.5,21.5h-0.7v1.2h0.7V21.5z M348,21.5h-0.7v1.2h0.7V21.5z"/>
				<path class="st0" d="M354.9,22.8h-1.4l0.3-6.9h1.4L354.9,22.8z M355.5,32.1v-20h3.4v20H355.5z M359.9,32.1v-2.2h4.4v-5h-3.9
					v-2.2h3.9v-4.5h-1.3l-0.4,3.5H360l0.2-2.1h-0.8l-0.2-3.7h1l0.1,2.3l0.5-4.6h2.7l-0.2,2.3h1v-3.8h3.7v3.8h3.7v2.3H368v4.5h3.3
					v2.2H368v5h3.9v2.2H359.9z"/>
				<path class="st0" d="M374.5,20.2l-0.4-6.3h1.8l0.3,6.3H374.5z M376.1,27.9h-1.8l0.2-6.8h1.8L376.1,27.9z M380,16v13.4l-1,2.7
					h-3.8l1.5-3.8V13.8h6l-0.6-1.8h4.2l0.5,1.8h5.4V16H380z M388.1,19.3v1.8h3.9v10.9h-4.2l-1-2.1h2.1v-1H387l-0.6-1.5l-0.5,1.5
					h-2.1v3.1h-3.1V21.1h4v-1.8h-4.3v-2.1h11.8v2.1H388.1z M384.8,23.3h-1v4.1l1-2.8V23.3z M388.9,23.3h-1v1.4l1,2.8V23.3z"/>
				<path class="st0" d="M399.7,17.3v14.9h-3.3V17.3h-1.7v-2.2h1.7v-3h3.3v3h1.5v2.2H399.7z M395.9,30.9h-1.2l0.2-12.6h1.2
					L395.9,30.9z M405.8,12.1v10.5H405v-0.9h-3v0.9h-0.5v2.1h0.5v4.2l-0.5,1.6l-0.3-12.1H400l0.3,12.6h1l-0.5,1.3h3.2l1-2.7v-2.8
					l0.6,2.4h1.4l-0.8-3.2H405v-1.2h1l1.6,4l-3,3.5h2.9l1-1.2l0.5,1.2h3.5l0.7-2.2h-1.8l-0.7-1.7l2.4-2.9h-2.7l-0.6,0.6l-0.5-1.3
					h3.7v-2.1h-0.7l-0.2-1h-2.6l0.2,1h-0.8V12.1H405.8z M403.9,19.1h0.8v-1h0.7V21h-3.8v-1.6l1.2-2.3h-1.3v-1.8l1.6-2.9h2.2L404,15
					h1.4v1.3L403.9,19.1z M411.4,19.1h0.7v-1h0.7V21h-3.6v-1.7l1.2-2.2h-1.2v-1.8l1.4-2.9h2.2l-1.3,2.7h1.3v1.3L411.4,19.1z"/>
				<path class="st0" d="M418.7,24.7h-3.6l1.7-4h3.4L418.7,24.7z M426.3,28.5v3.6h-4.1v-3.6h-7.1v-2.2h7.1v-1.1h4.1v1.1h7.1v2.2
					H426.3z M427,16l-2.4,2h3.3v1.8l-1.5,1.3h1.6l1,3.5h-2.3l-0.4-1.4l-0.6,1.4h-5.5v-2.1l2.9-2.5h-2.6v-2.3l2.1-1.8h-7.1v-2.1h6.8
					l-0.4-1.8h4.2l0.5,1.8h6.7V16H427z M416.8,20l-1.3-3.5h3.5l1.3,3.5H416.8z M425.8,21.7l-1.1,1h1.4L425.8,21.7z M431.7,20h-3.5
					l1.4-3.5h3.4L431.7,20z M429.9,24.7l-1.5-4h3.4l1.5,4H429.9z"/>
				<path class="st0" d="M435.7,32v-2.2l1.1-0.3V18.6h-1v-2.2h1v-4.4h3.6v4.4h0.8v2.2h-0.8v9.8l1.3-0.4v2.2L435.7,32z M441.7,22.9
					v-8.8h1.5l-0.9-2.1h3.8l0.9,2.1h1.3l1-2.1h3.9l-1,2.1h1.6v8.8H441.7z M442.2,32.1v-8.4h11.1v8.4H442.2z M446.5,16.3H445v0.8h0.9
					l0.6,2.4V16.3z M446.5,20.1h-1l-0.5-2v2.6h1.5V20.1z M449.8,25.8h-4.2v1.1h4.2V25.8z M449.8,28.9h-4.2v1.1h4.2V28.9z
					 M450.4,16.3h-1.5v3.3l0.7-2.4h0.9V16.3z M450.4,18.4l-0.5,1.7h-1.1v0.6h1.5V18.4z"/>
				<path class="st0" d="M456.4,15.6v-2.1h6.8l-0.4-1.3h4.2l0.5,1.3h6.7v2.1H456.4z M469.2,32.1l-0.6-1.2h-7.2v-5.5h7.8v4.6h0.9
					v-5.4h-9.6v7.4h-3.7v-9.4h16.9v9.4H469.2z M458,21.8v-5.3h14.6v5.3H458z M468.9,18.5h-7.1v1.3h7.1V18.5z M466.1,27.4h-1.4V29
					h1.4V27.4z"/>
			</g>
		</g>
	</g>
	<g>
		<rect x="482.9" y="360" class="st1" width="142.6" height="42.9"/>
		<g>
			<g>
				<path class="st0" d="M511.7,382.6v9.6h-6.7l-1.3-2.1h4.1v-1h-8.6v3.1h-3.9v-9.6h-1v-4.4h0.9v-6h16.4v6h1v4.4H511.7z
					 M508.7,380.3h-10.5v1h10.5V380.3z M507.8,374.4h-8.7v3.8h2.4v-3.1h6.2V374.4z M507.8,383.4h-8.6v1h8.6V383.4z M507.8,386.2
					h-8.6v1h8.6V386.2z M507.8,377.2h-2.5v1h2.5V377.2z"/>
				<path class="st0" d="M523.5,374.5H519v0.9h5v2h-0.9v2.5h-3.3v-2.5H519v0.6l-0.7,1.9h-3.8l0.8-2.4v-4.8h4.7l0.2-0.6h3.8
					L523.5,374.5z M528.1,392.1l-2.4-1.7h-3.3l-2.2,1.7h-5.4l2.5-1.7h-1.4v-10H532v10h-1.2l2.4,1.7H528.1z M528.1,382.5h-8.3v0.7
					h8.3V382.5z M528.1,385.1h-8.3v0.7h8.3V385.1z M528.1,387.7h-8.3v0.7h8.3V387.7z M532.5,374.5h-4.6v0.9h5.1v2h-1v2.5h-3.3v-2.5
					h-0.8v0.6l-0.8,1.8h-3.7l1-2.3v-4.9h4.8l0.2-0.6h3.8L532.5,374.5z"/>
				<path class="st0" d="M550.2,384.1l-1.8-4.2l-4.6,2.5v0.2h5.6l-0.8,2.2h-8v-0.6l-1,0.5h-5.1l3.4-2h-2.6l1.4-4.2h3.3l-1.3,3.8
					l2-1.1V377h3.2v2.5l1-0.6l-0.8-2.7h3.1l0.3,1.2l1-0.5h1.1v-1.3h-10.2v2.2h-3.8v-4.3h6.8l-0.5-1.3h4.1l0.5,1.3h6.9v4.4h-1.1
					l-3.2,1.8h2.8l1.8,4.5H550.2z M536.1,392.1v-6.4h3.7v4.3h2.9v-4.6h3.8v4.6h2.9v-4.3h3.6v6.4H536.1z"/>
				<path class="st0" d="M560.5,375.7v1.6h1.3v-1h3.8v1h3.2v-1h3.7v1h1.6v2.1h-1.6v3.5h-10.7v-3.5h-1.3v9.5l-0.8,3.2h-4l1-3.8v-14.8
					h6.7l-0.5-1.4h4.2l0.5,1.4h6.6v2.2H560.5z M568.9,392.1l-1.6-1.2l-1.6,1.2H560l4.4-3.1l-3.5-2.4h5.4l0.7,0.5l1.5-1.1H561v-2.1
					h12.6v2.5l-3.7,2.6l4.5,3.1H568.9z M568.8,379.4h-3.2v1.4h3.2V379.4z"/>
				<path class="st0" d="M585.9,374.5v17.6h-4.1v-17.6h-5.4v-2.3h18.3v2.3H585.9z M590.8,388.9l-3.6-10.6h4.1l3.6,10.6H590.8z"/>
				<path class="st0" d="M611,382l-1.7-1.2l-1.5,1.2h-4.1v7.5h-3.5v2.6h-3v-19.8h6.5v7.3l-1.4,1.2l1.3,0.9l3.1-2.7l-2.7-2h4.7
					l0.2,0.1l1.8-1.6h-2.5l-0.4,0.9h-3.7l1.9-4.3h3.7l-0.5,1.2h5.5v2.7l-3.3,2.9l4.3,3.1H611z M600.9,374.5h-0.7v5.3h0.7V374.5z
					 M600.9,382h-0.7v5.3h0.7V382z M612.1,389.8v2.3h-3.7v-2.3h-4.2v-2.1l0.5-1.4h3.1l-0.4,1.3h1v-2h-4.2v-2.2h4.2v-1h3.7v1h2.6v2.2
					h-2.6v2h3v2.2H612.1z"/>
			</g>
		</g>
	</g>
	<g>
		<rect y="260.2" class="st1" width="163.7" height="42.9"/>
		<g>
			<g>
				<path class="st0" d="M27.3,288.1v0.8h-4.8v1.3h7.1v2H11.8v-2h7v-1.3H14v-0.8h-2.5l2.1-3.2h-1.8v-2h2V276h-1.6v-2h1.6v-1.8h3.7
					v1.8h6.3v-1.8h3.7v1.8h1.6v2h-1.6v6.9h2.1v2h-1.9l2.1,3.2H27.3z M23.4,284.9h-5.6l-1.3,2.1h2.3v-1.5h3.8v1.5h2.3L23.4,284.9z
					 M23.7,276h-6.3v1h6.3V276z M23.7,278.9h-6.3v1h6.3V278.9z M23.7,281.8h-6.3v1h6.3V281.8z"/>
				<path class="st0" d="M32.4,291.8v-8h-0.7l1.4-8.6h-1.2V273h6v2.3h-1.6l-0.7,4.5h2.3v12H32.4z M35.5,282h-0.6v7.6h0.6V282z
					 M49.8,292.3h-6.5l-1.7-1.3l-0.1,1.3h-3.2l0.7-7H42l-0.3,3.4l0.8,0.6v-5.1h-4.3v-2.1h11.9v3.5H47v-1.4h-1.1v2h3.8v2.1h-3.8v1.9
					h4.7L49.8,292.3z M39.4,281.2h-1.2l0.3-4.6h1.1L39.4,281.2z M42.6,275.9v5.6h-2.6v-5.6h-1.7v-2h1.7v-1.6h2.6v1.6H44v2H42.6z
					 M43.1,281.2l-0.3-4.6h1l0.3,4.6H43.1z M48.7,275.9v5.6H46v-5.6h-1.6v-2H46v-1.5h2.7v1.5h1.6v2H48.7z M45.5,281.1h-1.1l0.2-4.6
					h1.1L45.5,281.1z M49.3,281.1l-0.3-4.6h1.1l0.3,4.6H49.3z"/>
				<path class="st0" d="M56.7,280.1h0.7v12.3h-3.9v-11.2h-1.1l2.5-9h4.1L56.7,280.1z M70.1,292.4h-6.3L61.6,281l-3.8,0.2v-2.3
					l3.4-0.2l-1.2-6.5h4.1l1.2,6.3l5.4-0.3v2.3l-4.9,0.3l1.8,9.3h3.7L70.1,292.4z M66.4,277.4l-0.9-4.8h3.7l1,4.8H66.4z"/>
				<path class="st0" d="M73,276.1v-2.1h1.3l-0.3-1.7h3.7l0.3,1.7h1v2.1H73z M82.4,292.3l-0.8-1.7l-0.2,1.2h-2.6v0.5h-5.3v-8.5h5.3
					v7.1l1-5h2.8l-0.9,4.3h1v-4.9h-3.8v-2.1h0.4v-9.5h1.4l0.4-1.3h3.6l-0.4,1.3h1.4v18.7H82.4z M73.4,279.3v-2.1h5.3v2.1H73.4z
					 M73.4,282.5v-2.1h5.3v2.1H73.4z M76.4,285.9h-0.7v4.2h0.7V285.9z M82.7,275.8h-0.9v1.2h0.9V275.8z M82.7,278.9h-0.9v1.2h0.9
					V278.9z M82.7,282h-0.9v1.1h0.9V282z M90.9,277.8v14.5h-4L86,290h1.7v-12.3H86v-2.3h1.8v-3.3h3.1v3.3h0.5v2.3H90.9z M86.4,288.9
					l-0.3-10.2h1.1l0.3,10.2H86.4z"/>
				<path class="st0" d="M97.1,284.9h-3.6l1.7-4h3.4L97.1,284.9z M104.7,288.7v3.6h-4.1v-3.6h-7.1v-2.2h7.1v-1.1h4.1v1.1h7.1v2.2
					H104.7z M105.4,276.2l-2.4,2h3.3v1.8l-1.5,1.3h1.6l1,3.5h-2.3l-0.4-1.4l-0.6,1.4h-5.5v-2.1l2.9-2.5h-2.6v-2.3l2.1-1.8h-7.1v-2.1
					h6.8l-0.4-1.8h4.2l0.5,1.8h6.7v2.1H105.4z M95.1,280.2l-1.3-3.5h3.5l1.3,3.5H95.1z M104.2,282l-1.1,1h1.4L104.2,282z
					 M110.1,280.2h-3.5l1.4-3.5h3.4L110.1,280.2z M108.3,284.9l-1.5-4h3.4l1.5,4H108.3z"/>
				<path class="st0" d="M123.5,274.7v17.6h-4.1v-17.6H114v-2.3h18.3v2.3H123.5z M128.4,289.1l-3.6-10.6h4.1l3.6,10.6H128.4z"/>
				<path class="st0" d="M148.6,282.2l-1.7-1.3l-1.5,1.3h-4.1v7.5h-3.5v2.6h-3v-19.8h6.5v7.3L140,281l1.3,0.9l3.1-2.7l-2.7-2h4.7
					l0.2,0.1l1.8-1.6h-2.5l-0.4,0.9h-3.7l1.9-4.3h3.7l-0.5,1.2h5.5v2.7l-3.3,2.9l4.3,3.1H148.6z M138.5,274.7h-0.7v5.3h0.7V274.7z
					 M138.5,282.2h-0.7v5.3h0.7V282.2z M149.7,290v2.3H146V290h-4.2v-2.1l0.5-1.4h3.1l-0.4,1.3h1v-2h-4.2v-2.2h4.2v-1h3.7v1h2.6v2.2
					h-2.6v2h3v2.2H149.7z"/>
			</g>
		</g>
	</g>
	<g>
		<rect x="533.2" y="144" class="st1" width="142.6" height="42.9"/>
		<g>
			<g>
				<path class="st0" d="M552.5,176.1l-1.1-2.1h6.9v-4h-4l-4.9,6.2h-5l5-6.2h-4.6v-2.2h0.7v-10.3h4.5l0.7-1.4h4.4l-0.6,1.4h7.9v18.6
					H552.5z M558.2,159.7h-8.9v1.3h8.9V159.7z M558.2,163h-8.9v1.3h8.9V163z M558.2,166.4h-8.9v1.4h8.9V166.4z"/>
				<path class="st0" d="M572.9,166v10.1h-3.4l-0.6-2.1h0.9v-1h-1.2v3.1h-3V166h-0.6v-3.6h0.6v-6.1h7.2v6.1h0.5v3.6H572.9z
					 M570.3,158.4h-2.1v4h0.5v-3.2h1.6V158.4z M570.3,164.5h-2.1v0.9h2.1V164.5z M569.9,167.5h-1.2v0.7h1.2V167.5z M569.9,170.2
					h-1.2v0.8h1.2V170.2z M570.3,161.2h-0.5v1.2h0.5V161.2z M573.5,176.1v-2h1.4l-0.4-1.4h3.3l0.4,1.4h0.7l0.5-1.4h3.2l-0.5,1.4h1.4
					v2H573.5z M573.6,167.7v-2h9.8v2H573.6z M573.8,165.2v-8.1h2v-1.1h2.3v1.1h0.6v-1.1h2.3v1.1h2.2v8.1H573.8z M574,172.2v-4h9v4
					H574z M576.4,159.2h-0.5v1h0.5V159.2z M576.4,162.2h-0.5v1h0.5V162.2z M579.7,169.9h-2.5v0.7h2.5V169.9z M578.7,159.2h-0.6v1
					h0.6V159.2z M578.7,162.2h-0.6v1h0.6V162.2z M581,159.2h-0.5v1h0.5V159.2z M581,162.2h-0.5v1h0.5V162.2z"/>
				<path class="st0" d="M590,160.7h3.2v2.1l-1.9,2.3h2.1v4H586v-2.6l3-3.5h-3v-2.4l3.3-4.5h4.1L590,160.7z M586,176.1v-6.3h2.2v6.3
					H586z M588.6,176.1v-6.3h2.1v6.3H588.6z M590.9,165.5l-1.2,1.5h1.2V165.5z M591.2,176.1v-6.3h2.1v4.1h0.5v-17.6h9.4v17.6h0.8
					v2.2H591.2z M599.5,158.4h-2v3.7h2V158.4z M599.5,164.2h-2v3.7h2V164.2z M599.5,170.2h-2v3.7h2V170.2z"/>
				<path class="st0" d="M621.1,168.5l0.8,5.3h2.8l-0.9,2.4h-5.4l-0.3-2.4l-1.4,2.4h-3.4l1.3-2.1h-2.7l-0.9-2.2h1.4v-6.2h-1.6v7.3
					l-0.9,3.2h-3.8l0.9-3.5v-14.1h9l-0.4-2.6h3.8l0.4,2.6h0.9l-0.3-2.3h3.2l0.3,2.3h0.8v2.3H620l0.5,3.1l1-1.8h3.3L621.1,168.5z
					 M616.2,160.9h-5.5v2.5h5.2v8.3l1.5-2.5L616.2,160.9z"/>
				<path class="st0" d="M641.6,176.1l-1.8-3.3l-1.4,3.3h-3.7l3-7.1l-2.4-4.4h3.7l0.3,0.6l1.4-3.4h-1.4l-0.8,2.2h-3.4v2.3h-4.6v7.1
					h4.5l-0.9,2.3h-7.3V164h4.6v-5.5h-4.7v-2.2h8.5v6.8l2.7-7.1h3.7l-1.3,3.4h4.7v2.3h-0.6l-3,7.1l3.9,7.2H641.6z"/>
				<path class="st0" d="M658.9,176.1l-3.2-1.5l-2.8,1.5h-6.1l5.6-2.9l-3.6-1.7h6.9l2.5-1.4h-5l-1,0.9h-4.8l4.3-3.7h-0.4v-3.2h1.6
					v2.8h0.5v-3.6h5.6v4h-2.5l-1,0.9h9.5v2h-0.8l-5.3,2.9l6.8,3.2H658.9z M647.4,163.5v-2l1.6-1.6h-1.6V158l2-1.9h3.4l-2.2,2.2h2.3
					v1.4l-2.1,2.2h1v-0.9h1.2v2.6H647.4z M647.4,167.3v-3.2h1.5v3.2H647.4z M649.3,167.3v-3.2h1.5v3.2H649.3z M653.2,158.6v-1.7h1.4
					l-0.2-0.8h3.6l0.2,0.8h1.2v1.7H653.2z M653.4,160.7v-1.5h5.6v1.5H653.4z M653.4,162.7v-1.5h5.6v1.5H653.4z M656.8,164.8h-0.9
					v0.8h0.9V164.8z M663.1,158.3h2.1v1.5l-2.1,2.1h1.1v-0.9h1.1v2.6h-5.7v-2l1.7-1.6h-1.7v-1.7l2.3-2.2h3.5L663.1,158.3z
					 M659.5,167.3v-3.2h1.7v3.2H659.5z M661.7,167.3v-3.2h1.5v3.2H661.7z M663.7,167.3v-3.2h1.5v3.2H663.7z"/>
			</g>
		</g>
	</g>
	<g>
		<rect x="45.6" y="336" class="st1" width="142.6" height="42.9"/>
		<g>
			<g>
				<path class="st0" d="M64,368.1v-2.3h3.8v-9.2h-2.9l0.8,6.8h-2.3l-0.9-7.2l-0.2,0.4v11.4h-3.9v-8.3h-1.7l3.7-7.2h-3.3v-2.3H59
					l-0.5-2.2h3.9l0.6,2.2h1.4v2.2l-1.7,3.5h2v-1.6h3.1v-6.3h3.9v6.3H75v2.3h-3.4v9.2h3.8v2.3H64z"/>
				<path class="st0" d="M90.5,368.2l-3.7-3.3l-3.7,3.3h-5.7l6.5-5.9l-4-3.6h-2.4l3.4-5.6h4.6l-2.8,4.6h1.9l2.3,2l2.3-2h1.9
					l-2.9-4.6h4.5l3.5,5.6h-2.5l-3.9,3.5l6.7,6H90.5z M77.5,352.4v-2.3h7.2l-0.6-2.1h4.3l0.6,2.1h6.7v2.3H77.5z"/>
				<path class="st0" d="M115.8,368.2h-10.9l-2.3-1.4l-0.7,1.3h-3.9l1.8-3.6v-3.2h-1.5v-2.1l1.6-4H98v-2.1h5.4v2.4l-1.4,3.6h1.4v5.6
					l2.2,1.3h11L115.8,368.2z M99.7,352.5l-1.6-4.3h4l1.6,4.3H99.7z M111.7,364.1v1.5h-3.5v-1.5h-4.4v-2h4.4v-1h-4v-8.5h4v-0.9h-4.5
					v-2.1h4.5v-1.5h3.5v1.5h4.5v2.1h-4.5v0.9h4v8.5h-4v1h4.6v2H111.7z M108.2,354.6h-1.1v1.3h1.1V354.6z M108.2,357.7h-1.1v1.3h1.1
					V357.7z M112.8,354.6h-1.1v1.3h1.1V354.6z M112.8,357.8h-1.1v1.3h1.1V357.8z"/>
				<path class="st0" d="M123.1,352.7h3.2v2.1l-1.9,2.3h1.9v4h-7.5v-2.4l3.2-3.8h-3.3v-2.3l3.9-4.5h4.3L123.1,352.7z M118.9,368.1
					v-6.3h2.2v6.3H118.9z M121.6,368.1v-6.3h2.1v6.3H121.6z M124.2,357.4l-1.3,1.5h1.3V357.4z M124.3,368.1v-6.3h2.1v6.3H124.3z
					 M133.4,352.9v2.9h3v2.2H127v-2.2h2.9v-2.9h-3.3v-2.2h3.3v-2.5h3.6v2.5h3.4v2.2H133.4z M127.1,368.1v-8.9h9.4v8.9H127.1z
					 M132.9,361.4h-2.3v4.5h2.3V361.4z"/>
				<path class="st0" d="M140.1,353l-1.2-4.9h3.6l1.2,4.9H140.1z M140.2,358.8l-1.2-5h3.6l1.3,5H140.2z M142.7,368.1h-3.6l0.8-8.6
					h3.6L142.7,368.1z M157,368.1h-4.1l-0.2-1.8l-0.8,1.7h-2.3l0.6-1.4h-2.4v-9.4h3.6v6.6l0.9-2.1l-0.5-5.7h-4.5v9.4l-0.8,2.7h-3.3
					l1-3.3v-14.3h7.1l-0.2-2.3h3.2l0.2,2.3h0.6l-0.2-1.9h1.9l0.3,1.9h0.4v2.1h-2.7l0.3,3.1l0.5-1.1h2.4l-2.4,5.6l0.6,5.8h1.8
					L157,368.1z M151.3,352.5h-4.1v1.4h4.2L151.3,352.5z M149.9,359.3h-0.6v5.1h0.6V359.3z"/>
				<path class="st0" d="M163.3,362.3h-3.9l2.8-12.3h3.8L163.3,362.3z M170.7,368.1h-10.1l-1.1-2.3h8.2l2.7-3h-5l-1-2.3h2.3v-12.5
					h4.1v14.4l2-2.2h5L170.7,368.1z M174.1,359.4l-2.8-9.4h4l2.8,9.4H174.1z"/>
			</g>
		</g>
	</g>
	<g>
		<defs>
			<filter id="Adobe_OpacityMaskFilter" filterUnits="userSpaceOnUse" x="358.7" y="374.9" width="102.8" height="7.4">
				<feFlood  style="flood-color:white;flood-opacity:1" result="back"/>
				<feBlend  in="SourceGraphic" in2="back" mode="normal"/>
			</filter>
		</defs>
		<mask maskUnits="userSpaceOnUse" x="358.7" y="374.9" width="102.8" height="7.4" id="XMLID_2_">
			<g class="st2">
				<defs>
					<filter id="Adobe_OpacityMaskFilter_1_" filterUnits="userSpaceOnUse" x="358.7" y="374.9" width="102.8" height="7.4">
						<feFlood  style="flood-color:white;flood-opacity:1" result="back"/>
						<feBlend  in="SourceGraphic" in2="back" mode="normal"/>
					</filter>
				</defs>
				<mask maskUnits="userSpaceOnUse" x="358.7" y="374.9" width="102.8" height="7.4" id="XMLID_2_">
					<g class="st3">
					</g>
				</mask>
				
					<linearGradient id="XMLID_3_" gradientUnits="userSpaceOnUse" x1="-402.3759" y1="2713.606" x2="-348.7799" y2="2713.606" gradientTransform="matrix(1.9191 5.210000e-02 2.720000e-02 -0.9996 1057.0891 3110.5854)">
					<stop  offset="0" style="stop-color:#FFFFFF"/>
					<stop  offset="1" style="stop-color:#000000"/>
				</linearGradient>
				<path id="XMLID_12_" class="st4" d="M459.7,378.6c2,0.7,2.6,1.6,0.9,2.8c-1.4,0.9-5.3,0.4-7.1,0.5c-8.5,0.2-16.9,0.4-25.4,0.4
					c-17.1,0-34.2-0.7-51.2-2c-2.5-0.2-20.8-1-17.8-4.3c1.5-1.7,8.8-0.6,11.5-0.6c5.9,0,11.7,0,17.6,0.1c11.7,0,23.4,0.1,35.2,0.1
					C425.8,375.4,452.3,375.9,459.7,378.6z"/>
			</g>
		</mask>
		
			<linearGradient id="XMLID_4_" gradientUnits="userSpaceOnUse" x1="-402.3759" y1="2713.606" x2="-348.7799" y2="2713.606" gradientTransform="matrix(1.9191 5.210000e-02 2.720000e-02 -0.9996 1057.0891 3110.5854)">
			<stop  offset="0" style="stop-color:#000000"/>
			<stop  offset="1" style="stop-color:#000000"/>
		</linearGradient>
		<path id="XMLID_2681_" class="st5" d="M459.7,378.6c2,0.7,2.6,1.6,0.9,2.8c-1.4,0.9-5.3,0.4-7.1,0.5c-8.5,0.2-16.9,0.4-25.4,0.4
			c-17.1,0-34.2-0.7-51.2-2c-2.5-0.2-20.8-1-17.8-4.3c1.5-1.7,8.8-0.6,11.5-0.6c5.9,0,11.7,0,17.6,0.1c11.7,0,23.4,0.1,35.2,0.1
			C425.8,375.4,452.3,375.9,459.7,378.6z"/>
		<defs>
			<filter id="Adobe_OpacityMaskFilter_2_" filterUnits="userSpaceOnUse" x="235.8" y="378.2" width="79.8" height="5.8">
				<feFlood  style="flood-color:white;flood-opacity:1" result="back"/>
				<feBlend  in="SourceGraphic" in2="back" mode="normal"/>
			</filter>
		</defs>
		<mask maskUnits="userSpaceOnUse" x="235.8" y="378.2" width="79.8" height="5.8" id="XMLID_5_">
			<g class="st6">
				<defs>
					<filter id="Adobe_OpacityMaskFilter_3_" filterUnits="userSpaceOnUse" x="235.8" y="378.2" width="79.8" height="5.8">
						<feFlood  style="flood-color:white;flood-opacity:1" result="back"/>
						<feBlend  in="SourceGraphic" in2="back" mode="normal"/>
					</filter>
				</defs>
				<mask maskUnits="userSpaceOnUse" x="235.8" y="378.2" width="79.8" height="5.8" id="XMLID_5_">
					<g class="st7">
					</g>
				</mask>
				
					<linearGradient id="XMLID_6_" gradientUnits="userSpaceOnUse" x1="960.9968" y1="371.7549" x2="1002.5984" y2="371.7549" gradientTransform="matrix(1.919 -5.460000e-02 2.840000e-02 0.9996 -1618.8834 63.1271)">
					<stop  offset="0" style="stop-color:#FFFFFF"/>
					<stop  offset="1" style="stop-color:#000000"/>
				</linearGradient>
				<path id="XMLID_9_" class="st8" d="M314.2,381c1.5-0.6,2-1.3,0.7-2.1c-1.1-0.7-4.1-0.3-5.5-0.4c-6.6-0.2-13.1-0.3-19.7-0.3
					c-13.2,0-26.5,0.6-39.7,1.6c-2,0.2-16.1,0.8-13.8,3.4c1.2,1.3,6.8,0.5,8.9,0.5c4.5,0,9.1,0,13.6-0.1c9.1,0,18.2-0.1,27.3-0.1
					C287.9,383.5,308.5,383.1,314.2,381z"/>
			</g>
		</mask>
		
			<linearGradient id="XMLID_7_" gradientUnits="userSpaceOnUse" x1="960.9968" y1="371.7549" x2="1002.5984" y2="371.7549" gradientTransform="matrix(1.919 -5.460000e-02 2.840000e-02 0.9996 -1618.8834 63.1271)">
			<stop  offset="0" style="stop-color:#000000"/>
			<stop  offset="1" style="stop-color:#000000"/>
		</linearGradient>
		<path id="XMLID_2680_" class="st9" d="M314.2,381c1.5-0.6,2-1.3,0.7-2.1c-1.1-0.7-4.1-0.3-5.5-0.4c-6.6-0.2-13.1-0.3-19.7-0.3
			c-13.2,0-26.5,0.6-39.7,1.6c-2,0.2-16.1,0.8-13.8,3.4c1.2,1.3,6.8,0.5,8.9,0.5c4.5,0,9.1,0,13.6-0.1c9.1,0,18.2-0.1,27.3-0.1
			C287.9,383.5,308.5,383.1,314.2,381z"/>
		<g>
			<path class="st10" d="M320.2,168.1c-11.5,7.3-24.8-11.7-31.3-19.7c-6.2-7.7-13-15.3-22.5-18.1c-0.8-0.2-1.1,1-0.3,1.3
				c13,4.2,20.2,16.8,29.2,26.7c5.6,6.2,16.8,16.9,25.2,10.4C320.9,168.5,320.6,167.9,320.2,168.1z"/>
			<path class="st11" d="M381.8,373.2c0.1,0.5,0.2,1,0,1.4c-0.1,0.4-0.4,0.7-0.7,1c-1.6,1.4-3.8,1.5-5.8,1.6
				c-2.8,0.1-5.5,0.1-8.3,0.2c-0.6,0-1.3,0-1.8-0.4c-0.9-0.8-0.5-2.4,0.4-3.1c0.9-0.7,2.1-0.8,3.2-0.9c1.8-0.1,3.6-0.3,5.4-0.6
				c0.8-0.1,1.5-0.3,2.2-0.7c0.7-0.4,1.1-1.3,1-2.1c0,0.2,3.3-0.3,3.6,0C381.6,370.1,381.7,372.4,381.8,373.2z"/>
			<path class="st11" d="M421.8,371.4c-0.3,2.4-1.3,4.5-1.9,6.8c-0.2,0.8-0.2,1.7,0.3,2.2c0.3,0.3,0.8,0.3,1.2,0.4
				c0.6,0,1.2,0,1.9,0c0.2,0,0.4,0,0.6-0.2c0.2-0.1,0.2-0.4,0.3-0.6c0.8-2.8,1.5-5.6,2.3-8.4c0.2-0.6,0.3-1.2,0.3-1.9
				c0-0.7-0.3-1.3-0.5-2c-0.5-1.2-1-2.5-1.4-3.7c-0.1-0.2-0.2-0.4-0.3-0.5c-0.2-0.1-0.4,0-0.5,0.1c-1.1,0.5-3.4,1-3,2.7
				c0.2,0.8,0.7,1.5,0.8,2.4C421.9,369.7,421.9,370.5,421.8,371.4z"/>
			<path class="st12" d="M241.6,367.8c-2.6,0.3-5.4-0.5-7.6-2.3c3.4-10.7,4.4-13.8,7.9-24.5c1.1-3.4,2.2-6.8,2.8-10.3
				c0.7-4.4,0.7-9,0.7-13.5c-0.2-17.5,0.4-75.4,0.2-93c0-1.5,0-3,0.4-4.3c1.3-3.8,10.7-3.1,14.1-3c0.7,0,6.3,0.8,6.9,1.4
				c0.7,0.7,6.2,0.3,6.3,1.3c0.7,13.8-7.4,41.5-8.5,56c-0.4,4.8-4.1,35.5-4.7,40.3c-1.1,8.4-3.9,17.1-7.3,24.4
				C247.5,351.8,246.8,354.5,241.6,367.8z"/>
			<path class="st13" d="M272.8,153.4c3.1,1.6,5.3,4.7,7.4,7.6c5,7.1,10.1,14.3,15.1,21.4c1.4,2,3,4.2,5.2,5.1
				c2.7,1.1,5.6,0.3,8.4-0.5c5.5-1.6,4.4-2,9.9-3.6c0.4-0.1,0.9-0.2,1.2,0c0.2,0.2,0.3,0.5,0.4,0.7c0.6,1.7,1.7,5.7,0.7,7.2
				c-0.7,1.1-2,1.5-3.2,1.8c-9.3,2.5-12.2,3.7-21.8,4.5c-1.4,0.1-2.3-0.8-4.9-2.3c-1.1-0.6-2.1-1.4-2.9-2.4
				c-5.3-5.7-10.2-11.9-14.5-18.5c-2.1-3.2-4.1-6.6-6-10c-1.4-2.5-3.8-6.2-3.1-9.3C265.4,151.4,270.4,152.1,272.8,153.4z"/>
			<path class="st14" d="M266.4,129.9c-0.3-4.8-2.2-9.3-4.2-13.6c-1.6-3.5-3.3-7.1-6.2-9.4c-0.6-0.5-1.2-0.9-1.9-1
				c-0.6-0.1-1.2,0.1-1.8,0.4c-5.5,1.9-11.1,3.9-15.9,7.3c-0.4,0.3-0.7,0.5-0.9,1c-0.1,0.4-0.1,0.8,0,1.2c2.2,12,7,27.9,18.2,30.9
				c5.4-2.8,4.4-0.7,10-3C262.4,140.5,266.6,133.4,266.4,129.9z"/>
			<path class="st15" d="M288.6,378.4c-0.6-0.6-1.3-0.9-2.1-1.3c-2.6-1.1-5-2.6-7.2-4.4c-2.9-0.5-5.8-0.7-8.7-0.4
				c-1.1,1.9-1.5,4.3-0.9,6.5c0.1,0.3,0.2,0.5,0.3,0.7c0.2,0.2,0.6,0.3,0.9,0.4c5.3,1,10.7,1.5,16.1,1.5c0.7,0,1.5-0.1,1.9-0.7
				C289.4,380.1,289.2,379,288.6,378.4z"/>
			<path class="st15" d="M247.4,377.4c-0.3-0.8-0.9-1.4-1.5-2c-2-2-3.7-4.3-5.1-6.8c-2.4-1.6-5.1-2.8-7.8-3.7
				c-1.7,1.3-2.8,3.3-3,5.5c0,0.3,0,0.6,0.1,0.8c0.1,0.3,0.4,0.5,0.7,0.7c4.5,3,9.2,5.5,14.1,7.5c0.6,0.3,1.4,0.5,2,0.2
				C247.6,379.3,247.7,378.2,247.4,377.4z"/>
			<path class="st12" d="M288.2,250.2c0-1.4,0-2.8,0-4.3h0c0,0,0,0,0,0c-0.2-6.6-1-13.2-1.8-19.7c-0.5-4.1-1-8.3-2.9-11.7
				c-4.5,3.4-9.6,5.5-14.9,6.2c0,0.1-0.1,0.2-0.1,0.3c-0.3,0.8-0.5,1.7-0.6,2.6c1,11.5-1.1,24.7-1.1,34.6c0,6.3-0.5,12.4-1.2,18.5
				c0.1,0,0.3,0,0.4-0.1c2,9,2.3,18.6,2.6,28.1c0.6,22.5,1.2,45,1.8,67.5c0,2.3,7.5,0.3,8,0.1c0-0.5,0.1-0.9,0.1-1.4
				c0.8-11.6,0.8-23.5,1.7-35c0.9-10.8,1.2-22.5,3.2-33.1c0.8-4.3,0.9-7.9,0.9-12.3c0.1-5.4,0.7-10.7,1.3-16
				C286.7,266.5,288,258.4,288.2,250.2z"/>
			<path class="st16" d="M292.7,296.4c0-7.1-0.8-14.2-1.3-21.3c-0.5-7.1,1.1-25-0.1-32c-2.8-16.8-6.2-15.5-4.5-23.6
				c4.8-23-9.4-54.1-22.9-69.2c-3.9,1.3-8,1.5-12.2,1.5c-0.1,0.3-0.2,0.6-0.2,1c-3.8,21.4-5.3,61-5.8,69c-1,15.7-6,25.4-8,40.1
				c-0.6,4.6-1.5,9.4-2.2,14.2c-1.4,5-3.4,10.5-3.9,16c-0.3,0.7-0.6,1.5-0.7,2.4c-1.7,2.8-1.4,7.3,1.4,9c0.6,0.4,1.2,0.5,1.8,0.4
				c0.1,0,0.2,0.1,0.3,0.2c9.9,4.6,20.6,7.7,31.1,7.1c0.6,0,1.2-0.2,1.8-0.4c3,0.3,6.1,0.4,9.2,0.5c3.9,0.1,9,1.3,12.5-1.3
				c2.1-1.6,2.7-4.9,2.4-7.9C292.1,300.6,292.6,298.7,292.7,296.4z"/>
			<path class="st13" d="M264.2,183.9c-5.8,3.5-21,12.7-27.9,11.9c6.9-7.4,13.3-15.9,16.6-20.5c3.8-5.3,2.6-13.9,1.5-20
				c-0.7-4-4.8-3.8-6.8-1.4c-1.2,0.1-2.3,0.9-2.9,2.5c-6.6,16.3-19.2,30.5-22.2,48.4c-0.4,2.4,0.6,5.7,3.3,6.2
				c16.3,2.8,27.6-15.6,41-22.2C272,186.1,266.3,182.6,264.2,183.9z"/>
			<path class="st14" d="M269.6,173.8c-0.3-1.3-0.9-2.5-2.2-3.2c-0.7-0.4-1.7,0.2-1.8,1.1c-0.1,2.1-0.2,4.2-0.3,6.2
				c-0.2-0.1-0.4-0.2-0.5-0.3c-1-0.7-2,0.8-1.7,1.8c0.6,1.8,1.6,2.8,2.6,4.2c0.5,0.7,1.1,0.8,1.6,0.5c0.5,0.5,1.4,0.6,1.9-0.1
				c0.3-0.4,0.3-0.8,0.3-1.1C270.3,179.7,271,176.5,269.6,173.8z"/>
			<g>
				<path class="st17" d="M273,95.6c-1.7,0.8-3.4,1.5-5.2,2c-0.7,0.2-0.4,1.3,0.3,1.2c1.8-0.3,3.7-0.6,5.4-1.1
					C274.9,97.4,274.2,95.1,273,95.6z"/>
				<path class="st17" d="M259.4,86.2c-0.4-0.9-1.9-0.5-1.8,0.5c0.1,0.9,0.4,1.7,0.7,2.5c0.3,0.9,0.5,1.9,1,2.6
					c0.3,0.4,0.9,0.4,1-0.2c0.1-0.9-0.1-1.8-0.3-2.6C259.9,88.1,259.7,87.1,259.4,86.2z"/>
				<path class="st17" d="M266.7,87.1c-0.6,0.8-1.1,1.8-1.5,2.8c-0.4,0.9-0.9,1.7-0.9,2.7c0,0.5,0.5,0.7,0.8,0.5
					c0.7-0.5,1.1-1.2,1.5-1.9c0.6-0.9,1.3-1.8,1.7-2.9C268.7,87.4,267.5,86.2,266.7,87.1z"/>
			</g>
			<path class="st15" d="M362.6,248.8c0-0.8,4.9-0.4,5.2,0.3c4,0.1,7.9,0.3,11.9,0.4c0.9,0,1.9,0.1,2.6,0.9c0.9,1.1,6.1,3.2,6,5
				c-0.6,34.1-6.2,80.6-6.7,114.7c-1.6,0-3.3,0-4.9,0c0-10.9-4.3-21.6-5.8-32.3C367.5,313,362.4,274.1,362.6,248.8z"/>
			<path class="st15" d="M394,245.1c0.4-0.7,1.1-0.8,1.7-1c2.8-0.6,4.3,0.7,5.8,4.2c0.5,1.2,1.9,3.2,2.8,2.6
				c25.5-19.2,3.1,45.6,4.7,62.1c0.4,4.3,0.8,8.6,1.8,12.6c0.8,3.3,2.1,6.4,3.3,9.4c3.9,9.6,7.7,19.2,11.6,28.8
				c-1.7,2-3.9,3.1-6.1,3.1c-2-5.3-4.9-6.5-17.5-23.2c-4.2-5.6-8.7-18.6-10.4-26.4c-1-4.4-1.9-37.2-2.2-41.8
				c-0.8-13.1-1-16.9-1.7-30C387.6,244.4,393.5,245.9,394,245.1z"/>
			<g id="XMLID_2677_">
				<path class="st14" d="M435.7,73.3c-0.4-2.3-1.3-4.7-0.7-7c0.2,0.1,0.4,0.1,0.7,0.2c0.1,0.5,0.3,0.9,0.4,1.4
					c0-1.2,0.1-2.4,0.4-3.6c0.3-1.1,0.8-2.4,1.7-2.3c0.8,0.1,1.3,1.4,1.5,2.5c1,5.2,0.5,10.7,0.1,16.1c-1.4,0.1-2.7-0.1-4.1-0.6
					C436,77.7,436,75.4,435.7,73.3z"/>
				<g id="XMLID_2678_">
					<path id="XMLID_2679_" class="st14" d="M410.6,164.4c-6.1,4.2-14.2-20.2-6.5-25.2c7-4.5,18.7-5,24.9-12c3-3.3,4.8-8.2,5.2-13.9
						c0.7-11.5,1.1-23,1.4-34.5c1.7-0.1,3.5-0.2,5.2-0.3c1,14.3,1.9,28.5,2.9,42.8c0.2,2.7,0.4,5.6-0.2,8.3
						c-0.5,2.6-1.7,4.8-2.9,6.8C432.7,149.4,420.2,157.7,410.6,164.4z"/>
				</g>
			</g>
			<g id="XMLID_2676_">
				<path class="st14" d="M337.9,81.2c0.2-0.2,0.4-0.2,0.6-0.1c-0.1-0.9,0.5-1.8,1.2-1.9c0.7-0.1,1.3,0.5,1.7,1.3
					c0.4,0.8,0.6,1.7,0.8,2.6c0.3,1.2,0.5,2.3,0.8,3.5c0.3-0.3,0.5-0.8,0.5-1.3c0.2-0.2,0.6,0,0.7,0.3c0.2,0.3,0.2,0.7,0.2,1.1
					c0.3,2.3,0.5,4.7,0.8,7c-0.6,0.4-1.2,0.9-1.9,1.2s-1.4,0.3-2-0.2c-0.8-0.7-1-2.1-1.3-3.4c-0.3-1.5-0.7-2.9-1.2-4.3
					C338.3,85.1,337.5,83.1,337.9,81.2z"/>
				<path class="st14" d="M345.3,93c1.8,10,3.7,20,5.8,29.9c1,5,3.3,8.7,6.3,10.9c6.3,4.5,13,5.4,19.6,7.6c7.3,2.4,5.8,12.8,0,14.4
					c-9.4,2.5-19.8-1.6-28.3-11c-1.3-1.4-2.6-3-3.4-5.2c-0.8-2.2-1-4.8-1.3-7.2c-1.1-12.7-2.1-25.5-3.2-38.2
					C342.3,93.7,343.8,93.4,345.3,93z"/>
			</g>
			<path id="XMLID_2675_" class="st18" d="M360.2,157.4c2.8,3.3,5.8,6.6,8.8,9.6c-3.8,32.7-8.2,48.2-8.9,81.3
				c-0.1,5.7,3.4,9.7,7.1,10c6.9,0.5,13.9,0.4,20.8-0.7c3.5-0.5,7.1-1.2,10.6-2.1c1.2-0.3,2.4-0.7,3.4-1.1c0.1,0,0.2,0,0.3,0
				c5.7-0.5,11.1-1.5,16.7-3.1c4.8-1.3,4.4-9.8,1.1-12.8c0-1.8-0.4-3.7-1-5.4c0.6-18.9,2.3-20,0.4-38.6c-0.1-2.2-0.2-4.4-0.3-6.6
				c-0.5-6.3-1.4-12.5-2.6-18.6c1.5-2.2,3.1-4.2,4.6-6.4c1.7-2.5,3.6-4.1,5.5-6.3c0.4-0.5,0.7-1,1-1.6c0,0,13.5-17.6,16.9-24.5
				c3.4-6.9-3.1-53.3-3.1-53.3l-6.8,0.6l-0.9,7.3c0,0-1.5,22.9-3.4,33.8c-1.9,11-15,13.8-15,13.8c-0.8,0.2-1.7,0.4-2.5,0.6
				c-1.7,0.4-3.4,0.6-5.1,0.7c-0.5,0-1,0-1.5,0.1c-7.8,3.4-16.1,4.3-24.1,1.8c-0.2,0.4-0.5,0.8-0.7,1.2c-0.5-0.2-1.2-0.3-1.8-0.2
				c-2.3,0.3-4.7,0.3-7.1,0.1c-1.3-0.4-2.6-0.8-3.8-1.2c-1.5-0.5-3.6-0.4-5-1.4c0,0-8-2.5-10.5-10.9c-2.5-8.4-6.9-30.4-6.9-30.4
				l-6.5,1.3l3.5,41.3C343.3,135.6,341.3,139.9,360.2,157.4z"/>
			<path class="st19" d="M369.9,161.7c-0.9,1.2-1.9,2.4-2.6,3.9c-0.5,1-0.7,2.2-0.9,3.3c-1.1,6-1.8,12.1-2.5,18.2
				c-1.2,11-2.5,22-3.7,33c-0.9,8-1.8,16.3-0.2,24.2c0.1,0.6,0.3,1.3,0.8,1.7c0.5,0.5,1.3,0.5,1.9,0.4c10.3-0.6,20.6-1.2,30.9-1.8
				c6.5-0.4,13.1-0.8,19.4-2.6c3-0.9,6.3-2.4,7.6-5.6c0.7-1.7,0.8-3.5,0.9-5.4c0.2-6.1,0.5-12.2,0.7-18.3c0.4-9.2,0.7-18.5-0.4-27.7
				c-0.8-6.3-2.2-12.5-3.7-18.7c-0.2-1-0.5-2-1.1-2.9c-0.5-0.8-1.2-1.3-1.9-1.8c-7-5.4-12.4-13.7-14.8-23c-0.2-0.7-0.4-1.5-0.8-2.1
				c-1.3-2-4-1.3-6.1-0.5c0,3.4-2.4,6.7-5.4,7.2c-3.2,0.6-5.8-1.7-7.1-4.8c-1.6-3.7-3.5-2.7-4.3,1.2
				C375.2,147.7,374.6,155.1,369.9,161.7z"/>
			<g>
				<path class="st20" d="M258.7,155.3c-0.4,0-0.7,0.2-0.9,0.4c0-0.5-0.3-1-0.9-1c0,0,0,0-0.1,0c0.2-0.7-0.2-1.7-1.1-1.7
					c-0.1,0-0.2,0-0.2,0.1c0.2-0.6-0.1-1.3-0.9-1.4c0,0,0,0-0.1,0c0,0,0,0,0,0c0.1-0.8-0.2-1.6-1.2-1.6c-1.6,0-1.6,2.7,0,2.7
					c0.1,0,0.2,0,0.2-0.1c0,0.6,0.3,1.2,1,1.1c0,0,0,0,0.1,0c0,0,0.1,0,0.1,0c-0.3,0.8,0,1.9,1,1.9c0.1,0,0.2,0,0.3-0.1
					c0,0.5,0.3,1,0.9,1c0.3,0,0.5-0.1,0.6-0.3c-0.1,0.8,0.3,1.6,1.2,1.6C260.4,158.1,260.4,155.3,258.7,155.3z"/>
				<path class="st20" d="M264.9,154.9c-0.7,0-1.1,0.6-1.1,1.2c-0.1,0-0.2-0.1-0.4-0.1c-0.6,0-0.9,0.3-1.2,0.7
					c-0.2-0.3-0.5-0.6-1-0.6c-1.7,0-1.7,2.9,0,2.9c0.5,0,0.8-0.3,1-0.6c0.2,0.4,0.6,0.7,1.2,0.7c1,0,1.5-0.9,1.3-1.8
					c0,0,0.1,0,0.1,0C266.3,157.3,266.3,154.9,264.9,154.9z"/>
				<path class="st20" d="M264.9,154.7c1,0,1-1.7,0-1.7C263.9,153.1,263.9,154.7,264.9,154.7z"/>
				<path class="st20" d="M264,150.6c-0.9,0.5-0.8,2.4,0.5,2.4c1.5,0,1.5-2.4,0.1-2.5c0.9-0.5,0.8-2.4-0.5-2.4
					C262.7,148.1,262.6,150.5,264,150.6z"/>
			</g>
			<path class="st14" d="M325.2,182c0.3-0.1,0.8-0.2,1,0c0.1,0.1,0.2,0.3,0.3,0.4c0.4,0.5,1.1,0.3,1.6,0.1c0.9-0.3,1.8-0.5,2.7-0.5
				c0.4,0,0.7,0,1.1,0.2c0.7,0.3,1,1.2,1.2,1.9c0.3,1,0.5,2.2,0,3.1c-0.4,0.8-1.3,1.1-2,1.4c-2.8,0.9-5.7,1.3-8.6,1.7
				c-0.4,0.1-0.8,0.1-1.1-0.2c-0.2-0.1-0.3-0.4-0.4-0.6c-0.5-1.2-1.6-3.7-0.5-4.8C321.7,183.6,323.5,182.7,325.2,182z"/>
			<path class="st10" d="M375.3,137.2c-5.9,10.1-19.2,17-29.6,19.8c-5.2,1.4-10.6,1.4-15.6,3.6c-4.1,1.8-7.5,4.7-10.4,8.4
				c-0.3,0.3,0.2,0.9,0.5,0.5c4.7-5.6,10.4-8.7,17.3-9.8c5.6-0.9,10.9-1.8,16.2-4.1c8.4-3.7,18-9.1,22.7-17.7
				C376.8,137.1,375.7,136.4,375.3,137.2z"/>
			<path id="XMLID_2674_" class="st14" d="M394.2,107c1.6,3.8,2,8.4,2.3,12.8c0.3,5.5,0.6,11.2-0.6,16.4c-0.9,3.9-0.6,2.1-6.1,6.9
				c-5.9,0.5-1.6,0-6.9,0.6c-19.3-5.3-9.8-22.5-8.1-36.3c0.1-0.5,0.1-0.9,0.3-1.3c0.2-0.4,0.6-0.5,1-0.6c5-1.5,10.1-1.2,15.2-0.8
				c0.5,0,1.1,0.1,1.6,0.4C393.5,105.5,393.9,106.3,394.2,107z"/>
			<path class="st10" d="M329.5,200c0-0.3-0.5-0.2-0.4,0.1c0.7,7.4,1.6,15.3-0.4,22.6c-2,7.5-8.5,6.7-12.7,2.2
				c-3.2-3.5-4.7-8.2-5-13c-1-15.2,8.4-28.2,9.7-42.8c0-0.5-0.7-0.5-0.7,0c-0.3,6.2-3.1,13.2-5.1,19c-1.7,5-3.6,10-4.5,15.3
				c-1.5,8-0.7,17.3,5.3,23.1c3.5,3.4,9.9,6.1,12.8,0.6C332.4,219.2,330.6,208.4,329.5,200z"/>
			<path class="st10" d="M330.2,200.7c0-0.1-0.1-0.2-0.1-0.3c0-0.3-0.1-0.6-0.2-0.9c0-0.2,0-0.3,0-0.5c0-0.3-0.2-0.6-0.5-0.5
				c0,0-0.1-0.1-0.1-0.1c-1-0.8-1.5,0.5-1.3,1.5c0,0,0,0,0,0c0,0.5,0,0.9,0,1.4c0.1,0.6,0,1.4,0.4,1.8c0.7,0.7,1.7,0,1.8-0.9
				c0-0.3,0-0.7,0-1.1C330.2,201,330.2,200.9,330.2,200.7z"/>
			<g>
				<g>
					<path class="st21" d="M324.3,178.2c-0.2-1.4-0.4-3,0.1-4.3c0.6-1.5,1.9-1.9,3.1-2.2c1.4-0.3,2.8-0.4,4.2-0.3c0.6,0,2,0,2.5,0.5
						c0.7,0.7,0.7,2,0.8,3.2c0.5,7.2,1.2,13.1,1.3,19.7c0,0.9,0,1.9-0.5,2.5c-0.3,0.4-0.7,0.5-1.1,0.6c-2.2,0.5-9,2.3-9.4-2.4
						C325,189.7,325.1,184,324.3,178.2z"/>
					<path class="st22" d="M324.9,176.8c0-0.6,0-1.1,0.3-1.6c0.3-0.5,0.8-0.7,1.2-0.8c1.9-0.4,3.9-0.6,5.8-0.7
						c0.3,0,1.1-0.1,1.4,0.1c0.2,0.1,0.5,0.3,0.7,0.5c0.4,0.8,0.3,1.8,0.4,2.7c0.2,0.8,0,1.7,0.1,2.6c0.1,0.9,0.1,1.9,0.2,2.8
						c0.1,1.4,0.2,2.8,0.4,4.2c0.1,1,0.2,2,0.3,3c0.1,0.5,0.1,1,0,1.4c-0.2,0.6-0.6,0.8-1.1,1c-0.9,0.2-1.8,0.3-2.8,0.4
						c-1.4,0.1-2.8,0.2-4.1,0.3c-0.5,0-1.5,0.3-1.8-0.5c-0.1-0.4-0.1-1.1-0.1-1.6c0-0.6-0.1-1.3-0.1-1.9c-0.2-2.5-0.4-5-0.6-7.6
						C325,179.6,324.9,178.2,324.9,176.8z"/>
					<g>
						<path class="st23" d="M330.8,172.7c-0.2,0-0.3,0-0.5,0c-0.4,0-0.7,0.1-1.1,0.1c-0.2,0-0.5,0.1-0.5,0.2c0,0.1,0,0.1,0.1,0.2
							c0.3,0.2,2.2,0.1,2.3-0.3C331.1,172.8,331,172.7,330.8,172.7z"/>
						<path class="st23" d="M328.5,172.9c-0.1-0.1-0.2-0.1-0.2,0c-0.1,0.1-0.1,0.2-0.1,0.3c0,0.1,0,0.1,0,0.2c0.1,0.1,0.2,0.1,0.3,0
							S328.6,173.1,328.5,172.9L328.5,172.9z"/>
					</g>
					<path class="st24" d="M330.4,194.5c-0.2,0.2-0.3,0.5-0.3,0.7c0,0.1,0,0.3,0,0.4c0.1,0.3,0.3,0.6,0.5,0.8
						c0.3,0.1,0.6,0.2,0.8,0.1c0.1,0,0.1,0,0.2-0.1c0.1-0.1,0.1-0.1,0.2-0.2c0.2-0.3,0.2-0.8,0.1-1.1
						C331.7,194.4,330.9,194,330.4,194.5z"/>
				</g>
				<path class="st25" d="M332.8,182.7c-0.1-0.8-0.2-1.8-0.5-2.5c-0.2-0.4-0.4-0.4-0.8-0.4c-0.8,0.1-1.7,0.3-2.5,0.5
					c-0.2,0.1-0.3,0.3-0.3,0.5c0.1,0.5,0.1,1.1,0.2,1.6c0,0.2,0,0.6,0,1c-0.1,0-0.1,0-0.2,0c-0.5,0-1,0.5-0.7,1.2
					c0.2,0.5,0.6,0.5,0.9,0.3c0.9-0.1,0.9-1.6,0.8-2.9c0.7-0.1,1.4-0.2,2-0.2c0,0,0,0,0.1,0c0,0.1,0,0.3,0,0.4
					c0,0.2,0.1,0.4,0.1,0.6c0,0,0,0.1,0,0.1c-0.4,0-0.7,0.2-0.8,0.7c-0.1,0.9,1.1,1.3,1.6,0.6C333,183.8,332.8,183.2,332.8,182.7z
					 M329.6,181.5c0-0.1,0-0.3-0.1-0.4c0.3-0.1,0.5-0.1,0.8-0.2c0.2,0,0.4-0.1,0.6-0.1c0.3,0,0.5-0.1,0.6,0.1l0,0
					C330.9,181,330.2,181.2,329.6,181.5z"/>
				<g>
					<path class="st26" d="M330.2,189c-0.1,0-0.2,0.1-0.2,0.2c0,0,0,0,0,0.1c0,0.5,0.1,1,0.2,1.5c0,0.1,0.2,0.1,0.3,0.1
						c0.2-0.2,0.4-0.4,0.6-0.5c0.2-0.1,0.3-0.2,0.5-0.4c0.1-0.1,0-0.2-0.1-0.3C331,189.4,330.6,189.2,330.2,189z"/>
					<path class="st26" d="M328.2,189.4c0,0.5,0,1,0.1,1.6c0,0.3,0.4,0.2,0.4-0.1c-0.1-0.5-0.2-1-0.2-1.5
						C328.3,189.3,328.2,189.3,328.2,189.4z"/>
					<path class="st26" d="M327.5,189.5c0,0.6,0.2,1.2,0.3,1.8c0,0.1,0.2,0.1,0.2,0c-0.1-0.6-0.1-1.2-0.1-1.8
						C327.8,189.2,327.5,189.2,327.5,189.5z"/>
					<path class="st26" d="M334,189.3c0-0.2,0-0.5-0.3-0.5c-0.2,0-0.4,0.1-0.5,0.1c-0.1,0-0.3,0-0.3,0.1c-0.2,0.2-0.1,0.5,0,0.8
						c0,0,0,0,0,0c0,0.2,0,0.3,0.1,0.5c0.1,0.3,0.2,0.4,0.5,0.3c0.2,0,0.6-0.1,0.7-0.3C334.2,190.1,334,189.6,334,189.3z"/>
				</g>
			</g>
			<path class="st27" d="M284,221.1c0.4,0,0.8-0.1,1.2,0c1.6,0.5,1.7,3.3,1.4,5.4c-12.4,3.7-25.2,1.6-37.7-0.5
				c-2.5-0.4-7.2-3.5-3.1-6.3c3.1-2.2,8.2,0.3,11.4,0.8C266.1,221.8,275.1,222,284,221.1z"/>
			<path class="st28" d="M251.5,114.3c-1.6,0.7-3.4,0.2-5.1-0.2c0.9,1.2-0.1,3-1.4,3.7c-1.3,0.7-2.8,0.9-3.8,2
				c-1.2,1.3-1.1,3.6-0.4,5.3c0.7,1.7,1.8,3.2,2.5,4.9c1.7,4.2,0.8,10,4.2,12.7c1.4,1.1,3.5,1.9,3.3,3.7c-0.2,1.2-1.5,1.9-2.7,1.8
				c-1.2-0.1-2.2-0.8-3.3-1.3c-5.1-2.3-10.9,0.5-16.4,0.9c-2.2,0.2-4.9-0.4-5.7-2.6c-0.6-1.6,0.1-3.5-0.5-5.1
				c-1.2-3.5-7.1-3.8-7.2-7.6c0-2.7,3.2-4.1,3.9-6.7c0.9-3.6-3.6-7.1-2.1-10.4c1.2-2.6,4.9-2.3,6.7-4.5c2.2-2.6,0.9-7.8,3.9-9.1
				c0.8-0.4,1.8-0.3,2.7-0.4c2.4-0.4,4.2-2.6,6-4.4c1.8-1.8,4.3-3.5,6.6-2.6c1.2,0.5,2.1,1.5,3.3,2c1.9,0.7,3.9-0.2,5.8-0.7
				c1.9-0.5,4.4-0.3,5.3,1.6c0.4,1,0.4,2.3,1.2,2.9c0.6,0.5,1.4,0.4,2.1,0.5c2.6,0.6,3.4,4,3.7,6.8c0.1,0.5,0.1,0.9-0.1,1.3
				c-0.2,0.4-0.6,0.6-1,0.7c-2.3,0.9-4.8,0.5-7-0.5C254.7,110.5,253,113.6,251.5,114.3z"/>
			<path class="st23" d="M369.8,121c2.5,3.9,8.7-0.3,8.7-4.4c1.2,0,2.4-0.1,3.6-0.1c0,0,0,0.1,0,0.1c-0.5,3.7,2.8,6.7,6,6.6
				c2.8-0.1,7.5-2.7,6-6.3c-1.2-2.9-4.1-4.4-6.9-4.2c-2-0.4-4.1,0.9-4.8,3c-1.2,0.1-2.4,0.1-3.6,0.1c0,0,0-0.1-0.1-0.1
				c-1.9-2-5.3-1.9-7.4-0.4C369.6,116.5,368.6,119.1,369.8,121z M383.1,118.2c-0.6-3.1,2.5-5.4,5-4.2c0.3,0.2,0.6-0.1,0.6-0.4
				c1.4,0.3,2.8,1.1,3.8,2.3c2.4,3-0.6,5.7-3.5,6.2C386.4,122.7,383.6,121.1,383.1,118.2z M373.3,115.4c1.6-0.4,2.9,0,4.3,0.7
				c0,0,0,0,0,0c1.5,3.3-5.2,7.6-7.1,4.2C369.3,118,371.4,115.9,373.3,115.4z"/>
			<path class="st29" d="M402.6,106.6c-0.9-0.7-2.3-2.1-3.6-3.1c-0.2-0.4-0.4-0.8-0.6-1.1c-2-3.1-5.1-5.4-8.6-6
				c-3-0.5-5.1,0.5-7.8,1.4c-2.2,0.7-4.9,0.5-6.6,2.6c-1.2,1.5-2,3.3-3.5,4.3c-2.1,1.4-4.8,0.8-7.2,0.1c-0.7,1.6,0.9,3.2,2.3,4
				c3,1.6,6.3,2.2,9.6,1.9c3.1-0.3,6-1.4,9.1-1.6c3.1-0.3,6.5,0.4,8.4,3c0.1,0.2,0.2,0.4,0.3,0.6c0.1,0.8,0.2,1.7,0.4,2.5
				c0.3,1,0.7,3.8,1,4.8c1.7,5-0.5,6.8,0.9,13.7c0.7,0.3,1.7,0,2.2-0.6c0.5-0.6,0.8-1.3,1.3-1.9c0.6-0.7,1.5-1.1,2.2-1.8
				c1.3-1.5,1.1-3.9,1.5-6c0.7-3.5,3.3-6.5,3-10C406.8,110.5,404.7,108.3,402.6,106.6z"/>
			<path class="st29" d="M375.6,135.3c0,0.2,0,0.5,0.1,0.7c0.3,0.6,1.1,0.6,1.7,0.4c2.2-0.5,4.4-1.3,6.5-0.7
				c0.4,0.1,0.8,0.3,1.2,0.3c0.4,0,0.9-0.2,1-0.6c0.2-0.5-0.1-1-0.5-1.3s-0.9-0.3-1.4-0.3c-1.9-0.1-3.7,0-5.6,0.2
				C377.7,134.1,375.8,133.5,375.6,135.3z"/>
		</g>
	</g>
</g>
</svg>
